#N canvas 18 22 1268 732 10;
#X declare -path utilities;
#X obj 384 176 leapmotion;
#X obj 384 91 tgl 15 0 empty empty empty 17 7 0 10 -262144 -1 -1 1
1;
#X obj 412 222 route hand;
#X obj 326 176 metro 50;
#X msg 384 111 general \$1;
#X msg 384 132 hands_palm_position \$1;
#X obj 412 242 s hands;
#X obj 384 200 s general;
#X obj 531 93 unpack 0 0 0 0 0 0;
#X obj 531 70 r general;
#X floatatom 573 118 5 0 0 0 Hands: - -;
#X floatatom 594 139 5 0 0 0 Fingers: - -;
#X obj 102 102 cnv 15 192 120 empty empty empty 20 12 0 14 -125751
-66577 0;
#X obj 106 107 cnv 15 184 110 empty empty Leap_Motion 5 14 0 16 -241536
-66577 0;
#X obj 35 607 jh.autosave jh.leap_main;
#X obj 267 133 tgl 15 0 s_onoff empty On/Off: -45 7 0 10 -150846 -1
-1 1 1;
#X obj 267 67 loadbang;
#X obj 384 68 r s_onoff;
#X floatatom 165 152 5 0 0 0 Hands:__ nohands s_nohands;
#X floatatom 165 172 5 0 0 0 Fingers: nofingers -;
#X obj 573 162 s nohands;
#X obj 594 185 s nofingers;
#X text 111 135 Info:;
#X obj 239 195 tgl 15 0 s_vison empty Render_Visualiser: -110 7 0 10
-150846 -1 -1 0 1;
#X msg 384 154 fingers_position \$1;
#X obj 12 10 declare -path utilities;
#X obj 321 405 gemhead;
#X obj 742 110 r s_vison;
#X obj 321 493 translateXYZ;
#X obj 344 427 jh.leap_hand 0;
#X obj 344 448 / 80;
#X obj 384 450 / 80;
#X obj 425 450 / 80;
#X obj 384 472 - 3;
#X obj 321 655 translateXYZ;
#X obj 344 609 / 80;
#X obj 384 611 / 80;
#X obj 425 611 / 80;
#X obj 384 633 - 3;
#X obj 344 588 jh.leap_hand 1;
#X msg 761 176 destroy;
#X obj 742 197 gemwin;
#X obj 742 131 sel 1 0;
#X obj 321 566 gemhead;
#X obj 457 496 translateXYZ;
#X obj 480 450 / 80;
#X obj 532 450 / 80;
#X obj 585 450 / 80;
#X obj 532 472 - 3;
#X obj 457 409 gemhead;
#X obj 480 429 jh.leap_finger 0 0;
#X msg 742 153 reset \, dimen 640 480 \, create \, 1;
#X obj 321 516 sphere 0.4;
#X obj 321 678 sphere 0.4;
#X obj 457 519 sphere 0.1;
#X obj 1024 77 r s_nohands;
#X floatatom 1024 98 5 0 0 0 - - -;
#X floatatom 1024 162 5 0 0 0 - - -;
#X obj 1024 183 s renderonoff1;
#X obj 1118 182 s renderonoff2;
#X obj 1024 118 sel 0 1 2;
#X msg 1024 140 0;
#X msg 1055 140 1;
#X msg 1118 141 0;
#X msg 1151 141 1;
#X floatatom 1118 162 5 0 0 0 - - -;
#X obj 321 382 r renderonoff1;
#X obj 321 544 r renderonoff2;
#X obj 615 495 translateXYZ;
#X obj 638 449 / 80;
#X obj 690 449 / 80;
#X obj 743 449 / 80;
#X obj 690 471 - 3;
#X obj 615 408 gemhead;
#X obj 615 518 sphere 0.1;
#X obj 777 494 translateXYZ;
#X obj 800 448 / 80;
#X obj 852 448 / 80;
#X obj 905 448 / 80;
#X obj 852 470 - 3;
#X obj 777 407 gemhead;
#X obj 777 517 sphere 0.1;
#X obj 935 493 translateXYZ;
#X obj 958 447 / 80;
#X obj 1010 447 / 80;
#X obj 1063 447 / 80;
#X obj 1010 469 - 3;
#X obj 935 406 gemhead;
#X obj 935 516 sphere 0.1;
#X obj 1097 492 translateXYZ;
#X obj 1120 446 / 80;
#X obj 1172 446 / 80;
#X obj 1225 446 / 80;
#X obj 1172 468 - 3;
#X obj 1097 405 gemhead;
#X obj 1097 515 sphere 0.1;
#X obj 638 428 jh.leap_finger 0 1;
#X obj 800 427 jh.leap_finger 0 2;
#X obj 958 426 jh.leap_finger 0 3;
#X obj 1120 425 jh.leap_finger 0 4;
#X obj 457 658 translateXYZ;
#X obj 480 612 / 80;
#X obj 532 612 / 80;
#X obj 585 612 / 80;
#X obj 532 634 - 3;
#X obj 457 571 gemhead;
#X obj 457 681 sphere 0.1;
#X obj 615 657 translateXYZ;
#X obj 638 611 / 80;
#X obj 690 611 / 80;
#X obj 743 611 / 80;
#X obj 690 633 - 3;
#X obj 615 570 gemhead;
#X obj 615 680 sphere 0.1;
#X obj 777 656 translateXYZ;
#X obj 800 610 / 80;
#X obj 852 610 / 80;
#X obj 905 610 / 80;
#X obj 852 632 - 3;
#X obj 777 569 gemhead;
#X obj 777 679 sphere 0.1;
#X obj 935 655 translateXYZ;
#X obj 958 609 / 80;
#X obj 1010 609 / 80;
#X obj 1063 609 / 80;
#X obj 1010 631 - 3;
#X obj 935 568 gemhead;
#X obj 935 678 sphere 0.1;
#X obj 1097 654 translateXYZ;
#X obj 1120 608 / 80;
#X obj 1172 608 / 80;
#X obj 1172 630 - 3;
#X obj 1097 567 gemhead;
#X obj 1097 677 sphere 0.1;
#X obj 1225 609 / 80;
#X obj 480 591 jh.leap_finger 1 0;
#X obj 638 590 jh.leap_finger 1 1;
#X obj 800 589 jh.leap_finger 1 2;
#X obj 958 588 jh.leap_finger 1 3;
#X obj 1120 587 jh.leap_finger 1 4;
#X connect 0 0 7 0;
#X connect 0 1 2 0;
#X connect 1 0 4 0;
#X connect 1 0 5 0;
#X connect 1 0 3 0;
#X connect 1 0 24 0;
#X connect 2 0 6 0;
#X connect 3 0 0 0;
#X connect 4 0 0 0;
#X connect 5 0 0 0;
#X connect 8 2 10 0;
#X connect 8 3 11 0;
#X connect 9 0 8 0;
#X connect 10 0 20 0;
#X connect 11 0 21 0;
#X connect 16 0 15 0;
#X connect 17 0 1 0;
#X connect 24 0 0 0;
#X connect 26 0 28 0;
#X connect 27 0 42 0;
#X connect 28 0 52 0;
#X connect 29 0 30 0;
#X connect 29 1 31 0;
#X connect 29 2 32 0;
#X connect 30 0 28 1;
#X connect 31 0 33 0;
#X connect 32 0 28 3;
#X connect 33 0 28 2;
#X connect 34 0 53 0;
#X connect 35 0 34 1;
#X connect 36 0 38 0;
#X connect 37 0 34 3;
#X connect 38 0 34 2;
#X connect 39 0 35 0;
#X connect 39 1 36 0;
#X connect 39 2 37 0;
#X connect 40 0 41 0;
#X connect 42 0 51 0;
#X connect 42 1 40 0;
#X connect 43 0 34 0;
#X connect 44 0 54 0;
#X connect 45 0 44 1;
#X connect 46 0 48 0;
#X connect 47 0 44 3;
#X connect 48 0 44 2;
#X connect 49 0 44 0;
#X connect 50 0 45 0;
#X connect 50 1 46 0;
#X connect 50 2 47 0;
#X connect 51 0 41 0;
#X connect 55 0 56 0;
#X connect 56 0 60 0;
#X connect 57 0 58 0;
#X connect 60 0 61 0;
#X connect 60 0 63 0;
#X connect 60 1 62 0;
#X connect 60 1 63 0;
#X connect 60 2 62 0;
#X connect 60 2 64 0;
#X connect 61 0 57 0;
#X connect 62 0 57 0;
#X connect 63 0 65 0;
#X connect 64 0 65 0;
#X connect 65 0 59 0;
#X connect 66 0 26 0;
#X connect 66 0 49 0;
#X connect 66 0 73 0;
#X connect 66 0 80 0;
#X connect 66 0 87 0;
#X connect 66 0 94 0;
#X connect 67 0 43 0;
#X connect 67 0 105 0;
#X connect 67 0 112 0;
#X connect 67 0 119 0;
#X connect 67 0 126 0;
#X connect 67 0 132 0;
#X connect 68 0 74 0;
#X connect 69 0 68 1;
#X connect 70 0 72 0;
#X connect 71 0 68 3;
#X connect 72 0 68 2;
#X connect 73 0 68 0;
#X connect 75 0 81 0;
#X connect 76 0 75 1;
#X connect 77 0 79 0;
#X connect 78 0 75 3;
#X connect 79 0 75 2;
#X connect 80 0 75 0;
#X connect 82 0 88 0;
#X connect 83 0 82 1;
#X connect 84 0 86 0;
#X connect 85 0 82 3;
#X connect 86 0 82 2;
#X connect 87 0 82 0;
#X connect 89 0 95 0;
#X connect 90 0 89 1;
#X connect 91 0 93 0;
#X connect 92 0 89 3;
#X connect 93 0 89 2;
#X connect 94 0 89 0;
#X connect 96 0 69 0;
#X connect 96 1 70 0;
#X connect 96 2 71 0;
#X connect 97 0 76 0;
#X connect 97 1 77 0;
#X connect 97 2 78 0;
#X connect 98 0 83 0;
#X connect 98 1 84 0;
#X connect 98 2 85 0;
#X connect 99 0 90 0;
#X connect 99 1 91 0;
#X connect 99 2 92 0;
#X connect 100 0 106 0;
#X connect 101 0 100 1;
#X connect 102 0 104 0;
#X connect 103 0 100 3;
#X connect 104 0 100 2;
#X connect 105 0 100 0;
#X connect 107 0 113 0;
#X connect 108 0 107 1;
#X connect 109 0 111 0;
#X connect 110 0 107 3;
#X connect 111 0 107 2;
#X connect 112 0 107 0;
#X connect 114 0 120 0;
#X connect 115 0 114 1;
#X connect 116 0 118 0;
#X connect 117 0 114 3;
#X connect 118 0 114 2;
#X connect 119 0 114 0;
#X connect 121 0 127 0;
#X connect 122 0 121 1;
#X connect 123 0 125 0;
#X connect 124 0 121 3;
#X connect 125 0 121 2;
#X connect 126 0 121 0;
#X connect 128 0 133 0;
#X connect 129 0 128 1;
#X connect 130 0 131 0;
#X connect 131 0 128 2;
#X connect 132 0 128 0;
#X connect 134 0 128 3;
#X connect 135 0 101 0;
#X connect 135 1 102 0;
#X connect 135 2 103 0;
#X connect 136 0 108 0;
#X connect 136 1 109 0;
#X connect 136 2 110 0;
#X connect 137 0 115 0;
#X connect 137 1 116 0;
#X connect 137 2 117 0;
#X connect 138 0 122 0;
#X connect 138 1 123 0;
#X connect 138 2 124 0;
#X connect 139 0 129 0;
#X connect 139 1 130 0;
#X connect 139 2 134 0;
#X coords 0 -1 1 1 196 124 1 100 100;
