#N canvas 28 58 1105 696 10;
#X declare -path utilities;
#X obj 9 -36 declare -path utilities;
#X obj 9 -15 jh.leap_check;
#X obj 23 550 readsf~ 2;
#X obj 56 428 openpanel;
#X msg 23 471 open \$1;
#X obj 56 409 bng 15 250 50 0 empty empty empty 17 7 0 10 -262144 -1
-1;
#X msg 80 471 start;
#X obj 23 449 symbol;
#X obj 80 449 del 5;
#X obj 23 602 outlet~;
#X obj 553 31 jh.leap_keyboard _________________________________________
;
#X obj 23 577 *~ 0.5;
#X obj 125 550 readsf~ 2;
#X obj 158 428 openpanel;
#X msg 125 471 open \$1;
#X obj 158 409 bng 15 250 50 0 empty empty empty 17 7 0 10 -262144
-1 -1;
#X msg 182 471 start;
#X obj 125 449 symbol;
#X obj 182 449 del 5;
#X obj 125 602 outlet~;
#X obj 125 577 *~ 0.5;
#X obj 227 550 readsf~ 2;
#X obj 260 428 openpanel;
#X msg 227 471 open \$1;
#X obj 260 409 bng 15 250 50 0 empty empty empty 17 7 0 10 -262144
-1 -1;
#X msg 284 471 start;
#X obj 227 449 symbol;
#X obj 284 449 del 5;
#X obj 227 602 outlet~;
#X obj 227 577 *~ 0.5;
#X obj 330 550 readsf~ 2;
#X obj 363 428 openpanel;
#X msg 330 471 open \$1;
#X obj 363 409 bng 15 250 50 0 empty empty empty 17 7 0 10 -262144
-1 -1;
#X msg 387 471 start;
#X obj 330 449 symbol;
#X obj 387 449 del 5;
#X obj 330 602 outlet~;
#X obj 330 577 *~ 0.5;
#X obj 435 551 readsf~ 2;
#X obj 468 429 openpanel;
#X msg 435 472 open \$1;
#X obj 468 410 bng 15 250 50 0 empty empty empty 17 7 0 10 -262144
-1 -1;
#X msg 492 472 start;
#X obj 435 450 symbol;
#X obj 492 450 del 5;
#X obj 435 603 outlet~;
#X obj 435 578 *~ 0.5;
#X obj 537 551 readsf~ 2;
#X obj 570 429 openpanel;
#X msg 537 472 open \$1;
#X obj 570 410 bng 15 250 50 0 empty empty empty 17 7 0 10 -262144
-1 -1;
#X msg 594 472 start;
#X obj 537 450 symbol;
#X obj 594 450 del 5;
#X obj 537 603 outlet~;
#X obj 537 578 *~ 0.5;
#X obj 639 551 readsf~ 2;
#X obj 672 429 openpanel;
#X msg 639 472 open \$1;
#X obj 672 410 bng 15 250 50 0 empty empty empty 17 7 0 10 -262144
-1 -1;
#X msg 696 472 start;
#X obj 639 450 symbol;
#X obj 696 450 del 5;
#X obj 639 603 outlet~;
#X obj 639 578 *~ 0.5;
#X obj 742 551 readsf~ 2;
#X obj 775 429 openpanel;
#X msg 742 472 open \$1;
#X obj 775 410 bng 15 250 50 0 empty empty empty 17 7 0 10 -262144
-1 -1;
#X msg 799 472 start;
#X obj 742 450 symbol;
#X obj 799 450 del 5;
#X obj 742 603 outlet~;
#X obj 742 578 *~ 0.5;
#X obj 844 551 readsf~ 2;
#X obj 877 429 openpanel;
#X msg 844 472 open \$1;
#X obj 877 410 bng 15 250 50 0 empty empty empty 17 7 0 10 -262144
-1 -1;
#X msg 901 472 start;
#X obj 844 450 symbol;
#X obj 901 450 del 5;
#X obj 844 603 outlet~;
#X obj 844 578 *~ 0.5;
#X obj 947 551 readsf~ 2;
#X obj 980 429 openpanel;
#X msg 947 472 open \$1;
#X obj 980 410 bng 15 250 50 0 empty empty empty 17 7 0 10 -262144
-1 -1;
#X msg 1001 472 start;
#X obj 947 450 symbol;
#X obj 1001 450 del 5;
#X obj 947 603 outlet~;
#X obj 947 578 *~ 0.5;
#X obj 102 102 cnv 15 250 163 empty empty Reverb 20 12 0 14 -125751
-66577 0;
#X obj 106 106 cnv 15 242 155 empty empty Sample_Player 3 10 0 16 -241536
-66577 0;
#X obj 113 132 cnv 15 105 100 empty empty Hand_0 32 7 0 11 -192064
-66577 0;
#X obj 118 169 bng 15 250 50 0 \$0-open04 \$0-colouropen04 4 5 -6 0
10 -109696 -1 -1;
#X obj 138 169 bng 15 250 50 0 \$0-open03 \$0-colouropen03 3 5 -6 0
10 -109696 -1 -1;
#X obj 158 169 bng 15 250 50 0 \$0-open02 \$0-colouropen02 2 5 -6 0
10 -109696 -1 -1;
#X obj 178 169 bng 15 250 50 0 \$0-open01 \$0-colouropen01 1 5 -6 0
10 -109696 -1 -1;
#X obj 198 169 bng 15 250 50 0 \$0-open00 \$0-colouropen00 0 5 -6 0
10 -109696 -1 -1;
#X obj 118 145 cnv 5 5 5 empty empty Open_sf: 0 7 0 10 -192064 -66577
0;
#X obj 118 186 cnv 5 5 5 empty empty Play_sf: 0 7 0 10 -192064 -66577
0;
#X obj 235 132 cnv 15 105 100 empty empty Hand_1 32 7 0 11 -192064
-66577 0;
#X obj 240 145 cnv 5 5 5 empty empty Open_sf: 0 7 0 10 -192064 -66577
0;
#X obj 240 186 cnv 5 5 5 empty empty Play_sf: 0 7 0 10 -192064 -66577
0;
#X obj 240 169 bng 15 250 50 0 \$0-open10 \$0-colouropen10 0 5 -6 0
10 -109696 -1 -1;
#X obj 260 169 bng 15 250 50 0 \$0-open11 \$0-colouropen11 1 5 -6 0
10 -109696 -1 -1;
#X obj 280 169 bng 15 250 50 0 \$0-open12 \$0-colouropen12 2 5 -6 0
10 -109696 -1 -1;
#X obj 300 169 bng 15 250 50 0 \$0-open13 \$0-colouropen13 3 5 -6 0
10 -109696 -1 -1;
#X obj 320 169 bng 15 250 50 0 \$0-open14 \$0-colouropen14 4 5 -6 0
10 -109696 -1 -1;
#X obj 118 211 bng 15 250 50 0 \$0-play04 \$0-trig04 4 5 -6 0 10 -122174
-1 -1;
#X obj 139 211 bng 15 250 50 0 \$0-play03 \$0-trig03 3 5 -6 0 10 -122174
-1 -1;
#X obj 158 211 bng 15 250 50 0 \$0-play02 \$0-trig02 2 5 -6 0 10 -122174
-1 -1;
#X obj 178 211 bng 15 250 50 0 \$0-play01 \$0-trig01 1 5 -6 0 10 -122174
-1 -1;
#X obj 198 211 bng 15 250 50 0 \$0-play00 \$0-trig00 0 5 -6 0 10 -122174
-1 -1;
#X obj 240 211 bng 15 250 50 0 \$0-play10 \$0-trig10 0 5 -6 0 10 -64830
-1 -1;
#X obj 260 211 bng 15 250 50 0 \$0-play11 \$0-trig11 1 5 -6 0 10 -122174
-1 -1;
#X obj 280 211 bng 15 250 50 0 \$0-play12 \$0-trig12 2 5 -6 0 10 -122174
-1 -1;
#X obj 300 211 bng 15 250 50 0 \$0-play13 \$0-trig13 3 5 -6 0 10 -122174
-1 -1;
#X obj 320 211 bng 15 250 50 0 \$0-play14 \$0-trig14 4 5 -6 0 10 -122174
-1 -1;
#X obj 56 386 r \$0-open04;
#X obj 158 388 r \$0-open03;
#X obj 260 388 r \$0-open02;
#X obj 363 389 r \$0-open01;
#X obj 467 385 r \$0-open00;
#X obj 570 386 r \$0-open10;
#X obj 672 387 r \$0-open11;
#X obj 775 388 r \$0-open12;
#X obj 877 388 r \$0-open13;
#X obj 980 389 r \$0-open14;
#X obj 503 176 r \$0-open04;
#X obj 502 198 r \$0-open03;
#X obj 501 220 r \$0-open02;
#X obj 501 241 r \$0-open01;
#X obj 501 262 r \$0-open00;
#X obj 791 175 r \$0-open10;
#X obj 791 197 r \$0-open11;
#X obj 791 219 r \$0-open12;
#X obj 791 241 r \$0-open13;
#X obj 792 262 r \$0-open14;
#X obj 667 177 s \$0-colouropen04;
#X obj 666 199 s \$0-colouropen03;
#X obj 665 221 s \$0-colouropen02;
#X obj 665 242 s \$0-colouropen01;
#X obj 665 263 s \$0-colouropen00;
#X obj 944 175 s \$0-colouropen10;
#X obj 944 197 s \$0-colouropen11;
#X obj 944 219 s \$0-colouropen12;
#X obj 944 241 s \$0-colouropen13;
#X obj 945 262 s \$0-colouropen14;
#X msg 582 177 color 27 -1;
#X msg 580 199 color 27 -1;
#X msg 580 220 color 27 -1;
#X msg 579 242 color 27 -1;
#X msg 580 263 color 27 -1;
#X msg 868 175 color 27 -1;
#X msg 867 197 color 27 -1;
#X msg 867 218 color 27 -1;
#X msg 866 240 color 27 -1;
#X msg 867 261 color 27 -1;
#X msg 667 152 color -7.06304e+06 -1;
#X obj 327 134 bng 10 250 50 0 \$0-reset1 \$0-noinlet empty 17 7 0
10 -60480 -1 -1;
#X obj 667 130 r \$0-reset0;
#X msg 944 153 color -7.06304e+06 -1;
#X obj 944 131 r \$0-reset1;
#X obj 205 134 bng 10 250 50 0 \$0-reset0 \$0-noinlet empty 17 7 0
10 -60480 -1 -1;
#X obj 326 113 tgl 10 0 \$0-leaponoff \$0-leapload Leap_on/off: -72
5 0 10 -3390 -1 -1 1 1;
#X obj 977 8 r \$0-leaponoff;
#X obj 157 -35 loadbang;
#X msg 157 -13 1;
#X obj 157 10 s \$0-leapload;
#X floatatom 977 30 5 0 0 0 - - -;
#X obj 553 60 spigot;
#X obj 597 60 spigot;
#X obj 639 60 spigot;
#X obj 683 60 spigot;
#X obj 727 60 spigot;
#X obj 771 60 spigot;
#X obj 813 60 spigot;
#X obj 857 60 spigot;
#X obj 900 60 spigot;
#X obj 944 60 spigot;
#X obj 553 83 s \$0-trig04;
#X obj 597 104 s \$0-trig03;
#X obj 639 83 s \$0-trig02;
#X obj 683 104 s \$0-trig01;
#X obj 727 83 s \$0-trig00;
#X obj 771 104 s \$0-trig10;
#X obj 813 83 s \$0-trig11;
#X obj 857 104 s \$0-trig12;
#X obj 900 83 s \$0-trig13;
#X obj 944 104 s \$0-trig14;
#X obj 23 365 r \$0-play04;
#X obj 125 366 r \$0-play03;
#X obj 227 366 r \$0-play02;
#X obj 330 368 r \$0-play01;
#X obj 435 364 r \$0-play00;
#X obj 537 364 r \$0-play10;
#X obj 639 365 r \$0-play11;
#X obj 741 365 r \$0-play12;
#X obj 844 367 r \$0-play13;
#X obj 949 363 r \$0-play14;
#X obj 113 238 jh.leap_loop;
#X obj 113 331 s \$0-trig04;
#X obj 12 170 r \$0-play04;
#N canvas 455 28 815 452 loop 0;
#X obj 128 82 jh.leap_loop;
#X obj 128 158 jh.leap_loop;
#X obj 128 234 jh.leap_loop;
#X obj 129 312 jh.leap_loop;
#X obj 530 65 jh.leap_loop;
#X obj 530 141 jh.leap_loop;
#X obj 530 217 jh.leap_loop;
#X obj 532 293 jh.leap_loop;
#X obj 531 381 jh.leap_loop;
#X obj 227 102 s \$0-trig03;
#X obj 223 182 s \$0-trig02;
#X obj 223 261 s \$0-trig01;
#X obj 223 336 s \$0-trig00;
#X obj 624 91 s \$0-trig10;
#X obj 624 168 s \$0-trig11;
#X obj 627 242 s \$0-trig12;
#X obj 629 322 s \$0-trig13;
#X obj 627 406 s \$0-trig14;
#X obj 38 51 r \$0-play03;
#X obj 34 150 r \$0-play02;
#X obj 26 230 r \$0-play01;
#X obj 24 327 r \$0-play00;
#X obj 369 60 r \$0-play10;
#X obj 370 141 r \$0-play11;
#X obj 383 282 r \$0-play13;
#X obj 447 361 r \$0-play14;
#X obj 247 40 inlet;
#X obj 320 38 inlet;
#X msg 39 73 1;
#X msg 67 93 0;
#X floatatom 39 109 5 0 0 0 - - -;
#X msg 29 170 1;
#X msg 57 190 0;
#X floatatom 29 206 5 0 0 0 - - -;
#X msg 24 257 1;
#X msg 52 277 0;
#X floatatom 24 293 5 0 0 0 - - -;
#X obj 52 257 del 50;
#X obj 57 170 del 50;
#X obj 67 73 del 50;
#X msg 32 353 1;
#X msg 60 373 0;
#X floatatom 32 389 5 0 0 0 - - -;
#X obj 60 353 del 50;
#X msg 370 83 1;
#X msg 398 103 0;
#X floatatom 370 119 5 0 0 0 - - -;
#X obj 398 83 del 50;
#X msg 365 164 1;
#X msg 393 184 0;
#X floatatom 365 200 5 0 0 0 - - -;
#X obj 393 164 del 50;
#X obj 431 193 r \$0-play12;
#X msg 430 217 1;
#X msg 458 237 0;
#X floatatom 430 253 5 0 0 0 - - -;
#X obj 458 217 del 50;
#X msg 374 306 1;
#X msg 402 326 0;
#X floatatom 374 342 5 0 0 0 - - -;
#X obj 402 306 del 50;
#X msg 439 386 1;
#X msg 467 406 0;
#X floatatom 439 422 5 0 0 0 - - -;
#X obj 467 386 del 50;
#X obj 227 82 sel 1;
#X obj 223 160 sel 1;
#X obj 224 235 sel 1;
#X obj 223 314 sel 1;
#X obj 622 66 sel 1;
#X obj 623 140 sel 1;
#X obj 627 219 sel 1;
#X obj 630 293 sel 1;
#X obj 628 383 sel 1;
#X connect 0 0 65 0;
#X connect 0 1 1 1;
#X connect 0 2 1 2;
#X connect 1 0 66 0;
#X connect 1 1 2 1;
#X connect 1 2 2 2;
#X connect 2 0 67 0;
#X connect 2 1 3 1;
#X connect 2 2 3 2;
#X connect 3 0 68 0;
#X connect 4 0 69 0;
#X connect 4 1 5 1;
#X connect 4 2 5 2;
#X connect 5 0 70 0;
#X connect 5 1 6 1;
#X connect 5 2 6 2;
#X connect 6 0 71 0;
#X connect 6 1 7 1;
#X connect 6 2 7 2;
#X connect 7 0 72 0;
#X connect 7 1 8 1;
#X connect 7 2 8 2;
#X connect 8 0 73 0;
#X connect 18 0 28 0;
#X connect 18 0 39 0;
#X connect 19 0 31 0;
#X connect 19 0 38 0;
#X connect 20 0 34 0;
#X connect 20 0 37 0;
#X connect 21 0 40 0;
#X connect 21 0 43 0;
#X connect 22 0 44 0;
#X connect 22 0 47 0;
#X connect 23 0 48 0;
#X connect 23 0 51 0;
#X connect 24 0 57 0;
#X connect 24 0 60 0;
#X connect 25 0 61 0;
#X connect 25 0 64 0;
#X connect 26 0 0 1;
#X connect 26 0 4 1;
#X connect 27 0 0 2;
#X connect 27 0 4 2;
#X connect 28 0 30 0;
#X connect 29 0 30 0;
#X connect 30 0 0 0;
#X connect 31 0 33 0;
#X connect 32 0 33 0;
#X connect 33 0 1 0;
#X connect 34 0 36 0;
#X connect 35 0 36 0;
#X connect 36 0 2 0;
#X connect 37 0 35 0;
#X connect 38 0 32 0;
#X connect 39 0 29 0;
#X connect 40 0 42 0;
#X connect 41 0 42 0;
#X connect 42 0 3 0;
#X connect 43 0 41 0;
#X connect 44 0 46 0;
#X connect 45 0 46 0;
#X connect 46 0 4 0;
#X connect 47 0 45 0;
#X connect 48 0 50 0;
#X connect 49 0 50 0;
#X connect 50 0 5 0;
#X connect 51 0 49 0;
#X connect 52 0 53 0;
#X connect 52 0 56 0;
#X connect 53 0 55 0;
#X connect 54 0 55 0;
#X connect 55 0 6 0;
#X connect 56 0 54 0;
#X connect 57 0 59 0;
#X connect 58 0 59 0;
#X connect 59 0 7 0;
#X connect 60 0 58 0;
#X connect 61 0 63 0;
#X connect 62 0 63 0;
#X connect 63 0 8 0;
#X connect 64 0 62 0;
#X connect 65 0 9 0;
#X connect 66 0 10 0;
#X connect 67 0 11 0;
#X connect 68 0 12 0;
#X connect 69 0 13 0;
#X connect 70 0 14 0;
#X connect 71 0 15 0;
#X connect 72 0 16 0;
#X connect 73 0 17 0;
#X restore 145 278 pd loop;
#X obj 113 308 sel 1;
#X msg 12 197 1;
#X msg 40 217 0;
#X floatatom 12 233 5 0 0 0 - - -;
#X obj 40 197 del 50;
#X obj 323 240 bng 15 250 50 0 \$0-stopall \$0-noinlet Stop_all: -55
7 0 10 -3390 -1 -1;
#X obj 79 494 r \$0-stopall;
#X msg 79 518 stop;
#X obj 182 495 r \$0-stopall;
#X msg 182 519 stop;
#X obj 283 495 r \$0-stopall;
#X msg 283 519 stop;
#X obj 386 496 r \$0-stopall;
#X msg 386 520 stop;
#X obj 492 498 r \$0-stopall;
#X msg 492 522 stop;
#X obj 595 499 r \$0-stopall;
#X msg 595 523 stop;
#X obj 696 499 r \$0-stopall;
#X msg 696 523 stop;
#X obj 799 500 r \$0-stopall;
#X msg 799 524 stop;
#X obj 903 498 r \$0-stopall;
#X msg 903 522 stop;
#X obj 1006 499 r \$0-stopall;
#X msg 1006 523 stop;
#X connect 2 0 11 0;
#X connect 2 1 11 0;
#X connect 3 0 7 1;
#X connect 4 0 2 0;
#X connect 5 0 3 0;
#X connect 6 0 2 0;
#X connect 7 0 4 0;
#X connect 8 0 6 0;
#X connect 10 0 173 0;
#X connect 10 1 174 0;
#X connect 10 2 175 0;
#X connect 10 3 176 0;
#X connect 10 4 177 0;
#X connect 10 5 178 0;
#X connect 10 6 179 0;
#X connect 10 7 180 0;
#X connect 10 8 181 0;
#X connect 10 9 182 0;
#X connect 11 0 9 0;
#X connect 12 0 20 0;
#X connect 12 1 20 0;
#X connect 13 0 17 1;
#X connect 14 0 12 0;
#X connect 15 0 13 0;
#X connect 16 0 12 0;
#X connect 17 0 14 0;
#X connect 18 0 16 0;
#X connect 20 0 19 0;
#X connect 21 0 29 0;
#X connect 21 1 29 0;
#X connect 22 0 26 1;
#X connect 23 0 21 0;
#X connect 24 0 22 0;
#X connect 25 0 21 0;
#X connect 26 0 23 0;
#X connect 27 0 25 0;
#X connect 29 0 28 0;
#X connect 30 0 38 0;
#X connect 30 1 38 0;
#X connect 31 0 35 1;
#X connect 32 0 30 0;
#X connect 33 0 31 0;
#X connect 34 0 30 0;
#X connect 35 0 32 0;
#X connect 36 0 34 0;
#X connect 38 0 37 0;
#X connect 39 0 47 0;
#X connect 39 1 47 0;
#X connect 40 0 44 1;
#X connect 41 0 39 0;
#X connect 42 0 40 0;
#X connect 43 0 39 0;
#X connect 44 0 41 0;
#X connect 45 0 43 0;
#X connect 47 0 46 0;
#X connect 48 0 56 0;
#X connect 48 1 56 0;
#X connect 49 0 53 1;
#X connect 50 0 48 0;
#X connect 51 0 49 0;
#X connect 52 0 48 0;
#X connect 53 0 50 0;
#X connect 54 0 52 0;
#X connect 56 0 55 0;
#X connect 57 0 65 0;
#X connect 57 1 65 0;
#X connect 58 0 62 1;
#X connect 59 0 57 0;
#X connect 60 0 58 0;
#X connect 61 0 57 0;
#X connect 62 0 59 0;
#X connect 63 0 61 0;
#X connect 65 0 64 0;
#X connect 66 0 74 0;
#X connect 66 1 74 0;
#X connect 67 0 71 1;
#X connect 68 0 66 0;
#X connect 69 0 67 0;
#X connect 70 0 66 0;
#X connect 71 0 68 0;
#X connect 72 0 70 0;
#X connect 74 0 73 0;
#X connect 75 0 83 0;
#X connect 75 1 83 0;
#X connect 76 0 80 1;
#X connect 77 0 75 0;
#X connect 78 0 76 0;
#X connect 79 0 75 0;
#X connect 80 0 77 0;
#X connect 81 0 79 0;
#X connect 83 0 82 0;
#X connect 84 0 92 0;
#X connect 84 1 92 0;
#X connect 85 0 89 1;
#X connect 86 0 84 0;
#X connect 87 0 85 0;
#X connect 88 0 84 0;
#X connect 89 0 86 0;
#X connect 90 0 88 0;
#X connect 92 0 91 0;
#X connect 121 0 5 0;
#X connect 122 0 15 0;
#X connect 123 0 24 0;
#X connect 124 0 33 0;
#X connect 125 0 42 0;
#X connect 126 0 51 0;
#X connect 127 0 60 0;
#X connect 128 0 69 0;
#X connect 129 0 78 0;
#X connect 130 0 87 0;
#X connect 131 0 151 0;
#X connect 132 0 152 0;
#X connect 133 0 153 0;
#X connect 134 0 154 0;
#X connect 135 0 155 0;
#X connect 136 0 156 0;
#X connect 137 0 157 0;
#X connect 138 0 158 0;
#X connect 139 0 159 0;
#X connect 140 0 160 0;
#X connect 151 0 141 0;
#X connect 152 0 142 0;
#X connect 153 0 143 0;
#X connect 154 0 144 0;
#X connect 155 0 145 0;
#X connect 156 0 146 0;
#X connect 157 0 147 0;
#X connect 158 0 148 0;
#X connect 159 0 149 0;
#X connect 160 0 150 0;
#X connect 161 0 141 0;
#X connect 161 0 142 0;
#X connect 161 0 143 0;
#X connect 161 0 144 0;
#X connect 161 0 145 0;
#X connect 163 0 161 0;
#X connect 164 0 146 0;
#X connect 164 0 147 0;
#X connect 164 0 148 0;
#X connect 164 0 149 0;
#X connect 164 0 150 0;
#X connect 165 0 164 0;
#X connect 168 0 172 0;
#X connect 169 0 170 0;
#X connect 170 0 171 0;
#X connect 172 0 173 1;
#X connect 172 0 174 1;
#X connect 172 0 175 1;
#X connect 172 0 176 1;
#X connect 172 0 177 1;
#X connect 172 0 178 1;
#X connect 172 0 179 1;
#X connect 172 0 180 1;
#X connect 172 0 181 1;
#X connect 172 0 182 1;
#X connect 173 0 183 0;
#X connect 174 0 184 0;
#X connect 175 0 185 0;
#X connect 176 0 186 0;
#X connect 177 0 187 0;
#X connect 178 0 188 0;
#X connect 179 0 189 0;
#X connect 180 0 190 0;
#X connect 181 0 191 0;
#X connect 182 0 192 0;
#X connect 193 0 7 0;
#X connect 193 0 8 0;
#X connect 194 0 17 0;
#X connect 194 0 18 0;
#X connect 195 0 26 0;
#X connect 195 0 27 0;
#X connect 196 0 35 0;
#X connect 196 0 36 0;
#X connect 197 0 44 0;
#X connect 197 0 45 0;
#X connect 198 0 53 0;
#X connect 198 0 54 0;
#X connect 199 0 62 0;
#X connect 199 0 63 0;
#X connect 200 0 71 0;
#X connect 200 0 72 0;
#X connect 201 0 80 0;
#X connect 201 0 81 0;
#X connect 202 0 89 0;
#X connect 202 0 90 0;
#X connect 203 0 207 0;
#X connect 203 1 206 0;
#X connect 203 2 206 1;
#X connect 205 0 208 0;
#X connect 205 0 211 0;
#X connect 207 0 204 0;
#X connect 208 0 210 0;
#X connect 209 0 210 0;
#X connect 210 0 203 0;
#X connect 211 0 209 0;
#X connect 213 0 214 0;
#X connect 214 0 2 0;
#X connect 215 0 216 0;
#X connect 216 0 12 0;
#X connect 217 0 218 0;
#X connect 218 0 21 0;
#X connect 219 0 220 0;
#X connect 220 0 30 0;
#X connect 221 0 222 0;
#X connect 222 0 39 0;
#X connect 223 0 224 0;
#X connect 224 0 48 0;
#X connect 225 0 226 0;
#X connect 226 0 57 0;
#X connect 227 0 228 0;
#X connect 228 0 66 0;
#X connect 229 0 230 0;
#X connect 230 0 75 0;
#X connect 231 0 232 0;
#X connect 232 0 84 0;
#X coords 0 -1 1 1 254 167 1 100 100;
