#N canvas 485 22 758 740 10;
#X declare -path utilities;
#X obj 197 228 freeverb~;
#X obj 9 1 declare -path utilities;
#X obj 10 25 jh.leap_check;
#X obj 492 93 jh.leap_distance;
#X obj 395 94 jh.leap_fists;
#X obj 286 55 inlet~;
#X obj 134 55 inlet~;
#X obj 123 323 outlet~;
#X obj 262 324 outlet~;
#X msg 492 165 roomsize \$1;
#X floatatom 492 118 5 0 0 0 - - -;
#X obj 492 141 / 600;
#X msg 395 167 freeze \$1;
#X msg 395 121 1;
#X msg 446 121 0;
#X obj 395 146 tgl 15 0 empty empty empty 17 7 0 10 -262144 -1 -1 1
1;
#X obj 381 385 jh.leap_hand 0;
#X obj 540 387 jh.leap_hand 1;
#X floatatom 421 407 5 0 0 0 - - -;
#X floatatom 580 409 5 0 0 0 - - -;
#X floatatom 460 542 5 0 0 0 - - -;
#X floatatom 577 544 5 0 0 0 - - -;
#X obj 421 456 moses 300;
#X msg 577 566 dry \$1;
#X msg 460 562 wet \$1;
#X obj 421 478 moses 0;
#X obj 460 583 s param_\$1;
#X obj 197 182 r param_\$1;
#X obj 577 588 s param_\$1;
#X obj 395 192 s param_\$1;
#X obj 492 189 s param_\$1;
#X obj 421 432 expr (($f1 + $f2) / 2 - 40);
#X obj 460 504 expr $f1 / 300 \; ($f1 / 300) * -1 + 1;
#X connect 0 0 7 0;
#X connect 0 1 8 0;
#X connect 3 0 10 0;
#X connect 4 0 13 0;
#X connect 4 1 14 0;
#X connect 4 2 13 0;
#X connect 4 3 14 0;
#X connect 5 0 0 1;
#X connect 6 0 0 0;
#X connect 9 0 30 0;
#X connect 10 0 11 0;
#X connect 11 0 9 0;
#X connect 12 0 29 0;
#X connect 13 0 15 0;
#X connect 14 0 15 0;
#X connect 15 0 12 0;
#X connect 16 1 18 0;
#X connect 17 1 19 0;
#X connect 18 0 31 0;
#X connect 19 0 31 1;
#X connect 20 0 24 0;
#X connect 21 0 23 0;
#X connect 22 0 25 0;
#X connect 23 0 28 0;
#X connect 24 0 26 0;
#X connect 25 1 32 0;
#X connect 27 0 0 0;
#X connect 31 0 22 0;
#X connect 32 0 20 0;
#X connect 32 1 21 0;
