#N canvas 188 22 1763 1235 10;
#X declare -path utilities;
#X obj 460 241 leapmotion;
#X obj 460 90 tgl 15 0 empty empty empty 17 7 0 10 -262144 -1 -1 1
1;
#X obj 488 287 route hand;
#X obj 402 241 metro 50;
#X msg 460 110 general \$1;
#X msg 460 131 hands_palm_position \$1;
#X obj 488 307 s hands;
#X obj 460 265 s general;
#X obj 603 84 unpack 0 0 0 0 0 0;
#X obj 603 61 r general;
#X floatatom 645 109 5 0 0 0 Hands: - -;
#X floatatom 666 130 5 0 0 0 Fingers: - -;
#X obj 102 102 cnv 15 192 120 empty empty empty 20 12 0 14 -125751
-66577 0;
#X obj 106 106 cnv 15 184 112 empty empty Leap_Motion 3 10 0 16 -241536
-66577 0;
#X obj 271 110 tgl 15 0 s_onoff noinlet On/Off: -45 7 0 10 -150846
-1 -1 1 1;
#X obj 267 67 loadbang;
#X obj 460 67 r s_onoff;
#X floatatom 161 149 5 0 0 0 Hands:__ nohands s_nohands;
#X floatatom 161 169 5 0 0 0 Fingers: nofingers -;
#X obj 645 153 s nohands;
#X obj 666 176 s nofingers;
#X text 108 129 Info:;
#X msg 460 173 fingers_position \$1;
#X obj 12 10 declare -path utilities;
#X obj 420 605 gemhead;
#X obj 29 557 r s_vison;
#X obj 420 722 translateXYZ;
#X obj 443 656 jh.leap_hand 0;
#X obj 443 677 / 80;
#X obj 483 679 / 80;
#X obj 524 679 / 80;
#X obj 483 701 - 3;
#X obj 412 1015 translateXYZ;
#X obj 435 969 / 80;
#X obj 475 971 / 80;
#X obj 516 971 / 80;
#X obj 475 993 - 3;
#X obj 435 948 jh.leap_hand 1;
#X msg 48 747 destroy;
#X obj 29 768 gemwin;
#X obj 29 578 sel 1 0;
#X obj 412 892 gemhead;
#X obj 556 725 translateXYZ;
#X obj 579 679 / 80;
#X obj 631 679 / 80;
#X obj 684 679 / 80;
#X obj 631 701 - 3;
#X obj 556 638 gemhead;
#X obj 420 745 sphere 0.4;
#X obj 412 1038 sphere 0.4;
#X obj 556 748 sphere 0.1;
#X obj 29 835 r s_nohands;
#X floatatom 29 856 5 0 0 0 - - -;
#X floatatom 29 920 5 0 0 0 - - -;
#X obj 29 941 s renderonoff1;
#X obj 123 940 s renderonoff2;
#X obj 29 876 sel 0 1 2;
#X msg 29 898 0;
#X msg 60 898 1;
#X msg 123 899 0;
#X msg 156 899 1;
#X floatatom 123 920 5 0 0 0 - - -;
#X obj 420 571 r renderonoff1;
#X obj 412 868 r renderonoff2;
#X obj 714 724 translateXYZ;
#X obj 737 678 / 80;
#X obj 789 678 / 80;
#X obj 842 678 / 80;
#X obj 789 700 - 3;
#X obj 714 637 gemhead;
#X obj 714 747 sphere 0.1;
#X obj 876 723 translateXYZ;
#X obj 899 677 / 80;
#X obj 951 677 / 80;
#X obj 1004 677 / 80;
#X obj 951 699 - 3;
#X obj 876 636 gemhead;
#X obj 876 746 sphere 0.1;
#X obj 1034 722 translateXYZ;
#X obj 1057 676 / 80;
#X obj 1109 676 / 80;
#X obj 1162 676 / 80;
#X obj 1109 698 - 3;
#X obj 1034 635 gemhead;
#X obj 1034 745 sphere 0.1;
#X obj 1196 721 translateXYZ;
#X obj 1219 675 / 80;
#X obj 1271 675 / 80;
#X obj 1324 675 / 80;
#X obj 1271 697 - 3;
#X obj 1196 634 gemhead;
#X obj 1196 744 sphere 0.1;
#X obj 548 1018 translateXYZ;
#X obj 571 972 / 80;
#X obj 623 972 / 80;
#X obj 676 972 / 80;
#X obj 623 994 - 3;
#X obj 548 929 gemhead;
#X obj 548 1041 sphere 0.1;
#X obj 706 1017 translateXYZ;
#X obj 729 971 / 80;
#X obj 781 971 / 80;
#X obj 834 971 / 80;
#X obj 781 993 - 3;
#X obj 706 928 gemhead;
#X obj 706 1040 sphere 0.1;
#X obj 868 1016 translateXYZ;
#X obj 891 970 / 80;
#X obj 943 970 / 80;
#X obj 996 970 / 80;
#X obj 943 992 - 3;
#X obj 868 927 gemhead;
#X obj 868 1039 sphere 0.1;
#X obj 1026 1015 translateXYZ;
#X obj 1049 969 / 80;
#X obj 1101 969 / 80;
#X obj 1154 969 / 80;
#X obj 1101 991 - 3;
#X obj 1026 926 gemhead;
#X obj 1026 1038 sphere 0.1;
#X obj 1188 1014 translateXYZ;
#X obj 1211 968 / 80;
#X obj 1263 968 / 80;
#X obj 1263 990 - 3;
#X obj 1188 925 gemhead;
#X obj 1188 1037 sphere 0.1;
#X obj 1316 969 / 80;
#X obj 773 64 dsp;
#X floatatom 254 149 5 0 0 0 CPU_(%):_ cpu -;
#X floatatom 254 170 5 0 0 0 CPU_Peak: cpupeak -;
#X obj 773 85 s cpu;
#X obj 788 107 s cpupeak;
#X obj 106 106 cnv 15 184 30 empty cnvopt Leap_Options 3 10 0 16 -241536
-66577 0;
#X obj 854 198 r opton;
#X obj 854 220 sel 1 0;
#X msg 854 241 \; cnvopt pos 106 106;
#X obj 135 664 r small;
#X obj 227 664 r medium;
#X obj 318 664 r large;
#X obj 102 708 spigot;
#X floatatom 135 686 5 0 0 0 - - -;
#X floatatom 227 686 5 0 0 0 - - -;
#X floatatom 318 686 5 0 0 0 - - -;
#X obj 194 708 spigot;
#X obj 285 708 spigot;
#X obj 135 622 loadbang;
#X msg 135 643 0;
#X msg 318 643 0;
#X msg 194 729 dimen 640 480;
#X msg 102 730 dimen 400 300;
#X msg 285 728 dimen 800 600;
#X msg 231 435 1;
#X obj 231 457 s mediumoff;
#X msg 523 450 0;
#X obj 523 480 s mediumoff;
#X obj 598 480 s largeoff;
#X obj 523 404 r small;
#X msg 598 449 0;
#X msg 669 449 0;
#X obj 598 403 r medium;
#X obj 669 402 r large;
#X obj 669 480 s smalloff;
#X obj 669 426 sel 1;
#X obj 598 427 sel 1;
#X obj 523 428 sel 1;
#X obj 231 412 loadbang;
#X msg 30 598 reset \, dimen 640 480 \, create \, 1;
#X msg 854 277 \; cnvopttext1 pos 108 125;
#X obj 106 136 cnv 15 184 30 empty cnvoptbg1 empty 3 10 0 16 -241536
-66577 0;
#X msg 1014 240 \; cnvopt pos 106 188;
#X msg 1014 278 \; cnvopttext1 pos 106 196;
#X msg 1014 314 \; smalloff pos 126 196;
#X msg 1015 348 \; mediumoff pos 166 196;
#X msg 1013 383 \; largeoff pos 206 196;
#X msg 1014 420 \; cnvoptbg1 pos 106 188;
#X msg 1012 458 \; cnvoptbg2 pos 106 188;
#X obj 222 130 tgl 10 0 small smalloff S: -12 5 0 10 -150846 -1 -1
0 1;
#X obj 248 130 tgl 10 0 medium mediumoff M: -12 5 0 10 -150846 -1 -1
0 1;
#X obj 274 130 tgl 10 0 large largeoff L: -12 5 0 10 -150846 -1 -1
1 1;
#X obj 108 125 cnv 15 15 15 empty cnvopttext1 Visualiser_Size: 3 10
0 10 -241536 -66577 0;
#X msg 854 422 \; cnvoptbg1 pos 106 136;
#X msg 854 458 \; cnvoptbg2 pos 106 166;
#X obj 928 128 s check;
#X obj 928 65 loadbang;
#X obj 928 86 metro 50;
#X msg 928 107 0;
#X msg 854 312 \; smalloff pos 222 130;
#X msg 854 346 \; mediumoff pos 248 130;
#X msg 854 381 \; largeoff pos 274 130;
#X obj 579 658 jh.leap_finger 0 0;
#X obj 737 657 jh.leap_finger 0 1;
#X obj 899 656 jh.leap_finger 0 2;
#X obj 1057 655 jh.leap_finger 0 3;
#X obj 1219 654 jh.leap_finger 0 4;
#X obj 571 951 jh.leap_finger 1 0;
#X obj 729 949 jh.leap_finger 1 1;
#X obj 891 949 jh.leap_finger 1 2;
#X obj 1049 948 jh.leap_finger 1 3;
#X obj 1211 947 jh.leap_finger 1 4;
#X obj 201 144 tgl 10 0 sfingersonoff rfingersonoff Render_Fingers:
-90 5 0 10 -150846 -1 -1 1 1;
#X obj 231 480 s rfingersonoff;
#X obj 556 588 spigot;
#X obj 556 610 tgl 15 0 empty empty empty 17 7 0 10 -262144 -1 -1 0
1;
#X obj 589 554 r sfingersonoff;
#X obj 548 885 spigot;
#X obj 548 907 tgl 15 0 empty empty empty 17 7 0 10 -262144 -1 -1 0
1;
#X obj 581 846 r sfingersonoff;
#X msg 855 496 \; rfingersonoff pos 201 144;
#X msg 1017 495 \; rfingersonoff pos 201 199;
#X obj 106 166 cnv 15 184 30 empty cnvoptbg2 empty 3 10 0 16 -241536
-66577 0;
#X obj 273 202 tgl 10 0 opton noinlet Opt: -26 5 0 9 -150846 -1 -1
1 1;
#X obj 222 197 tgl 15 0 s_vison noinlet Visualiser: -68 7 0 10 -150846
-1 -1 0 1;
#X text 437 45 Turns on/off leap;
#X text 602 41 Displays general info;
#X text 751 42 Displays DSP info;
#X text 921 43 Sends out checking signal;
#X text 30 537 Creates gem window and allows for size adjustment;
#X text 29 805 Stops rendering hands when out of frame;
#X text 421 535 Renders all fingers and hands to visualiser;
#X text 909 207 Moves options window from its hidyhole;
#X text 229 366 Sets up basic visualiser settings on boot;
#X text 523 368 Stops more than one gem window size being selected
;
#X obj 420 630 color 0.2 0.4 1;
#X obj 412 919 color 0.2 1 0.4;
#X msg 460 195 fingers_velocity \$1;
#X obj 1384 579 gemhead;
#X obj 1384 716 text2d;
#X obj 1384 604 color 0.2 0.4 1;
#X msg 1384 690 text hand 0 (blue);
#X msg 1505 691 15;
#X obj 1564 579 gemhead;
#X obj 1564 718 text2d;
#X msg 1693 693 15;
#X obj 1564 604 color 0.2 1 0.4;
#X msg 1564 692 text hand 1 (green);
#X obj 1505 658 loadbang;
#X obj 1384 629 translateXYZ 0 3.6 0;
#X obj 1564 629 translateXYZ 0 -3.6 0;
#X text 1382 550 prints text in gem window;
#X obj 1162 208 loadbang;
#X msg 460 152 hands_finger_count \$1;
#X msg 460 217 hands_palm_velocity \$1;
#X obj 689 554 jh.leap_fists;
#X msg 689 576 0;
#X msg 713 576 1;
#X floatatom 689 599 5 0 0 0 - - -;
#X obj 713 532 loadbang;
#X obj 687 847 jh.leap_fists;
#X msg 737 871 0;
#X msg 762 870 1;
#X floatatom 737 894 5 0 0 0 - - -;
#X obj 762 822 loadbang;
#X connect 0 0 7 0;
#X connect 0 1 2 0;
#X connect 1 0 4 0;
#X connect 1 0 5 0;
#X connect 1 0 3 0;
#X connect 1 0 22 0;
#X connect 1 0 224 0;
#X connect 1 0 240 0;
#X connect 1 0 241 0;
#X connect 2 0 6 0;
#X connect 3 0 0 0;
#X connect 4 0 0 0;
#X connect 5 0 0 0;
#X connect 8 2 10 0;
#X connect 8 3 11 0;
#X connect 9 0 8 0;
#X connect 10 0 19 0;
#X connect 11 0 20 0;
#X connect 15 0 14 0;
#X connect 16 0 1 0;
#X connect 22 0 0 0;
#X connect 24 0 222 0;
#X connect 25 0 40 0;
#X connect 26 0 48 0;
#X connect 27 0 28 0;
#X connect 27 1 29 0;
#X connect 27 2 30 0;
#X connect 28 0 26 1;
#X connect 29 0 31 0;
#X connect 30 0 26 3;
#X connect 31 0 26 2;
#X connect 32 0 49 0;
#X connect 33 0 32 1;
#X connect 34 0 36 0;
#X connect 35 0 32 3;
#X connect 36 0 32 2;
#X connect 37 0 33 0;
#X connect 37 1 34 0;
#X connect 37 2 35 0;
#X connect 38 0 39 0;
#X connect 40 0 166 0;
#X connect 40 1 38 0;
#X connect 41 0 223 0;
#X connect 42 0 50 0;
#X connect 43 0 42 1;
#X connect 44 0 46 0;
#X connect 45 0 42 3;
#X connect 46 0 42 2;
#X connect 47 0 42 0;
#X connect 51 0 52 0;
#X connect 52 0 56 0;
#X connect 53 0 54 0;
#X connect 56 0 57 0;
#X connect 56 0 59 0;
#X connect 56 1 58 0;
#X connect 56 1 59 0;
#X connect 56 2 58 0;
#X connect 56 2 60 0;
#X connect 57 0 53 0;
#X connect 58 0 53 0;
#X connect 59 0 61 0;
#X connect 60 0 61 0;
#X connect 61 0 55 0;
#X connect 62 0 24 0;
#X connect 62 0 201 0;
#X connect 63 0 41 0;
#X connect 63 0 204 0;
#X connect 64 0 70 0;
#X connect 65 0 64 1;
#X connect 66 0 68 0;
#X connect 67 0 64 3;
#X connect 68 0 64 2;
#X connect 69 0 64 0;
#X connect 71 0 77 0;
#X connect 72 0 71 1;
#X connect 73 0 75 0;
#X connect 74 0 71 3;
#X connect 75 0 71 2;
#X connect 76 0 71 0;
#X connect 78 0 84 0;
#X connect 79 0 78 1;
#X connect 80 0 82 0;
#X connect 81 0 78 3;
#X connect 82 0 78 2;
#X connect 83 0 78 0;
#X connect 85 0 91 0;
#X connect 86 0 85 1;
#X connect 87 0 89 0;
#X connect 88 0 85 3;
#X connect 89 0 85 2;
#X connect 90 0 85 0;
#X connect 92 0 98 0;
#X connect 93 0 92 1;
#X connect 94 0 96 0;
#X connect 95 0 92 3;
#X connect 96 0 92 2;
#X connect 97 0 92 0;
#X connect 99 0 105 0;
#X connect 100 0 99 1;
#X connect 101 0 103 0;
#X connect 102 0 99 3;
#X connect 103 0 99 2;
#X connect 104 0 99 0;
#X connect 106 0 112 0;
#X connect 107 0 106 1;
#X connect 108 0 110 0;
#X connect 109 0 106 3;
#X connect 110 0 106 2;
#X connect 111 0 106 0;
#X connect 113 0 119 0;
#X connect 114 0 113 1;
#X connect 115 0 117 0;
#X connect 116 0 113 3;
#X connect 117 0 113 2;
#X connect 118 0 113 0;
#X connect 120 0 125 0;
#X connect 121 0 120 1;
#X connect 122 0 123 0;
#X connect 123 0 120 2;
#X connect 124 0 120 0;
#X connect 126 0 120 3;
#X connect 127 0 130 0;
#X connect 127 1 131 0;
#X connect 133 0 134 0;
#X connect 134 0 135 0;
#X connect 134 0 167 0;
#X connect 134 0 186 0;
#X connect 134 0 187 0;
#X connect 134 0 188 0;
#X connect 134 0 180 0;
#X connect 134 0 181 0;
#X connect 134 0 207 0;
#X connect 134 1 169 0;
#X connect 134 1 170 0;
#X connect 134 1 171 0;
#X connect 134 1 172 0;
#X connect 134 1 173 0;
#X connect 134 1 174 0;
#X connect 134 1 175 0;
#X connect 134 1 208 0;
#X connect 136 0 140 0;
#X connect 137 0 141 0;
#X connect 138 0 142 0;
#X connect 139 0 149 0;
#X connect 140 0 139 1;
#X connect 141 0 143 1;
#X connect 142 0 144 1;
#X connect 143 0 148 0;
#X connect 144 0 150 0;
#X connect 145 0 146 0;
#X connect 145 0 147 0;
#X connect 146 0 140 0;
#X connect 147 0 142 0;
#X connect 148 0 39 0;
#X connect 149 0 39 0;
#X connect 150 0 39 0;
#X connect 151 0 152 0;
#X connect 151 0 200 0;
#X connect 153 0 154 0;
#X connect 153 0 155 0;
#X connect 156 0 164 0;
#X connect 157 0 155 0;
#X connect 157 0 161 0;
#X connect 158 0 154 0;
#X connect 158 0 161 0;
#X connect 159 0 163 0;
#X connect 160 0 162 0;
#X connect 162 0 158 0;
#X connect 163 0 157 0;
#X connect 164 0 153 0;
#X connect 165 0 151 0;
#X connect 166 0 39 0;
#X connect 166 0 139 0;
#X connect 166 0 143 0;
#X connect 166 0 144 0;
#X connect 183 0 184 0;
#X connect 184 0 185 0;
#X connect 185 0 182 0;
#X connect 189 0 43 0;
#X connect 189 1 44 0;
#X connect 189 2 45 0;
#X connect 190 0 65 0;
#X connect 190 1 66 0;
#X connect 190 2 67 0;
#X connect 191 0 72 0;
#X connect 191 1 73 0;
#X connect 191 2 74 0;
#X connect 192 0 79 0;
#X connect 192 1 80 0;
#X connect 192 2 81 0;
#X connect 193 0 86 0;
#X connect 193 1 87 0;
#X connect 193 2 88 0;
#X connect 194 0 93 0;
#X connect 194 1 94 0;
#X connect 194 2 95 0;
#X connect 195 0 100 0;
#X connect 195 1 101 0;
#X connect 195 2 102 0;
#X connect 196 0 107 0;
#X connect 196 1 108 0;
#X connect 196 2 109 0;
#X connect 197 0 114 0;
#X connect 197 1 115 0;
#X connect 197 2 116 0;
#X connect 198 0 121 0;
#X connect 198 1 122 0;
#X connect 198 2 126 0;
#X connect 201 0 202 0;
#X connect 202 0 47 0;
#X connect 202 0 69 0;
#X connect 202 0 76 0;
#X connect 202 0 83 0;
#X connect 202 0 90 0;
#X connect 203 0 201 1;
#X connect 203 0 202 0;
#X connect 204 0 205 0;
#X connect 205 0 97 0;
#X connect 205 0 104 0;
#X connect 205 0 111 0;
#X connect 205 0 118 0;
#X connect 205 0 124 0;
#X connect 206 0 204 1;
#X connect 206 0 205 0;
#X connect 222 0 26 0;
#X connect 223 0 32 0;
#X connect 224 0 0 0;
#X connect 225 0 227 0;
#X connect 227 0 236 0;
#X connect 228 0 226 0;
#X connect 229 0 226 1;
#X connect 230 0 233 0;
#X connect 232 0 231 1;
#X connect 233 0 237 0;
#X connect 234 0 231 0;
#X connect 235 0 228 0;
#X connect 235 0 229 0;
#X connect 235 0 234 0;
#X connect 235 0 232 0;
#X connect 236 0 226 0;
#X connect 237 0 231 0;
#X connect 239 0 169 0;
#X connect 239 0 170 0;
#X connect 239 0 171 0;
#X connect 239 0 172 0;
#X connect 239 0 173 0;
#X connect 239 0 174 0;
#X connect 239 0 175 0;
#X connect 239 0 208 0;
#X connect 240 0 0 0;
#X connect 241 0 0 0;
#X connect 242 0 243 0;
#X connect 242 1 244 0;
#X connect 243 0 202 0;
#X connect 243 0 245 0;
#X connect 244 0 202 0;
#X connect 244 0 245 0;
#X connect 245 0 201 1;
#X connect 246 0 244 0;
#X connect 247 2 248 0;
#X connect 247 3 249 0;
#X connect 248 0 250 0;
#X connect 248 0 205 0;
#X connect 249 0 250 0;
#X connect 249 0 205 0;
#X connect 250 0 204 1;
#X connect 251 0 249 0;
#X coords 0 -1 1 1 196 124 1 100 100;
