#N canvas 14 28 1268 732 10;
#X declare -path utilities;
#X obj 384 176 leapmotion;
#X obj 384 91 tgl 15 0 empty empty empty 17 7 0 10 -262144 -1 -1 1
1;
#X obj 412 222 route hand;
#X obj 326 176 metro 50;
#X msg 384 111 general \$1;
#X msg 384 132 hands_palm_position \$1;
#X obj 412 242 s hands;
#X obj 384 200 s general;
#X obj 531 93 unpack 0 0 0 0 0 0;
#X obj 531 70 r general;
#X floatatom 573 118 5 0 0 0 Hands: - -;
#X floatatom 594 139 5 0 0 0 Fingers: - -;
#X obj 102 102 cnv 15 192 120 empty empty empty 20 12 0 14 -125751
-66577 0;
#X obj 106 106 cnv 15 184 112 empty empty Leap_Motion 3 10 0 16 -241536
-66577 0;
#X obj 35 607 jh.autosave jh.leap_main;
#X obj 270 128 tgl 15 0 s_onoff empty On/Off: -45 7 0 10 -150846 -1
-1 1 1;
#X obj 267 67 loadbang;
#X obj 384 68 r s_onoff;
#X floatatom 161 149 5 0 0 0 Hands:__ nohands s_nohands;
#X floatatom 161 169 5 0 0 0 Fingers: nofingers -;
#X obj 573 162 s nohands;
#X obj 594 185 s nofingers;
#X text 108 129 Info:;
#X msg 384 154 fingers_position \$1;
#X obj 12 10 declare -path utilities;
#X obj 318 690 gemhead;
#X obj 679 56 r s_vison;
#X obj 318 778 translateXYZ;
#X obj 341 712 jh.leap_hand 0;
#X obj 341 733 / 80;
#X obj 381 735 / 80;
#X obj 422 735 / 80;
#X obj 381 757 - 3;
#X obj 318 940 translateXYZ;
#X obj 341 894 / 80;
#X obj 381 896 / 80;
#X obj 422 896 / 80;
#X obj 381 918 - 3;
#X obj 341 873 jh.leap_hand 1;
#X msg 698 246 destroy;
#X obj 679 267 gemwin;
#X obj 679 77 sel 1 0;
#X obj 318 851 gemhead;
#X obj 454 781 translateXYZ;
#X obj 477 735 / 80;
#X obj 529 735 / 80;
#X obj 582 735 / 80;
#X obj 529 757 - 3;
#X obj 454 694 gemhead;
#X obj 477 714 jh.leap_finger 0 0;
#X obj 318 801 sphere 0.4;
#X obj 318 963 sphere 0.4;
#X obj 454 804 sphere 0.1;
#X obj 1024 77 r s_nohands;
#X floatatom 1024 98 5 0 0 0 - - -;
#X floatatom 1024 162 5 0 0 0 - - -;
#X obj 1024 183 s renderonoff1;
#X obj 1118 182 s renderonoff2;
#X obj 1024 118 sel 0 1 2;
#X msg 1024 140 0;
#X msg 1055 140 1;
#X msg 1118 141 0;
#X msg 1151 141 1;
#X floatatom 1118 162 5 0 0 0 - - -;
#X obj 318 667 r renderonoff1;
#X obj 318 829 r renderonoff2;
#X obj 612 780 translateXYZ;
#X obj 635 734 / 80;
#X obj 687 734 / 80;
#X obj 740 734 / 80;
#X obj 687 756 - 3;
#X obj 612 693 gemhead;
#X obj 612 803 sphere 0.1;
#X obj 774 779 translateXYZ;
#X obj 797 733 / 80;
#X obj 849 733 / 80;
#X obj 902 733 / 80;
#X obj 849 755 - 3;
#X obj 774 692 gemhead;
#X obj 774 802 sphere 0.1;
#X obj 932 778 translateXYZ;
#X obj 955 732 / 80;
#X obj 1007 732 / 80;
#X obj 1060 732 / 80;
#X obj 1007 754 - 3;
#X obj 932 691 gemhead;
#X obj 932 801 sphere 0.1;
#X obj 1094 777 translateXYZ;
#X obj 1117 731 / 80;
#X obj 1169 731 / 80;
#X obj 1222 731 / 80;
#X obj 1169 753 - 3;
#X obj 1094 690 gemhead;
#X obj 1094 800 sphere 0.1;
#X obj 635 713 jh.leap_finger 0 1;
#X obj 797 712 jh.leap_finger 0 2;
#X obj 955 711 jh.leap_finger 0 3;
#X obj 1117 710 jh.leap_finger 0 4;
#X obj 454 943 translateXYZ;
#X obj 477 897 / 80;
#X obj 529 897 / 80;
#X obj 582 897 / 80;
#X obj 529 919 - 3;
#X obj 454 856 gemhead;
#X obj 454 966 sphere 0.1;
#X obj 612 942 translateXYZ;
#X obj 635 896 / 80;
#X obj 687 896 / 80;
#X obj 740 896 / 80;
#X obj 687 918 - 3;
#X obj 612 855 gemhead;
#X obj 612 965 sphere 0.1;
#X obj 774 941 translateXYZ;
#X obj 797 895 / 80;
#X obj 849 895 / 80;
#X obj 902 895 / 80;
#X obj 849 917 - 3;
#X obj 774 854 gemhead;
#X obj 774 964 sphere 0.1;
#X obj 932 940 translateXYZ;
#X obj 955 894 / 80;
#X obj 1007 894 / 80;
#X obj 1060 894 / 80;
#X obj 1007 916 - 3;
#X obj 932 853 gemhead;
#X obj 932 963 sphere 0.1;
#X obj 1094 939 translateXYZ;
#X obj 1117 893 / 80;
#X obj 1169 893 / 80;
#X obj 1169 915 - 3;
#X obj 1094 852 gemhead;
#X obj 1094 962 sphere 0.1;
#X obj 1222 894 / 80;
#X obj 477 876 jh.leap_finger 1 0;
#X obj 635 875 jh.leap_finger 1 1;
#X obj 797 874 jh.leap_finger 1 2;
#X obj 955 873 jh.leap_finger 1 3;
#X obj 1117 872 jh.leap_finger 1 4;
#X obj 1144 64 dsp;
#X floatatom 254 149 5 0 0 0 CPU_(%):_ cpu -;
#X floatatom 254 170 5 0 0 0 CPU_Peak: cpupeak -;
#X obj 1144 85 s cpu;
#X obj 1159 107 s cpupeak;
#X obj 106 188 cnv 15 184 30 empty cnvopt Leap_Options 3 10 0 16 -241536
-66577 0;
#X obj 39 271 r opton;
#X obj 39 293 sel 1 0;
#X msg 39 314 \; cnvopt pos 106 106;
#X obj 785 163 r small;
#X obj 877 163 r medium;
#X obj 968 163 r large;
#X obj 752 207 spigot;
#X floatatom 785 185 5 0 0 0 - - -;
#X floatatom 877 185 5 0 0 0 - - -;
#X floatatom 968 185 5 0 0 0 - - -;
#X obj 844 207 spigot;
#X obj 935 207 spigot;
#X obj 785 121 loadbang;
#X msg 785 142 0;
#X msg 968 142 0;
#X msg 844 228 dimen 640 480;
#X msg 752 229 dimen 400 300;
#X msg 935 227 dimen 800 600;
#X msg 401 346 1;
#X obj 401 368 s mediumoff;
#X msg 609 406 0;
#X obj 609 436 s mediumoff;
#X obj 684 436 s largeoff;
#X obj 609 360 r small;
#X msg 684 405 0;
#X msg 755 405 0;
#X obj 684 359 r medium;
#X obj 755 358 r large;
#X obj 755 436 s smalloff;
#X obj 755 382 sel 1;
#X obj 684 383 sel 1;
#X obj 609 384 sel 1;
#X obj 401 323 loadbang;
#X msg 680 97 reset \, dimen 640 480 \, create \, 1;
#X msg 39 350 \; cnvopttext1 pos 108 125;
#X msg 39 385 \; smalloff pos 126 144;
#X msg 39 419 \; mediumoff pos 166 144;
#X msg 39 454 \; largeoff pos 206 144;
#X obj 106 188 cnv 15 184 30 empty cnvoptbg1 empty 3 10 0 16 -241536
-66577 0;
#X msg 199 313 \; cnvopt pos 106 188;
#X msg 199 351 \; cnvopttext1 pos 106 196;
#X msg 199 387 \; smalloff pos 126 196;
#X msg 200 421 \; mediumoff pos 166 196;
#X msg 198 456 \; largeoff pos 206 196;
#X msg 199 493 \; cnvoptbg1 pos 106 188;
#X msg 197 531 \; cnvoptbg2 pos 106 188;
#X obj 126 196 tgl 15 0 small smalloff S: -15 7 0 10 -150846 -1 -1
0 1;
#X obj 166 196 tgl 15 0 medium mediumoff M: -15 7 0 10 -150846 -1 -1
0 1;
#X obj 206 196 tgl 15 0 large largeoff L: -15 7 0 10 -150846 -1 -1
0 1;
#X obj 106 196 cnv 15 15 15 empty cnvopttext1 Visualiser_Size: 3 10
0 10 -241536 -66577 0;
#X obj 106 188 cnv 15 184 30 empty cnvoptbg2 empty 3 10 0 16 -241536
-66577 0;
#X obj 224 197 tgl 15 0 s_vison empty Visualiser: -68 7 0 10 -150846
-1 -1 0 1;
#X obj 275 202 tgl 10 0 opton empty Opt: -26 5 0 9 -150846 -1 -1 0
1;
#X msg 39 495 \; cnvoptbg1 pos 106 136;
#X msg 39 531 \; cnvoptbg2 pos 106 166;
#X connect 0 0 7 0;
#X connect 0 1 2 0;
#X connect 1 0 4 0;
#X connect 1 0 5 0;
#X connect 1 0 3 0;
#X connect 1 0 23 0;
#X connect 2 0 6 0;
#X connect 3 0 0 0;
#X connect 4 0 0 0;
#X connect 5 0 0 0;
#X connect 8 2 10 0;
#X connect 8 3 11 0;
#X connect 9 0 8 0;
#X connect 10 0 20 0;
#X connect 11 0 21 0;
#X connect 16 0 15 0;
#X connect 17 0 1 0;
#X connect 23 0 0 0;
#X connect 25 0 27 0;
#X connect 26 0 41 0;
#X connect 27 0 50 0;
#X connect 28 0 29 0;
#X connect 28 1 30 0;
#X connect 28 2 31 0;
#X connect 29 0 27 1;
#X connect 30 0 32 0;
#X connect 31 0 27 3;
#X connect 32 0 27 2;
#X connect 33 0 51 0;
#X connect 34 0 33 1;
#X connect 35 0 37 0;
#X connect 36 0 33 3;
#X connect 37 0 33 2;
#X connect 38 0 34 0;
#X connect 38 1 35 0;
#X connect 38 2 36 0;
#X connect 39 0 40 0;
#X connect 41 0 177 0;
#X connect 41 1 39 0;
#X connect 42 0 33 0;
#X connect 43 0 52 0;
#X connect 44 0 43 1;
#X connect 45 0 47 0;
#X connect 46 0 43 3;
#X connect 47 0 43 2;
#X connect 48 0 43 0;
#X connect 49 0 44 0;
#X connect 49 1 45 0;
#X connect 49 2 46 0;
#X connect 53 0 54 0;
#X connect 54 0 58 0;
#X connect 55 0 56 0;
#X connect 58 0 59 0;
#X connect 58 0 61 0;
#X connect 58 1 60 0;
#X connect 58 1 61 0;
#X connect 58 2 60 0;
#X connect 58 2 62 0;
#X connect 59 0 55 0;
#X connect 60 0 55 0;
#X connect 61 0 63 0;
#X connect 62 0 63 0;
#X connect 63 0 57 0;
#X connect 64 0 25 0;
#X connect 64 0 48 0;
#X connect 64 0 71 0;
#X connect 64 0 78 0;
#X connect 64 0 85 0;
#X connect 64 0 92 0;
#X connect 65 0 42 0;
#X connect 65 0 103 0;
#X connect 65 0 110 0;
#X connect 65 0 117 0;
#X connect 65 0 124 0;
#X connect 65 0 130 0;
#X connect 66 0 72 0;
#X connect 67 0 66 1;
#X connect 68 0 70 0;
#X connect 69 0 66 3;
#X connect 70 0 66 2;
#X connect 71 0 66 0;
#X connect 73 0 79 0;
#X connect 74 0 73 1;
#X connect 75 0 77 0;
#X connect 76 0 73 3;
#X connect 77 0 73 2;
#X connect 78 0 73 0;
#X connect 80 0 86 0;
#X connect 81 0 80 1;
#X connect 82 0 84 0;
#X connect 83 0 80 3;
#X connect 84 0 80 2;
#X connect 85 0 80 0;
#X connect 87 0 93 0;
#X connect 88 0 87 1;
#X connect 89 0 91 0;
#X connect 90 0 87 3;
#X connect 91 0 87 2;
#X connect 92 0 87 0;
#X connect 94 0 67 0;
#X connect 94 1 68 0;
#X connect 94 2 69 0;
#X connect 95 0 74 0;
#X connect 95 1 75 0;
#X connect 95 2 76 0;
#X connect 96 0 81 0;
#X connect 96 1 82 0;
#X connect 96 2 83 0;
#X connect 97 0 88 0;
#X connect 97 1 89 0;
#X connect 97 2 90 0;
#X connect 98 0 104 0;
#X connect 99 0 98 1;
#X connect 100 0 102 0;
#X connect 101 0 98 3;
#X connect 102 0 98 2;
#X connect 103 0 98 0;
#X connect 105 0 111 0;
#X connect 106 0 105 1;
#X connect 107 0 109 0;
#X connect 108 0 105 3;
#X connect 109 0 105 2;
#X connect 110 0 105 0;
#X connect 112 0 118 0;
#X connect 113 0 112 1;
#X connect 114 0 116 0;
#X connect 115 0 112 3;
#X connect 116 0 112 2;
#X connect 117 0 112 0;
#X connect 119 0 125 0;
#X connect 120 0 119 1;
#X connect 121 0 123 0;
#X connect 122 0 119 3;
#X connect 123 0 119 2;
#X connect 124 0 119 0;
#X connect 126 0 131 0;
#X connect 127 0 126 1;
#X connect 128 0 129 0;
#X connect 129 0 126 2;
#X connect 130 0 126 0;
#X connect 132 0 126 3;
#X connect 133 0 99 0;
#X connect 133 1 100 0;
#X connect 133 2 101 0;
#X connect 134 0 106 0;
#X connect 134 1 107 0;
#X connect 134 2 108 0;
#X connect 135 0 113 0;
#X connect 135 1 114 0;
#X connect 135 2 115 0;
#X connect 136 0 120 0;
#X connect 136 1 121 0;
#X connect 136 2 122 0;
#X connect 137 0 127 0;
#X connect 137 1 128 0;
#X connect 137 2 132 0;
#X connect 138 0 141 0;
#X connect 138 1 142 0;
#X connect 144 0 145 0;
#X connect 145 0 146 0;
#X connect 145 0 178 0;
#X connect 145 0 179 0;
#X connect 145 0 180 0;
#X connect 145 0 181 0;
#X connect 145 0 197 0;
#X connect 145 0 198 0;
#X connect 145 1 183 0;
#X connect 145 1 184 0;
#X connect 145 1 185 0;
#X connect 145 1 186 0;
#X connect 145 1 187 0;
#X connect 145 1 188 0;
#X connect 145 1 189 0;
#X connect 147 0 151 0;
#X connect 148 0 152 0;
#X connect 149 0 153 0;
#X connect 150 0 160 0;
#X connect 151 0 150 1;
#X connect 152 0 154 1;
#X connect 153 0 155 1;
#X connect 154 0 159 0;
#X connect 155 0 161 0;
#X connect 156 0 157 0;
#X connect 156 0 158 0;
#X connect 157 0 151 0;
#X connect 158 0 153 0;
#X connect 159 0 40 0;
#X connect 160 0 40 0;
#X connect 161 0 40 0;
#X connect 162 0 163 0;
#X connect 164 0 165 0;
#X connect 164 0 166 0;
#X connect 167 0 175 0;
#X connect 168 0 166 0;
#X connect 168 0 172 0;
#X connect 169 0 165 0;
#X connect 169 0 172 0;
#X connect 170 0 174 0;
#X connect 171 0 173 0;
#X connect 173 0 169 0;
#X connect 174 0 168 0;
#X connect 175 0 164 0;
#X connect 176 0 162 0;
#X connect 177 0 40 0;
#X connect 177 0 150 0;
#X connect 177 0 154 0;
#X connect 177 0 155 0;
#X coords 0 -1 1 1 196 124 1 100 100;
