#N canvas 823 171 1263 907 10;
#X declare -path utilities;
#X obj 105 47 inlet~;
#X obj 514 189 expr~ ($v1 + 1) / 2;
#X obj 499 484 *~;
#X obj 514 58 osc~ 0.5;
#X obj 514 36 r \$0-freq;
#X obj 514 144 *~;
#X obj 529 123 vline~;
#X msg 529 102 \$1 20;
#X obj 529 82 r \$0-curve;
#X obj 529 215 r \$0-depth;
#X floatatom 529 239 5 0 0 0 - - -;
#X obj 574 237 expr ($f1 * -1) + 1;
#X floatatom 574 260 5 0 0 0 - - -;
#X obj 514 327 +~;
#X obj 514 304 *~;
#X obj 574 302 vline~;
#X msg 574 280 \$1 20;
#X msg 529 260 \$1 20;
#X obj 529 282 vline~;
#X obj 514 348 *~ 0.9;
#X obj 499 511 outlet~;
#X obj 951 35 loadbang;
#X obj 514 165 clip~ -1 1;
#X obj 951 80 s \$0-freqload;
#X obj 951 122 s \$0-curveload;
#X obj 951 163 s \$0-depthload;
#X msg 951 101 1;
#X msg 951 58 4;
#X msg 951 143 0.6;
#X obj 946 331 jh.leap_distance;
#X obj 19 11 declare -path utilities;
#X obj 168 11 jh.leap_check;
#X floatatom 946 464 5 0 0 0 - - -;
#X floatatom 992 353 5 0 0 0 - - -;
#X floatatom 946 531 5 0 0 0 - - -;
#X obj 946 553 s \$0-freqload;
#X floatatom 992 421 5 0 0 0 - - -;
#X obj 992 375 moses 250;
#X obj 992 443 s \$0-depthload;
#X obj 992 398 / 250;
#X obj 946 509 expr (($f1 - 100) / -12) + 25;
#X floatatom 889 654 5 0 0 0 - - -;
#X floatatom 1036 653 5 0 0 0 - - -;
#X obj 889 629 jh.leap_hand_rotate 0;
#X obj 1036 630 jh.leap_hand_rotate 1;
#X obj 888 721 expr ($f1 + $f2) / 2;
#X floatatom 888 744 5 0 0 0 - - -;
#X obj 1035 674 moses 0;
#X obj 1035 695 * -1;
#X obj 889 675 moses 0;
#X obj 889 696 * -1;
#X floatatom 888 812 5 0 0 0 - - -;
#X obj 888 787 expr ($f1 / -20) + 6;
#X obj 887 835 s \$0-curveload;
#X obj 722 208 expr~ ($v1 + 1) / 2;
#X obj 707 503 *~;
#X obj 722 53 osc~ 0.5;
#X obj 722 31 r \$0-freq;
#X obj 722 163 *~;
#X obj 737 142 vline~;
#X msg 737 121 \$1 20;
#X obj 737 101 r \$0-curve;
#X obj 737 234 r \$0-depth;
#X floatatom 737 258 5 0 0 0 - - -;
#X obj 782 256 expr ($f1 * -1) + 1;
#X floatatom 782 279 5 0 0 0 - - -;
#X obj 722 346 +~;
#X obj 722 323 *~;
#X obj 782 321 vline~;
#X msg 782 299 \$1 20;
#X msg 737 279 \$1 20;
#X obj 737 301 vline~;
#X obj 722 367 *~ 0.9;
#X obj 707 530 outlet~;
#X obj 722 184 clip~ -1 1;
#X obj 707 9 r~ \$0-inletR;
#X obj 499 14 r~ \$0-inletL;
#X obj 185 47 inlet~;
#X obj 185 68 s~ \$0-inletR;
#X obj 105 68 s~ \$0-inletL;
#X obj 722 77 *~ -1;
#X obj 102 102 cnv 15 250 130 empty empty Reverb 20 12 0 14 -125751
-66577 0;
#X obj 106 106 cnv 15 242 122 empty empty Tremolo 3 10 0 16 -241536
-66577 0;
#X obj 112 143 hsl 100 15 0.1 25 0 0 \$0-freq \$0-freqload Frequency:
-2 -8 0 10 -122174 -1 -1 1551 1;
#X floatatom 219 143 5 0 0 0 - #0-freq -;
#X obj 112 175 hsl 100 15 0 1 0 0 \$0-depth \$0-depthload Depth: -2
-8 0 10 -122174 -1 -1 5940 1;
#X floatatom 219 175 5 0 0 0 - #0-depth -;
#X obj 112 207 hsl 100 15 1 5 0 0 \$0-curve \$0-curveload Smoothness:
-2 -8 0 10 -122174 -1 -1 0 1;
#X floatatom 219 207 5 0 0 0 - #0-curve -;
#X obj 330 110 tgl 10 0 \$0-leaponoff \$0-leapload Leap_on/off: -72
5 0 10 -3390 -1 -1 1 1;
#X obj 257 142 jh.leap_loop;
#X msg 951 185 1;
#X obj 951 206 s \$0-leapload;
#X obj 286 127 tgl 10 0 \$0-rec \$0-recoff empty -29 -8 0 10 -64830
-1 -1 0 1;
#X obj 330 127 tgl 10 0 \$0-loop \$0-loopoff empty -30 5 0 10 -64830
-1 -1 0 1;
#X obj 362 119 r \$0-freq;
#X obj 364 141 s \$0-freqload;
#X obj 366 164 r \$0-depth;
#X obj 365 186 s \$0-depthload;
#X obj 365 211 r \$0-curve;
#X obj 366 238 s \$0-curveload;
#X obj 888 765 clip 20 100;
#X obj 946 486 clip 100 400;
#X obj 257 174 jh.leap_loop;
#X obj 257 205 jh.leap_loop;
#X connect 0 0 79 0;
#X connect 1 0 14 0;
#X connect 2 0 20 0;
#X connect 3 0 5 0;
#X connect 4 0 3 0;
#X connect 5 0 22 0;
#X connect 6 0 5 1;
#X connect 7 0 6 0;
#X connect 8 0 7 0;
#X connect 9 0 10 0;
#X connect 9 0 11 0;
#X connect 10 0 17 0;
#X connect 11 0 12 0;
#X connect 12 0 16 0;
#X connect 13 0 19 0;
#X connect 14 0 13 0;
#X connect 15 0 13 1;
#X connect 16 0 15 0;
#X connect 17 0 18 0;
#X connect 18 0 14 1;
#X connect 19 0 2 1;
#X connect 21 0 27 0;
#X connect 21 0 26 0;
#X connect 21 0 28 0;
#X connect 21 0 91 0;
#X connect 22 0 1 0;
#X connect 26 0 24 0;
#X connect 27 0 23 0;
#X connect 28 0 25 0;
#X connect 29 0 32 0;
#X connect 29 1 33 0;
#X connect 32 0 102 0;
#X connect 33 0 37 0;
#X connect 34 0 35 0;
#X connect 36 0 38 0;
#X connect 37 0 39 0;
#X connect 39 0 36 0;
#X connect 40 0 34 0;
#X connect 41 0 49 0;
#X connect 42 0 47 0;
#X connect 43 0 41 0;
#X connect 44 0 42 0;
#X connect 45 0 46 0;
#X connect 46 0 101 0;
#X connect 47 0 48 0;
#X connect 47 1 45 1;
#X connect 48 0 45 1;
#X connect 49 0 50 0;
#X connect 49 1 45 0;
#X connect 50 0 45 0;
#X connect 51 0 53 0;
#X connect 52 0 51 0;
#X connect 54 0 67 0;
#X connect 55 0 73 0;
#X connect 56 0 80 0;
#X connect 57 0 56 0;
#X connect 58 0 74 0;
#X connect 59 0 58 1;
#X connect 60 0 59 0;
#X connect 61 0 60 0;
#X connect 62 0 63 0;
#X connect 62 0 64 0;
#X connect 63 0 70 0;
#X connect 64 0 65 0;
#X connect 65 0 69 0;
#X connect 66 0 72 0;
#X connect 67 0 66 0;
#X connect 68 0 66 1;
#X connect 69 0 68 0;
#X connect 70 0 71 0;
#X connect 71 0 67 1;
#X connect 72 0 55 1;
#X connect 74 0 54 0;
#X connect 75 0 55 0;
#X connect 76 0 2 0;
#X connect 77 0 78 0;
#X connect 80 0 58 0;
#X connect 90 0 96 0;
#X connect 91 0 92 0;
#X connect 93 0 90 1;
#X connect 93 0 103 1;
#X connect 93 0 104 1;
#X connect 94 0 90 2;
#X connect 94 0 103 2;
#X connect 94 0 104 2;
#X connect 95 0 90 0;
#X connect 97 0 103 0;
#X connect 99 0 104 0;
#X connect 101 0 52 0;
#X connect 102 0 40 0;
#X connect 103 0 98 0;
#X connect 104 0 100 0;
#X coords 0 -1 1 1 254 134 1 100 100;
