#N canvas 176 59 795 625 10;
#X declare -path utilities;
#X obj 281 93 freeverb~;
#X obj 9 1 declare -path utilities;
#X obj 158 1 jh.leap_check;
#X obj 374 153 jh.leap_distance;
#X obj 282 152 jh.leap_fists;
#X obj 332 47 inlet~;
#X obj 281 47 inlet~;
#X obj 281 116 outlet~;
#X obj 332 116 outlet~;
#X msg 374 225 roomsize \$1;
#X floatatom 374 178 5 0 0 0 - - -;
#X obj 374 201 / 600;
#X msg 282 225 freeze \$1;
#X msg 282 179 1;
#X msg 333 179 0;
#X obj 282 204 tgl 15 0 empty empty empty 17 7 0 10 -262144 -1 -1 1
1;
#X obj 283 282 jh.leap_hand 0;
#X obj 442 282 jh.leap_hand 1;
#X floatatom 323 304 5 0 0 0 - - -;
#X floatatom 482 306 5 0 0 0 - - -;
#X floatatom 362 439 5 0 0 0 - - -;
#X floatatom 479 441 5 0 0 0 - - -;
#X obj 323 353 moses 300;
#X msg 479 463 dry \$1;
#X msg 362 459 wet \$1;
#X obj 323 375 moses 0;
#X obj 362 480 s param_\$1;
#X obj 281 68 r param_\$1;
#X obj 479 485 s param_\$1;
#X obj 282 250 s param_\$1;
#X obj 374 249 s param_\$1;
#X obj 323 329 expr (($f1 + $f2) / 2 - 40);
#X obj 362 401 expr $f1 / 300 \; ($f1 / 300) * -1 + 1;
#X floatatom 543 307 5 0 0 0 - - -;
#X floatatom 756 308 5 0 0 0 - - -;
#X obj 543 355 moses 1;
#X obj 543 377 moses 0;
#X msg 582 399 damping \$1;
#X obj 582 421 s param_\$1;
#X obj 543 328 expr ((($f1 + $f2) / 2 + 200) / 400);
#X obj 42 71 cnv 15 192 120 empty empty Reverb 20 12 0 14 -125751 -66577
0;
#X obj 46 75 cnv 15 184 112 empty empty Reverb 3 10 0 16 -241536 -66577
0;
#X obj 211 79 tgl 15 0 empty empty On/Off: -45 7 0 10 -150846 -1 -1
0 1;
#X connect 0 0 7 0;
#X connect 0 1 8 0;
#X connect 3 0 10 0;
#X connect 4 0 13 0;
#X connect 4 1 14 0;
#X connect 4 2 13 0;
#X connect 4 3 14 0;
#X connect 5 0 0 1;
#X connect 6 0 0 0;
#X connect 9 0 30 0;
#X connect 10 0 11 0;
#X connect 11 0 9 0;
#X connect 12 0 29 0;
#X connect 13 0 15 0;
#X connect 14 0 15 0;
#X connect 15 0 12 0;
#X connect 16 1 18 0;
#X connect 16 2 33 0;
#X connect 17 1 19 0;
#X connect 17 2 34 0;
#X connect 18 0 31 0;
#X connect 19 0 31 1;
#X connect 20 0 24 0;
#X connect 21 0 23 0;
#X connect 22 0 25 0;
#X connect 23 0 28 0;
#X connect 24 0 26 0;
#X connect 25 1 32 0;
#X connect 27 0 0 0;
#X connect 31 0 22 0;
#X connect 32 0 20 0;
#X connect 32 1 21 0;
#X connect 33 0 39 0;
#X connect 34 0 39 1;
#X connect 35 0 36 0;
#X connect 36 1 37 0;
#X connect 37 0 38 0;
#X connect 39 0 35 0;
