#N canvas 96 22 1150 750 10;
#X declare -path utilities;
#X obj 696 -40 declare -path utilities;
#X obj 102 152 cnv 15 428 340 empty empty Reverb 20 12 0 14 -125751
-66577 0;
#X obj 106 156 cnv 15 420 332 empty empty Surround_Panner 3 10 0 16
-241536 -66577 0;
#X obj 114 179 grid grid1 300 0 299 300 0 299 1 1 1 10 10 294 484;
#X obj 114 -64 jh.leap_hand 0;
#X floatatom 114 64 5 0 0 0 - - -;
#X floatatom 351 67 5 0 0 0 - - -;
#X obj 114 88 pack f f;
#X msg 351 88 bang;
#X floatatom 407 501 5 0 0 0 - - -;
#X floatatom 114 501 5 0 0 0 - - -;
#X msg 114 110 values \$1 \$2;
#X msg 415 125 color 140 180 250;
#X obj 938 -39 loadbang;
#X obj 696 -19 jh.leap_check;
#X obj 114 525 s \$0-panposx;
#X obj 407 523 s \$0-panposy;
#X obj 388 553 inlet~;
#X obj 704 638 outlet~;
#X obj 704 615 *~;
#N canvas 902 88 485 558 speaker1 0;
#X obj 62 145 *;
#X obj 115 75 r \$0-panposx;
#X obj 242 74 r \$0-panposy;
#X obj 197 143 *;
#X obj 197 166 t b;
#X floatatom 62 166 5 0 0 0 - - -;
#X obj 62 190 +;
#X obj 62 212 sqrt;
#X floatatom 63 236 5 0 0 0 - - -;
#X floatatom 62 97 5 0 0 0 - - -;
#X floatatom 197 96 5 0 0 0 - - -;
#X obj 115 96 t b;
#X obj 242 95 t b;
#X obj 62 119 -;
#X obj 197 116 -;
#X obj 63 258 / 300;
#X obj 63 283 * -1;
#X obj 63 305 + 0.5;
#X floatatom 102 350 5 0 0 0 - - -;
#X obj 63 328 moses 0;
#X obj 102 372 * 2;
#X floatatom 102 396 5 0 0 0 - - -;
#X obj 102 440 vline~;
#X msg 102 418 \$1 50;
#X obj 102 462 outlet~;
#X obj 62 54 r \$0-speaker1x;
#X obj 197 53 r \$0-speaker1y;
#X connect 0 0 5 0;
#X connect 1 0 11 0;
#X connect 1 0 13 1;
#X connect 2 0 12 0;
#X connect 2 0 14 1;
#X connect 3 0 4 0;
#X connect 3 0 6 1;
#X connect 4 0 5 0;
#X connect 5 0 6 0;
#X connect 6 0 7 0;
#X connect 7 0 8 0;
#X connect 8 0 15 0;
#X connect 9 0 13 0;
#X connect 10 0 14 0;
#X connect 11 0 9 0;
#X connect 12 0 10 0;
#X connect 13 0 0 0;
#X connect 13 0 0 1;
#X connect 14 0 3 0;
#X connect 14 0 3 1;
#X connect 15 0 16 0;
#X connect 16 0 17 0;
#X connect 17 0 19 0;
#X connect 18 0 20 0;
#X connect 19 1 18 0;
#X connect 20 0 21 0;
#X connect 21 0 23 0;
#X connect 22 0 24 0;
#X connect 23 0 22 0;
#X connect 25 0 9 0;
#X connect 26 0 10 0;
#X restore 75 593 pd speaker1;
#N canvas 397 73 796 693 speaker2 0;
#X obj 52 135 *;
#X obj 105 65 r \$0-panposx;
#X obj 232 64 r \$0-panposy;
#X obj 187 133 *;
#X obj 187 156 t b;
#X floatatom 52 156 5 0 0 0 - - -;
#X obj 52 180 +;
#X obj 52 202 sqrt;
#X floatatom 53 226 5 0 0 0 - - -;
#X floatatom 52 87 5 0 0 0 - - -;
#X floatatom 187 86 5 0 0 0 - - -;
#X obj 105 86 t b;
#X obj 232 85 t b;
#X obj 52 109 -;
#X obj 187 106 -;
#X obj 52 44 r \$0-speaker2x;
#X obj 187 43 r \$0-speaker2y;
#X obj 53 248 / 300;
#X obj 53 273 * -1;
#X obj 53 295 + 0.5;
#X floatatom 92 340 5 0 0 0 - - -;
#X obj 53 318 moses 0;
#X obj 92 362 * 2;
#X floatatom 92 386 5 0 0 0 - - -;
#X obj 92 430 vline~;
#X msg 92 408 \$1 50;
#X obj 92 452 outlet~;
#X connect 0 0 5 0;
#X connect 1 0 11 0;
#X connect 1 0 13 1;
#X connect 2 0 12 0;
#X connect 2 0 14 1;
#X connect 3 0 4 0;
#X connect 3 0 6 1;
#X connect 4 0 5 0;
#X connect 5 0 6 0;
#X connect 6 0 7 0;
#X connect 7 0 8 0;
#X connect 8 0 17 0;
#X connect 9 0 13 0;
#X connect 10 0 14 0;
#X connect 11 0 9 0;
#X connect 12 0 10 0;
#X connect 13 0 0 0;
#X connect 13 0 0 1;
#X connect 14 0 3 0;
#X connect 14 0 3 1;
#X connect 15 0 9 0;
#X connect 16 0 10 0;
#X connect 17 0 18 0;
#X connect 18 0 19 0;
#X connect 19 0 21 0;
#X connect 20 0 22 0;
#X connect 21 1 20 0;
#X connect 22 0 23 0;
#X connect 23 0 25 0;
#X connect 24 0 26 0;
#X connect 25 0 24 0;
#X restore 169 593 pd speaker2;
#N canvas 541 91 450 300 speaker3 0;
#X obj 72 155 *;
#X obj 125 85 r \$0-panposx;
#X obj 252 84 r \$0-panposy;
#X obj 207 153 *;
#X obj 207 176 t b;
#X floatatom 72 176 5 0 0 0 - - -;
#X obj 72 200 +;
#X obj 72 222 sqrt;
#X floatatom 73 246 5 0 0 0 - - -;
#X floatatom 72 107 5 0 0 0 - - -;
#X floatatom 207 106 5 0 0 0 - - -;
#X obj 125 106 t b;
#X obj 252 105 t b;
#X obj 72 129 -;
#X obj 207 126 -;
#X obj 73 268 / 300;
#X obj 73 293 * -1;
#X obj 73 315 + 0.5;
#X floatatom 112 360 5 0 0 0 - - -;
#X obj 73 338 moses 0;
#X obj 112 382 * 2;
#X floatatom 112 406 5 0 0 0 - - -;
#X obj 112 450 vline~;
#X msg 112 428 \$1 50;
#X obj 112 472 outlet~;
#X obj 72 64 r \$0-speaker3x;
#X obj 207 63 r \$0-speaker3y;
#X connect 0 0 5 0;
#X connect 1 0 11 0;
#X connect 1 0 13 1;
#X connect 2 0 12 0;
#X connect 2 0 14 1;
#X connect 3 0 4 0;
#X connect 3 0 6 1;
#X connect 4 0 5 0;
#X connect 5 0 6 0;
#X connect 6 0 7 0;
#X connect 7 0 8 0;
#X connect 8 0 15 0;
#X connect 9 0 13 0;
#X connect 10 0 14 0;
#X connect 11 0 9 0;
#X connect 12 0 10 0;
#X connect 13 0 0 0;
#X connect 13 0 0 1;
#X connect 14 0 3 0;
#X connect 14 0 3 1;
#X connect 15 0 16 0;
#X connect 16 0 17 0;
#X connect 17 0 19 0;
#X connect 18 0 20 0;
#X connect 19 1 18 0;
#X connect 20 0 21 0;
#X connect 21 0 23 0;
#X connect 22 0 24 0;
#X connect 23 0 22 0;
#X connect 25 0 9 0;
#X connect 26 0 10 0;
#X restore 261 593 pd speaker3;
#N canvas 334 126 450 300 speaker4 0;
#X obj 82 165 *;
#X obj 135 95 r \$0-panposx;
#X obj 262 94 r \$0-panposy;
#X obj 217 163 *;
#X obj 217 186 t b;
#X floatatom 82 186 5 0 0 0 - - -;
#X obj 82 210 +;
#X obj 82 232 sqrt;
#X floatatom 83 256 5 0 0 0 - - -;
#X floatatom 82 117 5 0 0 0 - - -;
#X floatatom 217 116 5 0 0 0 - - -;
#X obj 135 116 t b;
#X obj 262 115 t b;
#X obj 82 139 -;
#X obj 217 136 -;
#X obj 83 278 / 300;
#X obj 83 303 * -1;
#X obj 83 325 + 0.5;
#X floatatom 122 370 5 0 0 0 - - -;
#X obj 83 348 moses 0;
#X obj 122 392 * 2;
#X floatatom 122 416 5 0 0 0 - - -;
#X obj 122 460 vline~;
#X msg 122 438 \$1 50;
#X obj 122 482 outlet~;
#X obj 82 74 r \$0-speaker4x;
#X obj 217 73 r \$0-speaker4y;
#X connect 0 0 5 0;
#X connect 1 0 11 0;
#X connect 1 0 13 1;
#X connect 2 0 12 0;
#X connect 2 0 14 1;
#X connect 3 0 4 0;
#X connect 3 0 6 1;
#X connect 4 0 5 0;
#X connect 5 0 6 0;
#X connect 6 0 7 0;
#X connect 7 0 8 0;
#X connect 8 0 15 0;
#X connect 9 0 13 0;
#X connect 10 0 14 0;
#X connect 11 0 9 0;
#X connect 12 0 10 0;
#X connect 13 0 0 0;
#X connect 13 0 0 1;
#X connect 14 0 3 0;
#X connect 14 0 3 1;
#X connect 15 0 16 0;
#X connect 16 0 17 0;
#X connect 17 0 19 0;
#X connect 18 0 20 0;
#X connect 19 1 18 0;
#X connect 20 0 21 0;
#X connect 21 0 23 0;
#X connect 22 0 24 0;
#X connect 23 0 22 0;
#X connect 25 0 9 0;
#X connect 26 0 10 0;
#X restore 355 593 pd speaker4;
#N canvas 565 355 450 300 speaker5 0;
#X obj 102 185 *;
#X obj 155 115 r \$0-panposx;
#X obj 282 114 r \$0-panposy;
#X obj 237 183 *;
#X obj 237 206 t b;
#X floatatom 102 206 5 0 0 0 - - -;
#X obj 102 230 +;
#X obj 102 252 sqrt;
#X floatatom 103 276 5 0 0 0 - - -;
#X floatatom 102 137 5 0 0 0 - - -;
#X floatatom 237 136 5 0 0 0 - - -;
#X obj 155 136 t b;
#X obj 282 135 t b;
#X obj 102 159 -;
#X obj 237 156 -;
#X obj 103 298 / 300;
#X obj 103 323 * -1;
#X obj 103 345 + 0.5;
#X floatatom 142 390 5 0 0 0 - - -;
#X obj 103 368 moses 0;
#X obj 142 412 * 2;
#X floatatom 142 436 5 0 0 0 - - -;
#X obj 142 480 vline~;
#X msg 142 458 \$1 50;
#X obj 142 502 outlet~;
#X obj 102 94 r \$0-speaker5x;
#X obj 237 93 r \$0-speaker5y;
#X connect 0 0 5 0;
#X connect 1 0 11 0;
#X connect 1 0 13 1;
#X connect 2 0 12 0;
#X connect 2 0 14 1;
#X connect 3 0 4 0;
#X connect 3 0 6 1;
#X connect 4 0 5 0;
#X connect 5 0 6 0;
#X connect 6 0 7 0;
#X connect 7 0 8 0;
#X connect 8 0 15 0;
#X connect 9 0 13 0;
#X connect 10 0 14 0;
#X connect 11 0 9 0;
#X connect 12 0 10 0;
#X connect 13 0 0 0;
#X connect 13 0 0 1;
#X connect 14 0 3 0;
#X connect 14 0 3 1;
#X connect 15 0 16 0;
#X connect 16 0 17 0;
#X connect 17 0 19 0;
#X connect 18 0 20 0;
#X connect 19 1 18 0;
#X connect 20 0 21 0;
#X connect 21 0 23 0;
#X connect 22 0 24 0;
#X connect 23 0 22 0;
#X connect 25 0 9 0;
#X connect 26 0 10 0;
#X restore 447 592 pd speaker5;
#N canvas 461 144 450 300 speaker6 0;
#X obj 112 195 *;
#X obj 165 125 r \$0-panposx;
#X obj 292 124 r \$0-panposy;
#X obj 247 193 *;
#X obj 247 216 t b;
#X floatatom 112 216 5 0 0 0 - - -;
#X obj 112 240 +;
#X obj 112 262 sqrt;
#X floatatom 113 286 5 0 0 0 - - -;
#X floatatom 112 147 5 0 0 0 - - -;
#X floatatom 247 146 5 0 0 0 - - -;
#X obj 165 146 t b;
#X obj 292 145 t b;
#X obj 112 169 -;
#X obj 247 166 -;
#X obj 113 308 / 300;
#X obj 113 333 * -1;
#X obj 113 355 + 0.5;
#X floatatom 152 400 5 0 0 0 - - -;
#X obj 113 378 moses 0;
#X obj 152 422 * 2;
#X floatatom 152 446 5 0 0 0 - - -;
#X obj 152 490 vline~;
#X msg 152 468 \$1 50;
#X obj 152 512 outlet~;
#X obj 112 104 r \$0-speaker6x;
#X obj 247 103 r \$0-speaker6y;
#X connect 0 0 5 0;
#X connect 1 0 11 0;
#X connect 1 0 13 1;
#X connect 2 0 12 0;
#X connect 2 0 14 1;
#X connect 3 0 4 0;
#X connect 3 0 6 1;
#X connect 4 0 5 0;
#X connect 5 0 6 0;
#X connect 6 0 7 0;
#X connect 7 0 8 0;
#X connect 8 0 15 0;
#X connect 9 0 13 0;
#X connect 10 0 14 0;
#X connect 11 0 9 0;
#X connect 12 0 10 0;
#X connect 13 0 0 0;
#X connect 13 0 0 1;
#X connect 14 0 3 0;
#X connect 14 0 3 1;
#X connect 15 0 16 0;
#X connect 16 0 17 0;
#X connect 17 0 19 0;
#X connect 18 0 20 0;
#X connect 19 1 18 0;
#X connect 20 0 21 0;
#X connect 21 0 23 0;
#X connect 22 0 24 0;
#X connect 23 0 22 0;
#X connect 25 0 9 0;
#X connect 26 0 10 0;
#X restore 539 592 pd speaker6;
#N canvas 794 96 450 300 speaker7 0;
#X obj 122 205 *;
#X obj 175 135 r \$0-panposx;
#X obj 302 134 r \$0-panposy;
#X obj 257 203 *;
#X obj 257 226 t b;
#X floatatom 122 226 5 0 0 0 - - -;
#X obj 122 250 +;
#X obj 122 272 sqrt;
#X floatatom 123 296 5 0 0 0 - - -;
#X floatatom 122 157 5 0 0 0 - - -;
#X floatatom 257 156 5 0 0 0 - - -;
#X obj 175 156 t b;
#X obj 302 155 t b;
#X obj 122 179 -;
#X obj 257 176 -;
#X obj 123 318 / 300;
#X obj 123 343 * -1;
#X obj 123 365 + 0.5;
#X floatatom 162 410 5 0 0 0 - - -;
#X obj 123 388 moses 0;
#X obj 162 432 * 2;
#X floatatom 162 456 5 0 0 0 - - -;
#X obj 162 500 vline~;
#X msg 162 478 \$1 50;
#X obj 162 522 outlet~;
#X obj 122 115 r \$0-speaker7x;
#X obj 257 113 r \$0-speaker7y;
#X connect 0 0 5 0;
#X connect 1 0 11 0;
#X connect 1 0 13 1;
#X connect 2 0 12 0;
#X connect 2 0 14 1;
#X connect 3 0 4 0;
#X connect 3 0 6 1;
#X connect 4 0 5 0;
#X connect 5 0 6 0;
#X connect 6 0 7 0;
#X connect 7 0 8 0;
#X connect 8 0 15 0;
#X connect 9 0 13 0;
#X connect 10 0 14 0;
#X connect 11 0 9 0;
#X connect 12 0 10 0;
#X connect 13 0 0 0;
#X connect 13 0 0 1;
#X connect 14 0 3 0;
#X connect 14 0 3 1;
#X connect 15 0 16 0;
#X connect 16 0 17 0;
#X connect 17 0 19 0;
#X connect 18 0 20 0;
#X connect 19 1 18 0;
#X connect 20 0 21 0;
#X connect 21 0 23 0;
#X connect 22 0 24 0;
#X connect 23 0 22 0;
#X connect 25 0 9 0;
#X connect 26 0 10 0;
#X restore 629 592 pd speaker7;
#N canvas 362 66 450 300 speaker8 0;
#X obj 132 215 *;
#X obj 185 145 r \$0-panposx;
#X obj 312 144 r \$0-panposy;
#X obj 267 213 *;
#X obj 267 236 t b;
#X floatatom 132 236 5 0 0 0 - - -;
#X obj 132 260 +;
#X obj 132 282 sqrt;
#X floatatom 133 306 5 0 0 0 - - -;
#X floatatom 132 167 5 0 0 0 - - -;
#X floatatom 267 166 5 0 0 0 - - -;
#X obj 185 166 t b;
#X obj 312 165 t b;
#X obj 132 189 -;
#X obj 267 186 -;
#X obj 133 328 / 300;
#X obj 133 353 * -1;
#X obj 133 375 + 0.5;
#X floatatom 172 420 5 0 0 0 - - -;
#X obj 133 398 moses 0;
#X obj 172 442 * 2;
#X floatatom 172 466 5 0 0 0 - - -;
#X obj 172 510 vline~;
#X msg 172 488 \$1 50;
#X obj 172 532 outlet~;
#X obj 132 124 r \$0-speaker8x;
#X obj 268 123 r \$0-speaker8y;
#X connect 0 0 5 0;
#X connect 1 0 11 0;
#X connect 1 0 13 1;
#X connect 2 0 12 0;
#X connect 2 0 14 1;
#X connect 3 0 4 0;
#X connect 3 0 6 1;
#X connect 4 0 5 0;
#X connect 5 0 6 0;
#X connect 6 0 7 0;
#X connect 7 0 8 0;
#X connect 8 0 15 0;
#X connect 9 0 13 0;
#X connect 10 0 14 0;
#X connect 11 0 9 0;
#X connect 12 0 10 0;
#X connect 13 0 0 0;
#X connect 13 0 0 1;
#X connect 14 0 3 0;
#X connect 14 0 3 1;
#X connect 15 0 16 0;
#X connect 16 0 17 0;
#X connect 17 0 19 0;
#X connect 18 0 20 0;
#X connect 19 1 18 0;
#X connect 20 0 21 0;
#X connect 21 0 23 0;
#X connect 22 0 24 0;
#X connect 23 0 22 0;
#X connect 25 0 9 0;
#X connect 26 0 10 0;
#X restore 719 592 pd speaker8;
#X obj 60 639 outlet~;
#X obj 60 616 *~;
#X obj 154 639 outlet~;
#X obj 154 616 *~;
#X obj 246 639 outlet~;
#X obj 246 616 *~;
#X obj 340 639 outlet~;
#X obj 340 616 *~;
#X obj 432 639 outlet~;
#X obj 432 616 *~;
#X obj 524 638 outlet~;
#X obj 524 615 *~;
#X obj 614 638 outlet~;
#X obj 614 615 *~;
#X obj 450 470 cnv 15 15 15 empty \$0-speaker1pos 1 4 7 0 14 -33289
-262144 0;
#X obj 450 470 cnv 15 15 15 empty \$0-speaker2pos 2 4 7 0 14 -33289
-262144 0;
#X obj 450 470 cnv 15 15 15 empty \$0-speaker3pos 3 4 7 0 14 -33289
-262144 0;
#X obj 450 470 cnv 15 15 15 empty \$0-speaker4pos 4 4 7 0 14 -33289
-262144 0;
#X obj 450 470 cnv 15 15 15 empty \$0-speaker5pos 5 4 7 0 14 -33289
-262144 0;
#X obj 450 470 cnv 15 15 15 empty \$0-speaker6pos 6 4 7 0 14 -33289
-262144 0;
#X obj 450 470 cnv 15 15 15 empty \$0-speaker7pos 7 4 7 0 14 -33289
-262144 0;
#X obj 450 470 cnv 15 15 15 empty \$0-speaker8pos 8 4 7 0 14 -33289
-262144 0;
#X obj 421 179 bng 15 250 50 0 \$0-8channel \$0-set8channel 8_channel
19 7 0 10 -64830 -1 -1;
#X obj 421 199 bng 15 250 50 0 \$0-5channel empty 5_channel 19 7 0
10 -3390 -1 -1;
#N canvas 572 74 443 569 8channel 0;
#X floatatom 6 63 5 0 0 0 - - -;
#X floatatom 7 134 5 0 0 0 - - -;
#X obj 6 84 s \$0-speaker1x;
#X obj 7 155 s \$0-speaker1y;
#X floatatom 104 62 5 0 0 0 - - -;
#X floatatom 106 134 5 0 0 0 - - -;
#X obj 104 83 s \$0-speaker2x;
#X obj 106 155 s \$0-speaker2y;
#X floatatom 201 61 5 0 0 0 - - -;
#X floatatom 202 132 5 0 0 0 - - -;
#X floatatom 299 60 5 0 0 0 - - -;
#X floatatom 301 132 5 0 0 0 - - -;
#X obj 201 82 s \$0-speaker3x;
#X obj 202 153 s \$0-speaker3y;
#X obj 299 81 s \$0-speaker4x;
#X obj 301 153 s \$0-speaker4y;
#X floatatom 10 234 5 0 0 0 - - -;
#X floatatom 11 305 5 0 0 0 - - -;
#X floatatom 108 233 5 0 0 0 - - -;
#X floatatom 110 305 5 0 0 0 - - -;
#X floatatom 205 232 5 0 0 0 - - -;
#X floatatom 206 303 5 0 0 0 - - -;
#X floatatom 303 231 5 0 0 0 - - -;
#X floatatom 305 303 5 0 0 0 - - -;
#X obj 10 255 s \$0-speaker5x;
#X obj 11 326 s \$0-speaker5y;
#X obj 108 254 s \$0-speaker6x;
#X obj 109 326 s \$0-speaker6y;
#X obj 205 253 s \$0-speaker7x;
#X obj 206 324 s \$0-speaker7y;
#X obj 303 252 s \$0-speaker8x;
#X obj 305 324 s \$0-speaker8y;
#X obj -2 419 s \$0-speaker1pos;
#X obj 102 419 s \$0-speaker2pos;
#X obj 208 420 s \$0-speaker3pos;
#X obj 313 420 s \$0-speaker4pos;
#X obj -1 471 s \$0-speaker5pos;
#X obj 104 471 s \$0-speaker6pos;
#X obj 210 472 s \$0-speaker7pos;
#X obj 315 472 s \$0-speaker8pos;
#X msg 101 392 pos 309 232;
#X msg 208 391 pos 159 292;
#X msg 313 392 pos 354 292;
#X msg -1 445 pos 159 352;
#X msg 104 446 pos 354 352;
#X msg 210 446 pos 204 412;
#X msg 313 448 pos 309 412;
#X msg 6 41 96;
#X msg 205 209 96;
#X msg 6 109 240;
#X msg 105 110 240;
#X msg 104 38 200;
#X msg 303 207 200;
#X msg 205 280 60;
#X msg 305 279 60;
#X msg 202 110 180;
#X msg 301 108 180;
#X msg 10 280 120;
#X msg 109 281 120;
#X msg 201 38 50;
#X msg 11 211 50;
#X msg 299 39 245;
#X msg 108 208 245;
#X obj 6 11 r \$0-8channel;
#X obj 11 186 r \$0-8channel;
#X obj -1 355 r \$0-8channel;
#X msg -2 393 pos 204 232;
#X connect 0 0 2 0;
#X connect 1 0 3 0;
#X connect 4 0 6 0;
#X connect 5 0 7 0;
#X connect 8 0 12 0;
#X connect 9 0 13 0;
#X connect 10 0 14 0;
#X connect 11 0 15 0;
#X connect 16 0 24 0;
#X connect 17 0 25 0;
#X connect 18 0 26 0;
#X connect 19 0 27 0;
#X connect 20 0 28 0;
#X connect 21 0 29 0;
#X connect 22 0 30 0;
#X connect 23 0 31 0;
#X connect 40 0 33 0;
#X connect 41 0 34 0;
#X connect 42 0 35 0;
#X connect 43 0 36 0;
#X connect 44 0 37 0;
#X connect 45 0 38 0;
#X connect 46 0 39 0;
#X connect 47 0 0 0;
#X connect 48 0 20 0;
#X connect 49 0 1 0;
#X connect 50 0 5 0;
#X connect 51 0 4 0;
#X connect 52 0 22 0;
#X connect 53 0 21 0;
#X connect 54 0 23 0;
#X connect 55 0 9 0;
#X connect 56 0 11 0;
#X connect 57 0 17 0;
#X connect 58 0 19 0;
#X connect 59 0 8 0;
#X connect 60 0 16 0;
#X connect 61 0 10 0;
#X connect 62 0 18 0;
#X connect 63 0 47 0;
#X connect 63 0 51 0;
#X connect 63 0 59 0;
#X connect 63 0 61 0;
#X connect 63 0 49 0;
#X connect 63 0 50 0;
#X connect 63 0 55 0;
#X connect 63 0 56 0;
#X connect 64 0 60 0;
#X connect 64 0 62 0;
#X connect 64 0 48 0;
#X connect 64 0 52 0;
#X connect 64 0 57 0;
#X connect 64 0 58 0;
#X connect 64 0 53 0;
#X connect 64 0 54 0;
#X connect 65 0 66 0;
#X connect 65 0 43 0;
#X connect 65 0 44 0;
#X connect 65 0 40 0;
#X connect 65 0 45 0;
#X connect 65 0 41 0;
#X connect 65 0 46 0;
#X connect 65 0 42 0;
#X connect 66 0 32 0;
#X restore 538 150 pd 8channel;
#N canvas 868 55 462 622 5channel 0;
#X floatatom 26 83 5 0 0 0 - - -;
#X floatatom 27 154 5 0 0 0 - - -;
#X obj 26 104 s \$0-speaker1x;
#X obj 27 175 s \$0-speaker1y;
#X floatatom 124 82 5 0 0 0 - - -;
#X floatatom 126 154 5 0 0 0 - - -;
#X obj 124 103 s \$0-speaker2x;
#X obj 126 175 s \$0-speaker2y;
#X floatatom 221 81 5 0 0 0 - - -;
#X floatatom 222 152 5 0 0 0 - - -;
#X floatatom 319 80 5 0 0 0 - - -;
#X floatatom 321 152 5 0 0 0 - - -;
#X obj 221 102 s \$0-speaker3x;
#X obj 222 173 s \$0-speaker3y;
#X obj 319 101 s \$0-speaker4x;
#X obj 321 173 s \$0-speaker4y;
#X floatatom 30 254 5 0 0 0 - - -;
#X floatatom 31 325 5 0 0 0 - - -;
#X floatatom 128 253 5 0 0 0 - - -;
#X floatatom 130 325 5 0 0 0 - - -;
#X floatatom 225 252 5 0 0 0 - - -;
#X floatatom 226 323 5 0 0 0 - - -;
#X floatatom 323 251 5 0 0 0 - - -;
#X floatatom 325 323 5 0 0 0 - - -;
#X obj 30 275 s \$0-speaker5x;
#X obj 31 346 s \$0-speaker5y;
#X obj 128 274 s \$0-speaker6x;
#X obj 129 346 s \$0-speaker6y;
#X obj 225 273 s \$0-speaker7x;
#X obj 226 344 s \$0-speaker7y;
#X obj 323 272 s \$0-speaker8x;
#X obj 325 344 s \$0-speaker8y;
#X obj 19 483 s \$0-speaker1pos;
#X obj 123 483 s \$0-speaker2pos;
#X obj 229 484 s \$0-speaker3pos;
#X obj 334 484 s \$0-speaker4pos;
#X obj 20 535 s \$0-speaker5pos;
#X obj 125 535 s \$0-speaker6pos;
#X obj 231 536 s \$0-speaker7pos;
#X obj 336 536 s \$0-speaker8pos;
#X msg 31 231 50;
#X msg 128 228 0;
#X msg 225 229 0;
#X msg 323 227 0;
#X msg 129 301 0;
#X msg 225 300 0;
#X msg 325 299 0;
#X msg 125 510 pos 450 470;
#X msg 231 510 pos 450 470;
#X msg 334 512 pos 450 470;
#X msg 18 454 pos 166 262;
#X msg 122 456 pos 346 262;
#X msg 230 455 pos 257 232;
#X msg 334 456 pos 198 412;
#X msg 21 509 pos 317 412;
#X msg 27 61 57;
#X msg 26 129 210;
#X msg 125 130 210;
#X msg 124 58 236;
#X msg 221 58 147;
#X msg 222 130 240;
#X msg 319 59 88;
#X msg 321 128 60;
#X msg 30 300 206;
#X obj 26 31 r \$0-5channel;
#X obj 31 206 r \$0-5channel;
#X obj 17 423 r \$0-5channel;
#X connect 0 0 2 0;
#X connect 1 0 3 0;
#X connect 4 0 6 0;
#X connect 5 0 7 0;
#X connect 8 0 12 0;
#X connect 9 0 13 0;
#X connect 10 0 14 0;
#X connect 11 0 15 0;
#X connect 16 0 24 0;
#X connect 17 0 25 0;
#X connect 18 0 26 0;
#X connect 19 0 27 0;
#X connect 20 0 28 0;
#X connect 21 0 29 0;
#X connect 22 0 30 0;
#X connect 23 0 31 0;
#X connect 40 0 16 0;
#X connect 41 0 18 0;
#X connect 42 0 20 0;
#X connect 43 0 22 0;
#X connect 44 0 19 0;
#X connect 45 0 21 0;
#X connect 46 0 23 0;
#X connect 47 0 37 0;
#X connect 48 0 38 0;
#X connect 49 0 39 0;
#X connect 50 0 32 0;
#X connect 51 0 33 0;
#X connect 52 0 34 0;
#X connect 53 0 35 0;
#X connect 54 0 36 0;
#X connect 55 0 0 0;
#X connect 56 0 1 0;
#X connect 57 0 5 0;
#X connect 58 0 4 0;
#X connect 59 0 8 0;
#X connect 60 0 9 0;
#X connect 61 0 10 0;
#X connect 62 0 11 0;
#X connect 63 0 17 0;
#X connect 64 0 55 0;
#X connect 64 0 58 0;
#X connect 64 0 59 0;
#X connect 64 0 61 0;
#X connect 64 0 56 0;
#X connect 64 0 57 0;
#X connect 64 0 60 0;
#X connect 64 0 62 0;
#X connect 65 0 40 0;
#X connect 65 0 41 0;
#X connect 65 0 42 0;
#X connect 65 0 43 0;
#X connect 65 0 63 0;
#X connect 65 0 44 0;
#X connect 65 0 45 0;
#X connect 65 0 46 0;
#X connect 66 0 50 0;
#X connect 66 0 51 0;
#X connect 66 0 52 0;
#X connect 66 0 53 0;
#X connect 66 0 54 0;
#X connect 66 0 47 0;
#X connect 66 0 48 0;
#X connect 66 0 49 0;
#X restore 538 171 pd 5channel;
#N canvas 823 55 462 622 4channel 0;
#X floatatom 26 83 5 0 0 0 - - -;
#X floatatom 27 154 5 0 0 0 - - -;
#X obj 26 104 s \$0-speaker1x;
#X obj 27 175 s \$0-speaker1y;
#X floatatom 124 82 5 0 0 0 - - -;
#X floatatom 126 154 5 0 0 0 - - -;
#X obj 124 103 s \$0-speaker2x;
#X obj 126 175 s \$0-speaker2y;
#X floatatom 221 81 5 0 0 0 - - -;
#X floatatom 222 152 5 0 0 0 - - -;
#X floatatom 319 80 5 0 0 0 - - -;
#X floatatom 321 152 5 0 0 0 - - -;
#X obj 221 102 s \$0-speaker3x;
#X obj 222 173 s \$0-speaker3y;
#X obj 319 101 s \$0-speaker4x;
#X obj 321 173 s \$0-speaker4y;
#X floatatom 30 254 5 0 0 0 - - -;
#X floatatom 31 325 5 0 0 0 - - -;
#X floatatom 128 253 5 0 0 0 - - -;
#X floatatom 130 325 5 0 0 0 - - -;
#X floatatom 225 252 5 0 0 0 - - -;
#X floatatom 226 323 5 0 0 0 - - -;
#X floatatom 323 251 5 0 0 0 - - -;
#X floatatom 325 323 5 0 0 0 - - -;
#X obj 30 275 s \$0-speaker5x;
#X obj 31 346 s \$0-speaker5y;
#X obj 128 274 s \$0-speaker6x;
#X obj 129 346 s \$0-speaker6y;
#X obj 225 273 s \$0-speaker7x;
#X obj 226 344 s \$0-speaker7y;
#X obj 323 272 s \$0-speaker8x;
#X obj 325 344 s \$0-speaker8y;
#X obj 19 483 s \$0-speaker1pos;
#X obj 123 483 s \$0-speaker2pos;
#X obj 229 484 s \$0-speaker3pos;
#X obj 334 484 s \$0-speaker4pos;
#X obj 20 535 s \$0-speaker5pos;
#X obj 125 535 s \$0-speaker6pos;
#X obj 231 536 s \$0-speaker7pos;
#X obj 336 536 s \$0-speaker8pos;
#X msg 128 228 0;
#X msg 225 229 0;
#X msg 323 227 0;
#X msg 129 301 0;
#X msg 225 300 0;
#X msg 325 299 0;
#X msg 125 510 pos 450 470;
#X msg 231 510 pos 450 470;
#X msg 334 512 pos 450 470;
#X msg 27 61 57;
#X msg 124 58 236;
#X msg 321 128 60;
#X obj 26 31 r \$0-4channel;
#X obj 31 206 r \$0-4channel;
#X obj 17 423 r \$0-4channel;
#X msg 31 231 0;
#X msg 30 300 0;
#X msg 21 509 pos 450 470;
#X msg 18 454 pos 166 232;
#X msg 122 456 pos 346 232;
#X msg 335 456 pos 346 412;
#X msg 230 455 pos 166 412;
#X msg 26 129 240;
#X msg 125 130 240;
#X msg 221 58 57;
#X msg 222 130 60;
#X msg 319 59 236;
#X connect 0 0 2 0;
#X connect 1 0 3 0;
#X connect 4 0 6 0;
#X connect 5 0 7 0;
#X connect 8 0 12 0;
#X connect 9 0 13 0;
#X connect 10 0 14 0;
#X connect 11 0 15 0;
#X connect 16 0 24 0;
#X connect 17 0 25 0;
#X connect 18 0 26 0;
#X connect 19 0 27 0;
#X connect 20 0 28 0;
#X connect 21 0 29 0;
#X connect 22 0 30 0;
#X connect 23 0 31 0;
#X connect 40 0 18 0;
#X connect 41 0 20 0;
#X connect 42 0 22 0;
#X connect 43 0 19 0;
#X connect 44 0 21 0;
#X connect 45 0 23 0;
#X connect 46 0 37 0;
#X connect 47 0 38 0;
#X connect 48 0 39 0;
#X connect 49 0 0 0;
#X connect 50 0 4 0;
#X connect 51 0 11 0;
#X connect 52 0 49 0;
#X connect 52 0 50 0;
#X connect 52 0 64 0;
#X connect 52 0 66 0;
#X connect 52 0 62 0;
#X connect 52 0 63 0;
#X connect 52 0 65 0;
#X connect 52 0 51 0;
#X connect 53 0 55 0;
#X connect 53 0 40 0;
#X connect 53 0 41 0;
#X connect 53 0 42 0;
#X connect 53 0 56 0;
#X connect 53 0 43 0;
#X connect 53 0 44 0;
#X connect 53 0 45 0;
#X connect 54 0 59 0;
#X connect 54 0 61 0;
#X connect 54 0 60 0;
#X connect 54 0 57 0;
#X connect 54 0 46 0;
#X connect 54 0 47 0;
#X connect 54 0 48 0;
#X connect 54 0 58 0;
#X connect 55 0 16 0;
#X connect 56 0 17 0;
#X connect 57 0 36 0;
#X connect 58 0 32 0;
#X connect 59 0 33 0;
#X connect 60 0 35 0;
#X connect 61 0 34 0;
#X connect 62 0 1 0;
#X connect 63 0 5 0;
#X connect 64 0 8 0;
#X connect 65 0 9 0;
#X connect 66 0 10 0;
#X restore 538 192 pd 4channel;
#X obj 421 219 bng 15 250 50 0 \$0-4channel empty 4_channel 19 7 0
10 -3390 -1 -1;
#X obj 844 597 lop~ 100;
#X obj 844 643 outlet~;
#X obj 422 259 tgl 15 0 \$0-subonoff \$0-justanything Sub_on/off 19
7 0 10 -64830 -1 -1 0 1;
#X obj 903 542 r \$0-subonoff;
#X floatatom 903 563 5 0 0 0 - - -;
#X obj 903 603 vline~;
#X msg 903 582 \$1 50;
#X obj 844 620 *~;
#X obj 991 542 loadbang;
#X msg 991 563 0;
#X obj 11 93 line;
#X floatatom 11 113 5 0 0 0 - - -;
#X obj 11 7 bng 15 250 50 0 empty empty empty 17 7 0 10 -262144 -1
-1;
#X obj 11 -38 tgl 15 0 empty \$0-wiggle empty 17 7 0 10 -262144 -1
-1 0 1;
#X obj 68 86 +;
#X floatatom 68 108 5 0 0 0 - - -;
#X obj 11 134 t b;
#X obj 11 -16 metro 300;
#X obj 11 49 del 150;
#X obj 814 449 jh.leap_fists;
#X msg 814 474 1;
#X msg 844 474 0;
#X obj 422 279 tgl 15 0 \$0-wiggle \$0-wiggleonoff Wiggle_on/off 19
7 0 10 -3390 -1 -1 0 1;
#X obj 814 499 s \$0-wiggleonoff;
#X obj 11 -62 r \$0-wiggle;
#X msg 11 28 40 150;
#X msg 11 73 -40 150;
#X msg -38 35 0;
#X obj -39 -22 sel 0;
#X obj -40 15 del 302;
#X obj 422 239 bng 15 250 50 0 \$0-2channel empty 2_channel 19 7 0
10 -3390 -1 -1;
#N canvas 823 55 462 622 2channel 0;
#X floatatom 26 83 5 0 0 0 - - -;
#X floatatom 27 154 5 0 0 0 - - -;
#X obj 26 104 s \$0-speaker1x;
#X obj 27 175 s \$0-speaker1y;
#X floatatom 124 82 5 0 0 0 - - -;
#X floatatom 126 154 5 0 0 0 - - -;
#X obj 124 103 s \$0-speaker2x;
#X obj 126 175 s \$0-speaker2y;
#X floatatom 221 81 5 0 0 0 - - -;
#X floatatom 222 152 5 0 0 0 - - -;
#X floatatom 319 80 5 0 0 0 - - -;
#X floatatom 321 152 5 0 0 0 - - -;
#X obj 221 102 s \$0-speaker3x;
#X obj 222 173 s \$0-speaker3y;
#X obj 319 101 s \$0-speaker4x;
#X obj 321 173 s \$0-speaker4y;
#X floatatom 30 254 5 0 0 0 - - -;
#X floatatom 31 325 5 0 0 0 - - -;
#X floatatom 128 253 5 0 0 0 - - -;
#X floatatom 130 325 5 0 0 0 - - -;
#X floatatom 225 252 5 0 0 0 - - -;
#X floatatom 226 323 5 0 0 0 - - -;
#X floatatom 323 251 5 0 0 0 - - -;
#X floatatom 325 323 5 0 0 0 - - -;
#X obj 30 275 s \$0-speaker5x;
#X obj 31 346 s \$0-speaker5y;
#X obj 128 274 s \$0-speaker6x;
#X obj 129 346 s \$0-speaker6y;
#X obj 225 273 s \$0-speaker7x;
#X obj 226 344 s \$0-speaker7y;
#X obj 323 272 s \$0-speaker8x;
#X obj 325 344 s \$0-speaker8y;
#X obj 19 483 s \$0-speaker1pos;
#X obj 123 483 s \$0-speaker2pos;
#X obj 229 484 s \$0-speaker3pos;
#X obj 334 484 s \$0-speaker4pos;
#X obj 20 535 s \$0-speaker5pos;
#X obj 125 535 s \$0-speaker6pos;
#X obj 231 536 s \$0-speaker7pos;
#X obj 336 536 s \$0-speaker8pos;
#X msg 128 228 0;
#X msg 225 229 0;
#X msg 323 227 0;
#X msg 129 301 0;
#X msg 225 300 0;
#X msg 325 299 0;
#X msg 125 510 pos 450 470;
#X msg 231 510 pos 450 470;
#X msg 334 512 pos 450 470;
#X msg 31 231 0;
#X msg 30 300 0;
#X msg 21 509 pos 450 470;
#X msg 230 455 pos 450 470;
#X msg 336 456 pos 450 470;
#X msg 18 454 pos 204 322;
#X msg 122 456 pos 309 322;
#X msg 221 58 0;
#X msg 222 130 0;
#X msg 319 59 0;
#X msg 321 128 0;
#X msg 27 61 94;
#X msg 26 129 150;
#X msg 125 130 150;
#X msg 124 59 200;
#X obj 26 31 r \$0-2channel;
#X obj 31 206 r \$0-2channel;
#X obj 17 423 r \$0-2channel;
#X connect 0 0 2 0;
#X connect 1 0 3 0;
#X connect 4 0 6 0;
#X connect 5 0 7 0;
#X connect 8 0 12 0;
#X connect 9 0 13 0;
#X connect 10 0 14 0;
#X connect 11 0 15 0;
#X connect 16 0 24 0;
#X connect 17 0 25 0;
#X connect 18 0 26 0;
#X connect 19 0 27 0;
#X connect 20 0 28 0;
#X connect 21 0 29 0;
#X connect 22 0 30 0;
#X connect 23 0 31 0;
#X connect 40 0 18 0;
#X connect 41 0 20 0;
#X connect 42 0 22 0;
#X connect 43 0 19 0;
#X connect 44 0 21 0;
#X connect 45 0 23 0;
#X connect 46 0 37 0;
#X connect 47 0 38 0;
#X connect 48 0 39 0;
#X connect 49 0 16 0;
#X connect 50 0 17 0;
#X connect 51 0 36 0;
#X connect 52 0 34 0;
#X connect 53 0 35 0;
#X connect 54 0 32 0;
#X connect 55 0 33 0;
#X connect 56 0 8 0;
#X connect 57 0 9 0;
#X connect 58 0 10 0;
#X connect 59 0 11 0;
#X connect 60 0 0 0;
#X connect 61 0 1 0;
#X connect 62 0 5 0;
#X connect 63 0 4 0;
#X connect 64 0 60 0;
#X connect 64 0 63 0;
#X connect 64 0 56 0;
#X connect 64 0 58 0;
#X connect 64 0 61 0;
#X connect 64 0 62 0;
#X connect 64 0 57 0;
#X connect 64 0 59 0;
#X connect 65 0 49 0;
#X connect 65 0 40 0;
#X connect 65 0 41 0;
#X connect 65 0 42 0;
#X connect 65 0 50 0;
#X connect 65 0 43 0;
#X connect 65 0 44 0;
#X connect 65 0 45 0;
#X connect 66 0 52 0;
#X connect 66 0 53 0;
#X connect 66 0 51 0;
#X connect 66 0 46 0;
#X connect 66 0 47 0;
#X connect 66 0 48 0;
#X connect 66 0 54 0;
#X connect 66 0 55 0;
#X restore 538 214 pd 2channel;
#X obj 114 3 expr ((($f1 + 300) / 600) * 300) \; (((($f2 + 200) * -1
+ 400) / 400) * 300);
#X msg 938 26 151;
#X msg 938 -18 147;
#X obj 422 364 jh.leap_loop;
#X obj 541 431 jh.leap_loop;
#N canvas 823 55 462 622 0channel 0;
#X obj -7 74 s \$0-speaker1pos;
#X obj 97 74 s \$0-speaker2pos;
#X obj 203 75 s \$0-speaker3pos;
#X obj 308 75 s \$0-speaker4pos;
#X obj -6 126 s \$0-speaker5pos;
#X obj 99 126 s \$0-speaker6pos;
#X obj 205 127 s \$0-speaker7pos;
#X obj 310 127 s \$0-speaker8pos;
#X msg 99 101 pos 450 470;
#X msg 205 101 pos 450 470;
#X msg 308 103 pos 450 470;
#X msg -5 100 pos 450 470;
#X msg 204 46 pos 450 470;
#X msg 310 47 pos 450 470;
#X obj -9 14 r \$0-0channel;
#X msg -8 45 pos 450 470;
#X msg 96 47 pos 450 470;
#X connect 8 0 5 0;
#X connect 9 0 6 0;
#X connect 10 0 7 0;
#X connect 11 0 4 0;
#X connect 12 0 2 0;
#X connect 13 0 3 0;
#X connect 14 0 12 0;
#X connect 14 0 13 0;
#X connect 14 0 11 0;
#X connect 14 0 8 0;
#X connect 14 0 9 0;
#X connect 14 0 10 0;
#X connect 14 0 15 0;
#X connect 14 0 16 0;
#X connect 15 0 0 0;
#X connect 16 0 1 0;
#X restore 538 237 pd 0channel;
#X obj 611 238 bng 15 250 50 0 \$0-0channel empty 0_channel 17 7 0
10 -262144 -1 -1;
#X obj 420 425 cnv 15 100 60 empty empty empty 20 12 0 14 -237440 -66577
0;
#X obj 423 357 cnv 1 1 1 empty empty Automation: 0 0 0 10 -237440 -1
0;
#X obj 692 305 unpack 0 0 0 0 0 0;
#X obj 692 282 r general;
#X floatatom 734 327 5 0 0 0 Hands: - -;
#X msg 734 379 0;
#X obj 421 464 tgl 15 0 \$0-leaponoff \$0-leapload Leap_on/off 19 7
0 10 -3390 -1 -1 1 1;
#X obj 351 -22 spigot;
#X obj 114 -21 spigot;
#X obj 384 -62 r \$0-leaponoff;
#X floatatom 384 -41 5 0 0 0 - - -;
#X obj 938 87 s \$0-leapload;
#X msg 938 67 1;
#X obj 723 197 random 300;
#X obj 792 197 random 300;
#X floatatom 723 220 5 0 0 0 - - -;
#X floatatom 794 219 5 0 0 0 - - -;
#X obj 723 151 tgl 15 0 empty empty empty 17 7 0 10 -262144 -1 -1 0
1;
#X obj 723 171 metro 1000;
#X obj 123 38 r \$0-xin;
#X obj 240 37 r \$0-yin;
#X obj 938 4 s \$0-xin;
#X obj 938 46 s \$0-yin;
#X obj 415 103 loadbang;
#X msg 937 108 1;
#X obj 937 129 s \$0-set8channel;
#X obj 723 131 r \$0-random;
#X obj 723 241 s \$0-xin;
#X obj 794 240 s \$0-yin;
#X obj 541 406 r \$0-panposy;
#X obj 541 457 s \$0-yin;
#X obj 540 385 s \$0-xin;
#X obj 542 327 r \$0-panposx;
#X obj 11 157 s \$0-xin;
#X obj 422 300 tgl 15 0 \$0-random \$0-justanything Random_on/off 19
7 0 10 -3390 -1 -1 0 1;
#X msg 767 424 0;
#X floatatom 767 447 5 0 0 0 - - -;
#X obj 767 402 del 10;
#X obj 734 352 sel 0 1 2;
#X msg 766 379 1;
#X obj 734 468 spigot;
#X obj 425 332 hsl 85 15 100 10000 1 0 \$0-randomspeed \$0-setrandomspeed
Random_Speed: -2 -8 0 10 -122174 -1 -1 4200 1;
#X floatatom 809 153 5 0 0 0 - - -;
#X obj 809 131 r \$0-randomspeed;
#X obj 937 174 s \$0-setrandomspeed;
#X msg 937 152 1000;
#X connect 3 0 10 0;
#X connect 3 1 9 0;
#X connect 4 0 103 0;
#X connect 4 2 102 0;
#X connect 5 0 70 0;
#X connect 6 0 7 1;
#X connect 6 0 8 0;
#X connect 7 0 11 0;
#X connect 8 0 5 0;
#X connect 9 0 16 0;
#X connect 10 0 15 0;
#X connect 11 0 3 0;
#X connect 12 0 3 0;
#X connect 13 0 90 0;
#X connect 13 0 89 0;
#X connect 13 0 107 0;
#X connect 13 0 119 0;
#X connect 13 0 140 0;
#X connect 17 0 29 0;
#X connect 17 0 31 0;
#X connect 17 0 33 0;
#X connect 17 0 35 0;
#X connect 17 0 37 0;
#X connect 17 0 39 0;
#X connect 17 0 41 0;
#X connect 17 0 19 0;
#X connect 17 0 56 0;
#X connect 19 0 18 0;
#X connect 20 0 29 1;
#X connect 21 0 31 1;
#X connect 22 0 33 1;
#X connect 23 0 35 1;
#X connect 24 0 37 1;
#X connect 25 0 39 1;
#X connect 26 0 41 1;
#X connect 27 0 19 1;
#X connect 29 0 28 0;
#X connect 31 0 30 0;
#X connect 33 0 32 0;
#X connect 35 0 34 0;
#X connect 37 0 36 0;
#X connect 39 0 38 0;
#X connect 41 0 40 0;
#X connect 56 0 63 0;
#X connect 59 0 60 0;
#X connect 60 0 62 0;
#X connect 61 0 63 1;
#X connect 62 0 61 0;
#X connect 63 0 57 0;
#X connect 64 0 65 0;
#X connect 65 0 60 0;
#X connect 66 0 67 0;
#X connect 67 0 70 1;
#X connect 67 0 72 0;
#X connect 68 0 81 0;
#X connect 68 0 74 0;
#X connect 69 0 73 0;
#X connect 69 0 84 0;
#X connect 70 0 71 0;
#X connect 71 0 7 0;
#X connect 72 0 128 0;
#X connect 73 0 68 0;
#X connect 74 0 82 0;
#X connect 75 0 76 0;
#X connect 75 1 77 0;
#X connect 76 0 79 0;
#X connect 77 0 79 0;
#X connect 80 0 69 0;
#X connect 81 0 66 0;
#X connect 82 0 66 0;
#X connect 83 0 67 0;
#X connect 84 0 85 0;
#X connect 85 0 83 0;
#X connect 88 0 5 0;
#X connect 88 1 6 0;
#X connect 89 0 117 0;
#X connect 90 0 116 0;
#X connect 91 0 126 0;
#X connect 91 1 92 1;
#X connect 91 2 92 2;
#X connect 92 0 125 0;
#X connect 97 2 99 0;
#X connect 98 0 97 0;
#X connect 99 0 133 0;
#X connect 100 0 135 0;
#X connect 102 0 88 1;
#X connect 103 0 88 0;
#X connect 104 0 105 0;
#X connect 105 0 102 1;
#X connect 105 0 103 1;
#X connect 107 0 106 0;
#X connect 108 0 110 0;
#X connect 109 0 111 0;
#X connect 110 0 122 0;
#X connect 111 0 123 0;
#X connect 112 0 113 0;
#X connect 113 0 108 0;
#X connect 113 0 109 0;
#X connect 114 0 5 0;
#X connect 115 0 6 0;
#X connect 118 0 12 0;
#X connect 119 0 120 0;
#X connect 121 0 112 0;
#X connect 124 0 92 0;
#X connect 127 0 91 0;
#X connect 130 0 131 0;
#X connect 131 0 135 1;
#X connect 132 0 130 0;
#X connect 133 0 100 0;
#X connect 133 0 132 0;
#X connect 133 1 134 0;
#X connect 133 2 134 0;
#X connect 134 0 131 0;
#X connect 135 0 79 0;
#X connect 137 0 113 1;
#X connect 138 0 137 0;
#X connect 140 0 139 0;
#X coords 0 -1 1 1 432 345 1 100 150;
