#N canvas 131 51 1280 750 10;
#X declare -path utilities;
#X obj 696 -40 declare -path utilities;
#X obj 102 152 cnv 15 533 340 empty empty Reverb 20 12 0 14 -125751
-66577 0;
#X obj 106 156 cnv 15 525 332 empty empty Surround_Panner 3 10 0 16
-241536 -66577 0;
#X obj 114 179 grid grid1 300 0 299 300 0 299 1 1 1 10 10 261 327;
#X obj 114 -64 jh.leap_hand 0;
#X floatatom 114 64 5 0 0 0 - - -;
#X floatatom 351 67 5 0 0 0 - - -;
#X obj 114 88 pack f f;
#X msg 351 88 bang;
#X floatatom 407 501 5 0 0 0 - - -;
#X floatatom 114 501 5 0 0 0 - - -;
#X msg 114 110 values \$1 \$2;
#X msg 415 125 color 140 180 250;
#X obj 938 -39 loadbang;
#X obj 696 -19 jh.leap_check;
#X obj 114 525 s \$0-panposx;
#X obj 407 523 s \$0-panposy;
#X obj 388 672 inlet~;
#X obj 704 757 outlet~;
#X obj 704 734 *~;
#N canvas 902 88 485 558 speaker1 0;
#X obj 62 145 *;
#X obj 115 75 r \$0-panposx;
#X obj 242 74 r \$0-panposy;
#X obj 197 143 *;
#X obj 197 166 t b;
#X floatatom 62 166 5 0 0 0 - - -;
#X obj 62 190 +;
#X obj 62 212 sqrt;
#X floatatom 63 236 5 0 0 0 - - -;
#X floatatom 62 97 5 0 0 0 - - -;
#X floatatom 197 96 5 0 0 0 - - -;
#X obj 115 96 t b;
#X obj 242 95 t b;
#X obj 62 119 -;
#X obj 197 116 -;
#X obj 63 258 / 300;
#X obj 63 283 * -1;
#X obj 63 305 + 0.5;
#X floatatom 102 350 5 0 0 0 - - -;
#X obj 63 328 moses 0;
#X obj 102 372 * 2;
#X floatatom 102 396 5 0 0 0 - - -;
#X obj 102 440 vline~;
#X msg 102 418 \$1 50;
#X obj 102 462 outlet~;
#X obj 62 54 r \$0-speaker1x;
#X obj 197 53 r \$0-speaker1y;
#X connect 0 0 5 0;
#X connect 1 0 11 0;
#X connect 1 0 13 1;
#X connect 2 0 12 0;
#X connect 2 0 14 1;
#X connect 3 0 4 0;
#X connect 3 0 6 1;
#X connect 4 0 5 0;
#X connect 5 0 6 0;
#X connect 6 0 7 0;
#X connect 7 0 8 0;
#X connect 8 0 15 0;
#X connect 9 0 13 0;
#X connect 10 0 14 0;
#X connect 11 0 9 0;
#X connect 12 0 10 0;
#X connect 13 0 0 0;
#X connect 13 0 0 1;
#X connect 14 0 3 0;
#X connect 14 0 3 1;
#X connect 15 0 16 0;
#X connect 16 0 17 0;
#X connect 17 0 19 0;
#X connect 18 0 20 0;
#X connect 19 1 18 0;
#X connect 20 0 21 0;
#X connect 21 0 23 0;
#X connect 22 0 24 0;
#X connect 23 0 22 0;
#X connect 25 0 9 0;
#X connect 26 0 10 0;
#X restore 75 712 pd speaker1;
#N canvas 397 73 796 693 speaker2 0;
#X obj 52 135 *;
#X obj 105 65 r \$0-panposx;
#X obj 232 64 r \$0-panposy;
#X obj 187 133 *;
#X obj 187 156 t b;
#X floatatom 52 156 5 0 0 0 - - -;
#X obj 52 180 +;
#X obj 52 202 sqrt;
#X floatatom 53 226 5 0 0 0 - - -;
#X floatatom 52 87 5 0 0 0 - - -;
#X floatatom 187 86 5 0 0 0 - - -;
#X obj 105 86 t b;
#X obj 232 85 t b;
#X obj 52 109 -;
#X obj 187 106 -;
#X obj 52 44 r \$0-speaker2x;
#X obj 187 43 r \$0-speaker2y;
#X obj 53 248 / 300;
#X obj 53 273 * -1;
#X obj 53 295 + 0.5;
#X floatatom 92 340 5 0 0 0 - - -;
#X obj 53 318 moses 0;
#X obj 92 362 * 2;
#X floatatom 92 386 5 0 0 0 - - -;
#X obj 92 430 vline~;
#X msg 92 408 \$1 50;
#X obj 92 452 outlet~;
#X connect 0 0 5 0;
#X connect 1 0 11 0;
#X connect 1 0 13 1;
#X connect 2 0 12 0;
#X connect 2 0 14 1;
#X connect 3 0 4 0;
#X connect 3 0 6 1;
#X connect 4 0 5 0;
#X connect 5 0 6 0;
#X connect 6 0 7 0;
#X connect 7 0 8 0;
#X connect 8 0 17 0;
#X connect 9 0 13 0;
#X connect 10 0 14 0;
#X connect 11 0 9 0;
#X connect 12 0 10 0;
#X connect 13 0 0 0;
#X connect 13 0 0 1;
#X connect 14 0 3 0;
#X connect 14 0 3 1;
#X connect 15 0 9 0;
#X connect 16 0 10 0;
#X connect 17 0 18 0;
#X connect 18 0 19 0;
#X connect 19 0 21 0;
#X connect 20 0 22 0;
#X connect 21 1 20 0;
#X connect 22 0 23 0;
#X connect 23 0 25 0;
#X connect 24 0 26 0;
#X connect 25 0 24 0;
#X restore 169 712 pd speaker2;
#N canvas 541 91 450 300 speaker3 0;
#X obj 72 155 *;
#X obj 125 85 r \$0-panposx;
#X obj 252 84 r \$0-panposy;
#X obj 207 153 *;
#X obj 207 176 t b;
#X floatatom 72 176 5 0 0 0 - - -;
#X obj 72 200 +;
#X obj 72 222 sqrt;
#X floatatom 73 246 5 0 0 0 - - -;
#X floatatom 72 107 5 0 0 0 - - -;
#X floatatom 207 106 5 0 0 0 - - -;
#X obj 125 106 t b;
#X obj 252 105 t b;
#X obj 72 129 -;
#X obj 207 126 -;
#X obj 73 268 / 300;
#X obj 73 293 * -1;
#X obj 73 315 + 0.5;
#X floatatom 112 360 5 0 0 0 - - -;
#X obj 73 338 moses 0;
#X obj 112 382 * 2;
#X floatatom 112 406 5 0 0 0 - - -;
#X obj 112 450 vline~;
#X msg 112 428 \$1 50;
#X obj 112 472 outlet~;
#X obj 72 64 r \$0-speaker3x;
#X obj 207 63 r \$0-speaker3y;
#X connect 0 0 5 0;
#X connect 1 0 11 0;
#X connect 1 0 13 1;
#X connect 2 0 12 0;
#X connect 2 0 14 1;
#X connect 3 0 4 0;
#X connect 3 0 6 1;
#X connect 4 0 5 0;
#X connect 5 0 6 0;
#X connect 6 0 7 0;
#X connect 7 0 8 0;
#X connect 8 0 15 0;
#X connect 9 0 13 0;
#X connect 10 0 14 0;
#X connect 11 0 9 0;
#X connect 12 0 10 0;
#X connect 13 0 0 0;
#X connect 13 0 0 1;
#X connect 14 0 3 0;
#X connect 14 0 3 1;
#X connect 15 0 16 0;
#X connect 16 0 17 0;
#X connect 17 0 19 0;
#X connect 18 0 20 0;
#X connect 19 1 18 0;
#X connect 20 0 21 0;
#X connect 21 0 23 0;
#X connect 22 0 24 0;
#X connect 23 0 22 0;
#X connect 25 0 9 0;
#X connect 26 0 10 0;
#X restore 261 712 pd speaker3;
#N canvas 334 126 450 300 speaker4 0;
#X obj 82 165 *;
#X obj 135 95 r \$0-panposx;
#X obj 262 94 r \$0-panposy;
#X obj 217 163 *;
#X obj 217 186 t b;
#X floatatom 82 186 5 0 0 0 - - -;
#X obj 82 210 +;
#X obj 82 232 sqrt;
#X floatatom 83 256 5 0 0 0 - - -;
#X floatatom 82 117 5 0 0 0 - - -;
#X floatatom 217 116 5 0 0 0 - - -;
#X obj 135 116 t b;
#X obj 262 115 t b;
#X obj 82 139 -;
#X obj 217 136 -;
#X obj 83 278 / 300;
#X obj 83 303 * -1;
#X obj 83 325 + 0.5;
#X floatatom 122 370 5 0 0 0 - - -;
#X obj 83 348 moses 0;
#X obj 122 392 * 2;
#X floatatom 122 416 5 0 0 0 - - -;
#X obj 122 460 vline~;
#X msg 122 438 \$1 50;
#X obj 122 482 outlet~;
#X obj 82 74 r \$0-speaker4x;
#X obj 217 73 r \$0-speaker4y;
#X connect 0 0 5 0;
#X connect 1 0 11 0;
#X connect 1 0 13 1;
#X connect 2 0 12 0;
#X connect 2 0 14 1;
#X connect 3 0 4 0;
#X connect 3 0 6 1;
#X connect 4 0 5 0;
#X connect 5 0 6 0;
#X connect 6 0 7 0;
#X connect 7 0 8 0;
#X connect 8 0 15 0;
#X connect 9 0 13 0;
#X connect 10 0 14 0;
#X connect 11 0 9 0;
#X connect 12 0 10 0;
#X connect 13 0 0 0;
#X connect 13 0 0 1;
#X connect 14 0 3 0;
#X connect 14 0 3 1;
#X connect 15 0 16 0;
#X connect 16 0 17 0;
#X connect 17 0 19 0;
#X connect 18 0 20 0;
#X connect 19 1 18 0;
#X connect 20 0 21 0;
#X connect 21 0 23 0;
#X connect 22 0 24 0;
#X connect 23 0 22 0;
#X connect 25 0 9 0;
#X connect 26 0 10 0;
#X restore 355 712 pd speaker4;
#N canvas 565 355 450 300 speaker5 0;
#X obj 102 185 *;
#X obj 155 115 r \$0-panposx;
#X obj 282 114 r \$0-panposy;
#X obj 237 183 *;
#X obj 237 206 t b;
#X floatatom 102 206 5 0 0 0 - - -;
#X obj 102 230 +;
#X obj 102 252 sqrt;
#X floatatom 103 276 5 0 0 0 - - -;
#X floatatom 102 137 5 0 0 0 - - -;
#X floatatom 237 136 5 0 0 0 - - -;
#X obj 155 136 t b;
#X obj 282 135 t b;
#X obj 102 159 -;
#X obj 237 156 -;
#X obj 103 298 / 300;
#X obj 103 323 * -1;
#X obj 103 345 + 0.5;
#X floatatom 142 390 5 0 0 0 - - -;
#X obj 103 368 moses 0;
#X obj 142 412 * 2;
#X floatatom 142 436 5 0 0 0 - - -;
#X obj 142 480 vline~;
#X msg 142 458 \$1 50;
#X obj 142 502 outlet~;
#X obj 102 94 r \$0-speaker5x;
#X obj 237 93 r \$0-speaker5y;
#X connect 0 0 5 0;
#X connect 1 0 11 0;
#X connect 1 0 13 1;
#X connect 2 0 12 0;
#X connect 2 0 14 1;
#X connect 3 0 4 0;
#X connect 3 0 6 1;
#X connect 4 0 5 0;
#X connect 5 0 6 0;
#X connect 6 0 7 0;
#X connect 7 0 8 0;
#X connect 8 0 15 0;
#X connect 9 0 13 0;
#X connect 10 0 14 0;
#X connect 11 0 9 0;
#X connect 12 0 10 0;
#X connect 13 0 0 0;
#X connect 13 0 0 1;
#X connect 14 0 3 0;
#X connect 14 0 3 1;
#X connect 15 0 16 0;
#X connect 16 0 17 0;
#X connect 17 0 19 0;
#X connect 18 0 20 0;
#X connect 19 1 18 0;
#X connect 20 0 21 0;
#X connect 21 0 23 0;
#X connect 22 0 24 0;
#X connect 23 0 22 0;
#X connect 25 0 9 0;
#X connect 26 0 10 0;
#X restore 447 711 pd speaker5;
#N canvas 461 144 450 300 speaker6 0;
#X obj 112 195 *;
#X obj 165 125 r \$0-panposx;
#X obj 292 124 r \$0-panposy;
#X obj 247 193 *;
#X obj 247 216 t b;
#X floatatom 112 216 5 0 0 0 - - -;
#X obj 112 240 +;
#X obj 112 262 sqrt;
#X floatatom 113 286 5 0 0 0 - - -;
#X floatatom 112 147 5 0 0 0 - - -;
#X floatatom 247 146 5 0 0 0 - - -;
#X obj 165 146 t b;
#X obj 292 145 t b;
#X obj 112 169 -;
#X obj 247 166 -;
#X obj 113 308 / 300;
#X obj 113 333 * -1;
#X obj 113 355 + 0.5;
#X floatatom 152 400 5 0 0 0 - - -;
#X obj 113 378 moses 0;
#X obj 152 422 * 2;
#X floatatom 152 446 5 0 0 0 - - -;
#X obj 152 490 vline~;
#X msg 152 468 \$1 50;
#X obj 152 512 outlet~;
#X obj 112 104 r \$0-speaker6x;
#X obj 247 103 r \$0-speaker6y;
#X connect 0 0 5 0;
#X connect 1 0 11 0;
#X connect 1 0 13 1;
#X connect 2 0 12 0;
#X connect 2 0 14 1;
#X connect 3 0 4 0;
#X connect 3 0 6 1;
#X connect 4 0 5 0;
#X connect 5 0 6 0;
#X connect 6 0 7 0;
#X connect 7 0 8 0;
#X connect 8 0 15 0;
#X connect 9 0 13 0;
#X connect 10 0 14 0;
#X connect 11 0 9 0;
#X connect 12 0 10 0;
#X connect 13 0 0 0;
#X connect 13 0 0 1;
#X connect 14 0 3 0;
#X connect 14 0 3 1;
#X connect 15 0 16 0;
#X connect 16 0 17 0;
#X connect 17 0 19 0;
#X connect 18 0 20 0;
#X connect 19 1 18 0;
#X connect 20 0 21 0;
#X connect 21 0 23 0;
#X connect 22 0 24 0;
#X connect 23 0 22 0;
#X connect 25 0 9 0;
#X connect 26 0 10 0;
#X restore 539 711 pd speaker6;
#N canvas 794 96 450 300 speaker7 0;
#X obj 122 205 *;
#X obj 175 135 r \$0-panposx;
#X obj 302 134 r \$0-panposy;
#X obj 257 203 *;
#X obj 257 226 t b;
#X floatatom 122 226 5 0 0 0 - - -;
#X obj 122 250 +;
#X obj 122 272 sqrt;
#X floatatom 123 296 5 0 0 0 - - -;
#X floatatom 122 157 5 0 0 0 - - -;
#X floatatom 257 156 5 0 0 0 - - -;
#X obj 175 156 t b;
#X obj 302 155 t b;
#X obj 122 179 -;
#X obj 257 176 -;
#X obj 123 318 / 300;
#X obj 123 343 * -1;
#X obj 123 365 + 0.5;
#X floatatom 162 410 5 0 0 0 - - -;
#X obj 123 388 moses 0;
#X obj 162 432 * 2;
#X floatatom 162 456 5 0 0 0 - - -;
#X obj 162 500 vline~;
#X msg 162 478 \$1 50;
#X obj 162 522 outlet~;
#X obj 122 115 r \$0-speaker7x;
#X obj 257 113 r \$0-speaker7y;
#X connect 0 0 5 0;
#X connect 1 0 11 0;
#X connect 1 0 13 1;
#X connect 2 0 12 0;
#X connect 2 0 14 1;
#X connect 3 0 4 0;
#X connect 3 0 6 1;
#X connect 4 0 5 0;
#X connect 5 0 6 0;
#X connect 6 0 7 0;
#X connect 7 0 8 0;
#X connect 8 0 15 0;
#X connect 9 0 13 0;
#X connect 10 0 14 0;
#X connect 11 0 9 0;
#X connect 12 0 10 0;
#X connect 13 0 0 0;
#X connect 13 0 0 1;
#X connect 14 0 3 0;
#X connect 14 0 3 1;
#X connect 15 0 16 0;
#X connect 16 0 17 0;
#X connect 17 0 19 0;
#X connect 18 0 20 0;
#X connect 19 1 18 0;
#X connect 20 0 21 0;
#X connect 21 0 23 0;
#X connect 22 0 24 0;
#X connect 23 0 22 0;
#X connect 25 0 9 0;
#X connect 26 0 10 0;
#X restore 629 711 pd speaker7;
#N canvas 362 66 450 300 speaker8 0;
#X obj 132 215 *;
#X obj 185 145 r \$0-panposx;
#X obj 312 144 r \$0-panposy;
#X obj 267 213 *;
#X obj 267 236 t b;
#X floatatom 132 236 5 0 0 0 - - -;
#X obj 132 260 +;
#X obj 132 282 sqrt;
#X floatatom 133 306 5 0 0 0 - - -;
#X floatatom 132 167 5 0 0 0 - - -;
#X floatatom 267 166 5 0 0 0 - - -;
#X obj 185 166 t b;
#X obj 312 165 t b;
#X obj 132 189 -;
#X obj 267 186 -;
#X obj 133 328 / 300;
#X obj 133 353 * -1;
#X obj 133 375 + 0.5;
#X floatatom 172 420 5 0 0 0 - - -;
#X obj 133 398 moses 0;
#X obj 172 442 * 2;
#X floatatom 172 466 5 0 0 0 - - -;
#X obj 172 510 vline~;
#X msg 172 488 \$1 50;
#X obj 172 532 outlet~;
#X obj 132 124 r \$0-speaker8x;
#X obj 268 123 r \$0-speaker8y;
#X connect 0 0 5 0;
#X connect 1 0 11 0;
#X connect 1 0 13 1;
#X connect 2 0 12 0;
#X connect 2 0 14 1;
#X connect 3 0 4 0;
#X connect 3 0 6 1;
#X connect 4 0 5 0;
#X connect 5 0 6 0;
#X connect 6 0 7 0;
#X connect 7 0 8 0;
#X connect 8 0 15 0;
#X connect 9 0 13 0;
#X connect 10 0 14 0;
#X connect 11 0 9 0;
#X connect 12 0 10 0;
#X connect 13 0 0 0;
#X connect 13 0 0 1;
#X connect 14 0 3 0;
#X connect 14 0 3 1;
#X connect 15 0 16 0;
#X connect 16 0 17 0;
#X connect 17 0 19 0;
#X connect 18 0 20 0;
#X connect 19 1 18 0;
#X connect 20 0 21 0;
#X connect 21 0 23 0;
#X connect 22 0 24 0;
#X connect 23 0 22 0;
#X connect 25 0 9 0;
#X connect 26 0 10 0;
#X restore 719 711 pd speaker8;
#X obj 60 758 outlet~;
#X obj 60 735 *~;
#X obj 154 758 outlet~;
#X obj 154 735 *~;
#X obj 246 758 outlet~;
#X obj 246 735 *~;
#X obj 340 758 outlet~;
#X obj 340 735 *~;
#X obj 432 758 outlet~;
#X obj 432 735 *~;
#X obj 524 757 outlet~;
#X obj 524 734 *~;
#X obj 614 757 outlet~;
#X obj 614 734 *~;
#X obj 204 232 cnv 15 15 15 empty \$0-speaker1pos 1 4 7 0 14 -33289
-262144 0;
#X obj 309 322 cnv 15 15 15 empty \$0-speaker2pos 2 4 7 0 14 -33289
-262144 0;
#X obj 450 470 cnv 15 15 15 empty \$0-speaker3pos 3 4 7 0 14 -33289
-262144 0;
#X obj 450 470 cnv 15 15 15 empty \$0-speaker4pos 4 4 7 0 14 -33289
-262144 0;
#X obj 450 470 cnv 15 15 15 empty \$0-speaker5pos 5 4 7 0 14 -33289
-262144 0;
#X obj 450 470 cnv 15 15 15 empty \$0-speaker6pos 6 4 7 0 14 -33289
-262144 0;
#X obj 450 470 cnv 15 15 15 empty \$0-speaker7pos 7 4 7 0 14 -33289
-262144 0;
#X obj 450 470 cnv 15 15 15 empty \$0-speaker8pos 8 4 7 0 14 -33289
-262144 0;
#X obj 423 179 bng 15 250 50 0 \$0-8channel \$0-set8channel 8_channel
19 7 0 10 -64830 -1 -1;
#X obj 423 199 bng 15 250 50 0 \$0-5channel empty 5_channel 19 7 0
10 -3390 -1 -1;
#N canvas 297 32 736 695 8channel 1;
#X floatatom 6 63 5 0 0 0 - - -;
#X floatatom 7 134 5 0 0 0 - - -;
#X obj 6 84 s \$0-speaker1x;
#X obj 7 155 s \$0-speaker1y;
#X floatatom 104 62 5 0 0 0 - - -;
#X floatatom 106 134 5 0 0 0 - - -;
#X obj 104 83 s \$0-speaker2x;
#X obj 106 155 s \$0-speaker2y;
#X floatatom 201 61 5 0 0 0 - - -;
#X floatatom 202 132 5 0 0 0 - - -;
#X floatatom 299 60 5 0 0 0 - - -;
#X floatatom 301 132 5 0 0 0 - - -;
#X obj 201 82 s \$0-speaker3x;
#X obj 202 153 s \$0-speaker3y;
#X obj 299 81 s \$0-speaker4x;
#X obj 301 153 s \$0-speaker4y;
#X floatatom 10 234 5 0 0 0 - - -;
#X floatatom 11 305 5 0 0 0 - - -;
#X floatatom 108 233 5 0 0 0 - - -;
#X floatatom 110 305 5 0 0 0 - - -;
#X floatatom 205 232 5 0 0 0 - - -;
#X floatatom 206 303 5 0 0 0 - - -;
#X floatatom 303 231 5 0 0 0 - - -;
#X floatatom 305 303 5 0 0 0 - - -;
#X obj 10 255 s \$0-speaker5x;
#X obj 11 326 s \$0-speaker5y;
#X obj 108 254 s \$0-speaker6x;
#X obj 109 326 s \$0-speaker6y;
#X obj 205 253 s \$0-speaker7x;
#X obj 206 324 s \$0-speaker7y;
#X obj 303 252 s \$0-speaker8x;
#X obj 305 324 s \$0-speaker8y;
#X obj 11 519 s \$0-speaker1pos;
#X obj 157 519 s \$0-speaker2pos;
#X obj 308 520 s \$0-speaker3pos;
#X obj 456 520 s \$0-speaker4pos;
#X obj 5 666 s \$0-speaker5pos;
#X obj 110 666 s \$0-speaker6pos;
#X obj 216 667 s \$0-speaker7pos;
#X obj 321 667 s \$0-speaker8pos;
#X msg 156 492 pos 309 232;
#X msg 308 491 pos 159 292;
#X msg 456 492 pos 354 292;
#X msg 5 640 pos 159 352;
#X msg 110 641 pos 354 352;
#X msg 216 641 pos 204 412;
#X msg 319 643 pos 309 412;
#X msg 6 41 96;
#X msg 205 209 96;
#X msg 6 109 240;
#X msg 105 110 240;
#X msg 104 38 200;
#X msg 303 207 200;
#X msg 205 280 60;
#X msg 305 279 60;
#X msg 202 110 180;
#X msg 301 108 180;
#X msg 10 280 120;
#X msg 109 281 120;
#X msg 201 38 50;
#X msg 11 211 50;
#X msg 299 39 245;
#X msg 108 208 245;
#X obj 6 11 r \$0-8channel;
#X obj 11 186 r \$0-8channel;
#X obj -2 355 r \$0-8channel;
#X msg 11 493 pos 204 232;
#X obj 10 542 s \$0-setspeaker1cusposx;
#X obj 10 564 s \$0-setspeaker1cusposy;
#X msg 47 469 204;
#X obj 158 542 s \$0-setspeaker1cusposx;
#X obj 158 564 s \$0-setspeaker1cusposy;
#X obj 308 542 s \$0-setspeaker1cusposx;
#X obj 308 564 s \$0-setspeaker1cusposy;
#X obj 456 542 s \$0-setspeaker1cusposx;
#X obj 456 564 s \$0-setspeaker1cusposy;
#X msg 19 445 232;
#X connect 0 0 2 0;
#X connect 1 0 3 0;
#X connect 4 0 6 0;
#X connect 5 0 7 0;
#X connect 8 0 12 0;
#X connect 9 0 13 0;
#X connect 10 0 14 0;
#X connect 11 0 15 0;
#X connect 16 0 24 0;
#X connect 17 0 25 0;
#X connect 18 0 26 0;
#X connect 19 0 27 0;
#X connect 20 0 28 0;
#X connect 21 0 29 0;
#X connect 22 0 30 0;
#X connect 23 0 31 0;
#X connect 40 0 33 0;
#X connect 41 0 34 0;
#X connect 42 0 35 0;
#X connect 43 0 36 0;
#X connect 44 0 37 0;
#X connect 45 0 38 0;
#X connect 46 0 39 0;
#X connect 47 0 0 0;
#X connect 48 0 20 0;
#X connect 49 0 1 0;
#X connect 50 0 5 0;
#X connect 51 0 4 0;
#X connect 52 0 22 0;
#X connect 53 0 21 0;
#X connect 54 0 23 0;
#X connect 55 0 9 0;
#X connect 56 0 11 0;
#X connect 57 0 17 0;
#X connect 58 0 19 0;
#X connect 59 0 8 0;
#X connect 60 0 16 0;
#X connect 61 0 10 0;
#X connect 62 0 18 0;
#X connect 63 0 47 0;
#X connect 63 0 51 0;
#X connect 63 0 59 0;
#X connect 63 0 61 0;
#X connect 63 0 49 0;
#X connect 63 0 50 0;
#X connect 63 0 55 0;
#X connect 63 0 56 0;
#X connect 64 0 60 0;
#X connect 64 0 62 0;
#X connect 64 0 48 0;
#X connect 64 0 52 0;
#X connect 64 0 57 0;
#X connect 64 0 58 0;
#X connect 64 0 53 0;
#X connect 64 0 54 0;
#X connect 66 0 32 0;
#X connect 69 0 67 0;
#X connect 69 0 66 0;
#X connect 76 0 68 0;
#X connect 76 0 69 0;
#X restore 531 -31 pd 8channel;
#N canvas 868 55 462 622 5channel 0;
#X floatatom 26 83 5 0 0 0 - - -;
#X floatatom 27 154 5 0 0 0 - - -;
#X obj 26 104 s \$0-speaker1x;
#X obj 27 175 s \$0-speaker1y;
#X floatatom 124 82 5 0 0 0 - - -;
#X floatatom 126 154 5 0 0 0 - - -;
#X obj 124 103 s \$0-speaker2x;
#X obj 126 175 s \$0-speaker2y;
#X floatatom 221 81 5 0 0 0 - - -;
#X floatatom 222 152 5 0 0 0 - - -;
#X floatatom 319 80 5 0 0 0 - - -;
#X floatatom 321 152 5 0 0 0 - - -;
#X obj 221 102 s \$0-speaker3x;
#X obj 222 173 s \$0-speaker3y;
#X obj 319 101 s \$0-speaker4x;
#X obj 321 173 s \$0-speaker4y;
#X floatatom 30 254 5 0 0 0 - - -;
#X floatatom 31 325 5 0 0 0 - - -;
#X floatatom 128 253 5 0 0 0 - - -;
#X floatatom 130 325 5 0 0 0 - - -;
#X floatatom 225 252 5 0 0 0 - - -;
#X floatatom 226 323 5 0 0 0 - - -;
#X floatatom 323 251 5 0 0 0 - - -;
#X floatatom 325 323 5 0 0 0 - - -;
#X obj 30 275 s \$0-speaker5x;
#X obj 31 346 s \$0-speaker5y;
#X obj 128 274 s \$0-speaker6x;
#X obj 129 346 s \$0-speaker6y;
#X obj 225 273 s \$0-speaker7x;
#X obj 226 344 s \$0-speaker7y;
#X obj 323 272 s \$0-speaker8x;
#X obj 325 344 s \$0-speaker8y;
#X obj 19 483 s \$0-speaker1pos;
#X obj 123 483 s \$0-speaker2pos;
#X obj 229 484 s \$0-speaker3pos;
#X obj 334 484 s \$0-speaker4pos;
#X obj 20 535 s \$0-speaker5pos;
#X obj 125 535 s \$0-speaker6pos;
#X obj 231 536 s \$0-speaker7pos;
#X obj 336 536 s \$0-speaker8pos;
#X msg 31 231 50;
#X msg 128 228 0;
#X msg 225 229 0;
#X msg 323 227 0;
#X msg 129 301 0;
#X msg 225 300 0;
#X msg 325 299 0;
#X msg 125 510 pos 450 470;
#X msg 231 510 pos 450 470;
#X msg 334 512 pos 450 470;
#X msg 18 454 pos 166 262;
#X msg 122 456 pos 346 262;
#X msg 230 455 pos 257 232;
#X msg 334 456 pos 198 412;
#X msg 21 509 pos 317 412;
#X msg 27 61 57;
#X msg 26 129 210;
#X msg 125 130 210;
#X msg 124 58 236;
#X msg 221 58 147;
#X msg 222 130 240;
#X msg 319 59 88;
#X msg 321 128 60;
#X msg 30 300 206;
#X obj 26 31 r \$0-5channel;
#X obj 31 206 r \$0-5channel;
#X obj 17 423 r \$0-5channel;
#X connect 0 0 2 0;
#X connect 1 0 3 0;
#X connect 4 0 6 0;
#X connect 5 0 7 0;
#X connect 8 0 12 0;
#X connect 9 0 13 0;
#X connect 10 0 14 0;
#X connect 11 0 15 0;
#X connect 16 0 24 0;
#X connect 17 0 25 0;
#X connect 18 0 26 0;
#X connect 19 0 27 0;
#X connect 20 0 28 0;
#X connect 21 0 29 0;
#X connect 22 0 30 0;
#X connect 23 0 31 0;
#X connect 40 0 16 0;
#X connect 41 0 18 0;
#X connect 42 0 20 0;
#X connect 43 0 22 0;
#X connect 44 0 19 0;
#X connect 45 0 21 0;
#X connect 46 0 23 0;
#X connect 47 0 37 0;
#X connect 48 0 38 0;
#X connect 49 0 39 0;
#X connect 50 0 32 0;
#X connect 51 0 33 0;
#X connect 52 0 34 0;
#X connect 53 0 35 0;
#X connect 54 0 36 0;
#X connect 55 0 0 0;
#X connect 56 0 1 0;
#X connect 57 0 5 0;
#X connect 58 0 4 0;
#X connect 59 0 8 0;
#X connect 60 0 9 0;
#X connect 61 0 10 0;
#X connect 62 0 11 0;
#X connect 63 0 17 0;
#X connect 64 0 55 0;
#X connect 64 0 58 0;
#X connect 64 0 59 0;
#X connect 64 0 61 0;
#X connect 64 0 56 0;
#X connect 64 0 57 0;
#X connect 64 0 60 0;
#X connect 64 0 62 0;
#X connect 65 0 40 0;
#X connect 65 0 41 0;
#X connect 65 0 42 0;
#X connect 65 0 43 0;
#X connect 65 0 63 0;
#X connect 65 0 44 0;
#X connect 65 0 45 0;
#X connect 65 0 46 0;
#X connect 66 0 50 0;
#X connect 66 0 51 0;
#X connect 66 0 52 0;
#X connect 66 0 53 0;
#X connect 66 0 54 0;
#X connect 66 0 47 0;
#X connect 66 0 48 0;
#X connect 66 0 49 0;
#X restore 531 -10 pd 5channel;
#N canvas 823 55 462 622 4channel 0;
#X floatatom 26 83 5 0 0 0 - - -;
#X floatatom 27 154 5 0 0 0 - - -;
#X obj 26 104 s \$0-speaker1x;
#X obj 27 175 s \$0-speaker1y;
#X floatatom 124 82 5 0 0 0 - - -;
#X floatatom 126 154 5 0 0 0 - - -;
#X obj 124 103 s \$0-speaker2x;
#X obj 126 175 s \$0-speaker2y;
#X floatatom 221 81 5 0 0 0 - - -;
#X floatatom 222 152 5 0 0 0 - - -;
#X floatatom 319 80 5 0 0 0 - - -;
#X floatatom 321 152 5 0 0 0 - - -;
#X obj 221 102 s \$0-speaker3x;
#X obj 222 173 s \$0-speaker3y;
#X obj 319 101 s \$0-speaker4x;
#X obj 321 173 s \$0-speaker4y;
#X floatatom 30 254 5 0 0 0 - - -;
#X floatatom 31 325 5 0 0 0 - - -;
#X floatatom 128 253 5 0 0 0 - - -;
#X floatatom 130 325 5 0 0 0 - - -;
#X floatatom 225 252 5 0 0 0 - - -;
#X floatatom 226 323 5 0 0 0 - - -;
#X floatatom 323 251 5 0 0 0 - - -;
#X floatatom 325 323 5 0 0 0 - - -;
#X obj 30 275 s \$0-speaker5x;
#X obj 31 346 s \$0-speaker5y;
#X obj 128 274 s \$0-speaker6x;
#X obj 129 346 s \$0-speaker6y;
#X obj 225 273 s \$0-speaker7x;
#X obj 226 344 s \$0-speaker7y;
#X obj 323 272 s \$0-speaker8x;
#X obj 325 344 s \$0-speaker8y;
#X obj 19 483 s \$0-speaker1pos;
#X obj 123 483 s \$0-speaker2pos;
#X obj 229 484 s \$0-speaker3pos;
#X obj 334 484 s \$0-speaker4pos;
#X obj 20 535 s \$0-speaker5pos;
#X obj 125 535 s \$0-speaker6pos;
#X obj 231 536 s \$0-speaker7pos;
#X obj 336 536 s \$0-speaker8pos;
#X msg 128 228 0;
#X msg 225 229 0;
#X msg 323 227 0;
#X msg 129 301 0;
#X msg 225 300 0;
#X msg 325 299 0;
#X msg 125 510 pos 450 470;
#X msg 231 510 pos 450 470;
#X msg 334 512 pos 450 470;
#X msg 27 61 57;
#X msg 124 58 236;
#X msg 321 128 60;
#X obj 26 31 r \$0-4channel;
#X obj 31 206 r \$0-4channel;
#X obj 17 423 r \$0-4channel;
#X msg 31 231 0;
#X msg 30 300 0;
#X msg 21 509 pos 450 470;
#X msg 18 454 pos 166 232;
#X msg 122 456 pos 346 232;
#X msg 335 456 pos 346 412;
#X msg 230 455 pos 166 412;
#X msg 26 129 240;
#X msg 125 130 240;
#X msg 221 58 57;
#X msg 222 130 60;
#X msg 319 59 236;
#X connect 0 0 2 0;
#X connect 1 0 3 0;
#X connect 4 0 6 0;
#X connect 5 0 7 0;
#X connect 8 0 12 0;
#X connect 9 0 13 0;
#X connect 10 0 14 0;
#X connect 11 0 15 0;
#X connect 16 0 24 0;
#X connect 17 0 25 0;
#X connect 18 0 26 0;
#X connect 19 0 27 0;
#X connect 20 0 28 0;
#X connect 21 0 29 0;
#X connect 22 0 30 0;
#X connect 23 0 31 0;
#X connect 40 0 18 0;
#X connect 41 0 20 0;
#X connect 42 0 22 0;
#X connect 43 0 19 0;
#X connect 44 0 21 0;
#X connect 45 0 23 0;
#X connect 46 0 37 0;
#X connect 47 0 38 0;
#X connect 48 0 39 0;
#X connect 49 0 0 0;
#X connect 50 0 4 0;
#X connect 51 0 11 0;
#X connect 52 0 49 0;
#X connect 52 0 50 0;
#X connect 52 0 64 0;
#X connect 52 0 66 0;
#X connect 52 0 62 0;
#X connect 52 0 63 0;
#X connect 52 0 65 0;
#X connect 52 0 51 0;
#X connect 53 0 55 0;
#X connect 53 0 40 0;
#X connect 53 0 41 0;
#X connect 53 0 42 0;
#X connect 53 0 56 0;
#X connect 53 0 43 0;
#X connect 53 0 44 0;
#X connect 53 0 45 0;
#X connect 54 0 59 0;
#X connect 54 0 61 0;
#X connect 54 0 60 0;
#X connect 54 0 57 0;
#X connect 54 0 46 0;
#X connect 54 0 47 0;
#X connect 54 0 48 0;
#X connect 54 0 58 0;
#X connect 55 0 16 0;
#X connect 56 0 17 0;
#X connect 57 0 36 0;
#X connect 58 0 32 0;
#X connect 59 0 33 0;
#X connect 60 0 35 0;
#X connect 61 0 34 0;
#X connect 62 0 1 0;
#X connect 63 0 5 0;
#X connect 64 0 8 0;
#X connect 65 0 9 0;
#X connect 66 0 10 0;
#X restore 531 11 pd 4channel;
#X obj 423 219 bng 15 250 50 0 \$0-4channel empty 4_channel 19 7 0
10 -3390 -1 -1;
#X obj 802 711 lop~ 100;
#X obj 802 814 outlet~;
#X obj 424 259 tgl 15 0 \$0-subonoff \$0-justanything LFE_on/off 19
7 0 10 -64830 -1 -1 0 1;
#X obj 861 656 r \$0-subonoff;
#X floatatom 861 677 5 0 0 0 - - -;
#X obj 861 717 vline~;
#X msg 861 696 \$1 50;
#X obj 802 734 *~;
#X obj 949 656 loadbang;
#X msg 949 677 0;
#X obj 11 93 line;
#X floatatom 11 113 5 0 0 0 - - -;
#X obj 11 7 bng 15 250 50 0 empty empty empty 17 7 0 10 -262144 -1
-1;
#X obj 11 -38 tgl 15 0 empty \$0-wiggle empty 17 7 0 10 -262144 -1
-1 0 1;
#X obj 68 86 +;
#X floatatom 68 108 5 0 0 0 - - -;
#X obj 11 134 t b;
#X obj 11 -16 metro 300;
#X obj 11 49 del 150;
#X obj 760 405 jh.leap_fists;
#X msg 760 430 1;
#X msg 790 430 0;
#X obj 424 313 tgl 15 0 \$0-wiggle \$0-wiggleonoff Wiggle_on/off 19
7 0 10 -3390 -1 -1 0 1;
#X obj 760 466 s \$0-wiggleonoff;
#X obj 11 -62 r \$0-wiggle;
#X msg 11 28 40 150;
#X msg 11 73 -40 150;
#X msg -38 35 0;
#X obj -39 -22 sel 0;
#X obj -40 15 del 302;
#X obj 424 239 bng 15 250 50 0 \$0-2channel empty 2_channel 19 7 0
10 -3390 -1 -1;
#N canvas 823 55 462 622 2channel 0;
#X floatatom 26 83 5 0 0 0 - - -;
#X floatatom 27 154 5 0 0 0 - - -;
#X obj 26 104 s \$0-speaker1x;
#X obj 27 175 s \$0-speaker1y;
#X floatatom 124 82 5 0 0 0 - - -;
#X floatatom 126 154 5 0 0 0 - - -;
#X obj 124 103 s \$0-speaker2x;
#X obj 126 175 s \$0-speaker2y;
#X floatatom 221 81 5 0 0 0 - - -;
#X floatatom 222 152 5 0 0 0 - - -;
#X floatatom 319 80 5 0 0 0 - - -;
#X floatatom 321 152 5 0 0 0 - - -;
#X obj 221 102 s \$0-speaker3x;
#X obj 222 173 s \$0-speaker3y;
#X obj 319 101 s \$0-speaker4x;
#X obj 321 173 s \$0-speaker4y;
#X floatatom 30 254 5 0 0 0 - - -;
#X floatatom 31 325 5 0 0 0 - - -;
#X floatatom 128 253 5 0 0 0 - - -;
#X floatatom 130 325 5 0 0 0 - - -;
#X floatatom 225 252 5 0 0 0 - - -;
#X floatatom 226 323 5 0 0 0 - - -;
#X floatatom 323 251 5 0 0 0 - - -;
#X floatatom 325 323 5 0 0 0 - - -;
#X obj 30 275 s \$0-speaker5x;
#X obj 31 346 s \$0-speaker5y;
#X obj 128 274 s \$0-speaker6x;
#X obj 129 346 s \$0-speaker6y;
#X obj 225 273 s \$0-speaker7x;
#X obj 226 344 s \$0-speaker7y;
#X obj 323 272 s \$0-speaker8x;
#X obj 325 344 s \$0-speaker8y;
#X obj 19 483 s \$0-speaker1pos;
#X obj 123 483 s \$0-speaker2pos;
#X obj 229 484 s \$0-speaker3pos;
#X obj 334 484 s \$0-speaker4pos;
#X obj 20 535 s \$0-speaker5pos;
#X obj 125 535 s \$0-speaker6pos;
#X obj 231 536 s \$0-speaker7pos;
#X obj 336 536 s \$0-speaker8pos;
#X msg 128 228 0;
#X msg 225 229 0;
#X msg 323 227 0;
#X msg 129 301 0;
#X msg 225 300 0;
#X msg 325 299 0;
#X msg 125 510 pos 450 470;
#X msg 231 510 pos 450 470;
#X msg 334 512 pos 450 470;
#X msg 31 231 0;
#X msg 30 300 0;
#X msg 21 509 pos 450 470;
#X msg 230 455 pos 450 470;
#X msg 336 456 pos 450 470;
#X msg 18 454 pos 204 322;
#X msg 122 456 pos 309 322;
#X msg 221 58 0;
#X msg 222 130 0;
#X msg 319 59 0;
#X msg 321 128 0;
#X msg 27 61 94;
#X msg 26 129 150;
#X msg 125 130 150;
#X msg 124 59 200;
#X obj 26 31 r \$0-2channel;
#X obj 31 206 r \$0-2channel;
#X obj 17 423 r \$0-2channel;
#X connect 0 0 2 0;
#X connect 1 0 3 0;
#X connect 4 0 6 0;
#X connect 5 0 7 0;
#X connect 8 0 12 0;
#X connect 9 0 13 0;
#X connect 10 0 14 0;
#X connect 11 0 15 0;
#X connect 16 0 24 0;
#X connect 17 0 25 0;
#X connect 18 0 26 0;
#X connect 19 0 27 0;
#X connect 20 0 28 0;
#X connect 21 0 29 0;
#X connect 22 0 30 0;
#X connect 23 0 31 0;
#X connect 40 0 18 0;
#X connect 41 0 20 0;
#X connect 42 0 22 0;
#X connect 43 0 19 0;
#X connect 44 0 21 0;
#X connect 45 0 23 0;
#X connect 46 0 37 0;
#X connect 47 0 38 0;
#X connect 48 0 39 0;
#X connect 49 0 16 0;
#X connect 50 0 17 0;
#X connect 51 0 36 0;
#X connect 52 0 34 0;
#X connect 53 0 35 0;
#X connect 54 0 32 0;
#X connect 55 0 33 0;
#X connect 56 0 8 0;
#X connect 57 0 9 0;
#X connect 58 0 10 0;
#X connect 59 0 11 0;
#X connect 60 0 0 0;
#X connect 61 0 1 0;
#X connect 62 0 5 0;
#X connect 63 0 4 0;
#X connect 64 0 60 0;
#X connect 64 0 63 0;
#X connect 64 0 56 0;
#X connect 64 0 58 0;
#X connect 64 0 61 0;
#X connect 64 0 62 0;
#X connect 64 0 57 0;
#X connect 64 0 59 0;
#X connect 65 0 49 0;
#X connect 65 0 40 0;
#X connect 65 0 41 0;
#X connect 65 0 42 0;
#X connect 65 0 50 0;
#X connect 65 0 43 0;
#X connect 65 0 44 0;
#X connect 65 0 45 0;
#X connect 66 0 52 0;
#X connect 66 0 53 0;
#X connect 66 0 51 0;
#X connect 66 0 46 0;
#X connect 66 0 47 0;
#X connect 66 0 48 0;
#X connect 66 0 54 0;
#X connect 66 0 55 0;
#X restore 531 33 pd 2channel;
#X obj 114 3 expr ((($f1 + 300) / 600) * 300) \; (((($f2 + 200) * -1
+ 400) / 400) * 300);
#X msg 938 26 151;
#X msg 938 -18 147;
#X obj 424 398 jh.leap_loop;
#X obj 520 577 jh.leap_loop;
#N canvas 823 55 462 622 0channel 0;
#X obj -7 74 s \$0-speaker1pos;
#X obj 97 74 s \$0-speaker2pos;
#X obj 203 75 s \$0-speaker3pos;
#X obj 308 75 s \$0-speaker4pos;
#X obj -6 126 s \$0-speaker5pos;
#X obj 99 126 s \$0-speaker6pos;
#X obj 205 127 s \$0-speaker7pos;
#X obj 310 127 s \$0-speaker8pos;
#X msg 99 101 pos 450 470;
#X msg 205 101 pos 450 470;
#X msg 308 103 pos 450 470;
#X msg -5 100 pos 450 470;
#X msg 204 46 pos 450 470;
#X msg 310 47 pos 450 470;
#X obj -9 14 r \$0-0channel;
#X msg -8 45 pos 450 470;
#X msg 96 47 pos 450 470;
#X connect 8 0 5 0;
#X connect 9 0 6 0;
#X connect 10 0 7 0;
#X connect 11 0 4 0;
#X connect 12 0 2 0;
#X connect 13 0 3 0;
#X connect 14 0 12 0;
#X connect 14 0 13 0;
#X connect 14 0 11 0;
#X connect 14 0 8 0;
#X connect 14 0 9 0;
#X connect 14 0 10 0;
#X connect 14 0 15 0;
#X connect 14 0 16 0;
#X connect 15 0 0 0;
#X connect 16 0 1 0;
#X restore 531 56 pd 0channel;
#X obj 604 57 bng 15 250 50 0 \$0-0channel empty 0_channel 17 7 0 10
-262144 -1 -1;
#X obj 420 427 cnv 15 100 60 empty empty empty 20 12 0 14 -237440 -66577
0;
#X obj 425 391 cnv 1 1 1 empty empty Automation: 0 0 0 10 -237440 -1
0;
#X obj 718 218 unpack 0 0 0 0 0 0;
#X obj 718 195 r general;
#X floatatom 760 240 5 0 0 0 Hands: - -;
#X msg 760 292 0;
#X obj 351 -22 spigot;
#X obj 114 -21 spigot;
#X obj 384 -62 r \$0-leaponoff;
#X floatatom 384 -41 5 0 0 0 - - -;
#X obj 938 87 s \$0-leapload;
#X msg 938 67 1;
#X obj 717 113 random 300;
#X obj 786 113 random 300;
#X floatatom 717 136 5 0 0 0 - - -;
#X floatatom 788 135 5 0 0 0 - - -;
#X obj 717 67 tgl 15 0 empty empty empty 17 7 0 10 -262144 -1 -1 0
1;
#X obj 717 87 metro 1000;
#X obj 123 38 r \$0-xin;
#X obj 240 37 r \$0-yin;
#X obj 938 4 s \$0-xin;
#X obj 938 46 s \$0-yin;
#X obj 415 103 loadbang;
#X msg 937 108 1;
#X obj 937 129 s \$0-set8channel;
#X obj 717 47 r \$0-random;
#X obj 717 157 s \$0-xin;
#X obj 788 156 s \$0-yin;
#X obj 520 552 r \$0-panposy;
#X obj 520 603 s \$0-yin;
#X obj 519 531 s \$0-xin;
#X obj 521 505 r \$0-panposx;
#X obj 11 157 s \$0-xin;
#X obj 424 334 tgl 15 0 \$0-random \$0-justanything Random_on/off 19
7 0 10 -3390 -1 -1 0 1;
#X msg 793 337 0;
#X floatatom 793 360 5 0 0 0 - - -;
#X obj 793 315 del 10;
#X obj 760 265 sel 0 1 2;
#X msg 792 292 1;
#X obj 760 381 spigot;
#X obj 427 366 hsl 85 15 100 10000 1 0 \$0-randomspeed \$0-setrandomspeed
Random_Speed: -2 -8 0 10 -122174 -1 -1 4200 1;
#X floatatom 803 69 5 0 0 0 - - -;
#X obj 803 47 r \$0-randomspeed;
#X obj 937 174 s \$0-setrandomspeed;
#X msg 937 152 1000;
#X obj 427 291 hsl 85 15 0 1 0 0 \$0-lfelevel \$0-setlfelevel LFE_Level:
-2 -8 0 10 -122174 -1 -1 6720 1;
#X msg 937 196 0.8;
#X obj 937 219 s \$0-setlfelevel;
#X obj 802 789 *~;
#X obj 833 788 vline~;
#X msg 833 766 \$1 50;
#X obj 833 744 r \$0-lfelevel;
#N canvas 17 99 1262 752 customchannel 0;
#X obj 34 -212 s \$0-speaker1x;
#X obj 34 -145 s \$0-speaker1y;
#X obj 34 -257 r \$0-speaker1cusposx;
#X obj 34 -189 r \$0-speaker1cusposy;
#X obj 34 -235 - 108;
#X obj 34 -167 expr (($f1 - 173) * -1 +300);
#X obj 22 191 s \$0-speaker1pos;
#X msg 22 166 pos \$1 \$2;
#X floatatom 22 117 5 0 0 0 - - -;
#X floatatom 67 118 5 0 0 0 - - -;
#X obj 22 139 pack f f;
#X obj 104 118 t b;
#X obj 22 73 r \$0-speaker1cusposx;
#X obj 67 96 r \$0-speaker1cusposy;
#X obj 217 -235 - 108;
#X obj 217 -167 expr (($f1 - 173) * -1 +300);
#X obj 400 -235 - 108;
#X obj 400 -167 expr (($f1 - 173) * -1 +300);
#X obj 585 -237 - 108;
#X obj 585 -169 expr (($f1 - 173) * -1 +300);
#X obj 34 -94 - 108;
#X obj 34 -26 expr (($f1 - 173) * -1 +300);
#X obj 218 -95 - 108;
#X obj 218 -27 expr (($f1 - 173) * -1 +300);
#X obj 401 -95 - 108;
#X obj 401 -27 expr (($f1 - 173) * -1 +300);
#X obj 591 -95 - 108;
#X obj 591 -27 expr (($f1 - 173) * -1 +300);
#X obj 217 -257 r \$0-speaker2cusposx;
#X obj 217 -212 s \$0-speaker2x;
#X obj 217 -189 r \$0-speaker2cusposy;
#X obj 217 -145 s \$0-speaker2y;
#X obj 400 -257 r \$0-speaker3cusposx;
#X obj 400 -212 s \$0-speaker3x;
#X obj 400 -189 r \$0-speaker3cusposy;
#X obj 400 -145 s \$0-speaker3y;
#X obj 585 -191 r \$0-speaker4cusposy;
#X obj 585 -213 s \$0-speaker4x;
#X obj 585 -259 r \$0-speaker4cusposx;
#X obj 585 -147 s \$0-speaker4y;
#X obj 34 -117 r \$0-speaker5cusposx;
#X obj 34 -71 s \$0-speaker5x;
#X obj 34 -48 r \$0-speaker5cusposy;
#X obj 34 -4 s \$0-speaker5y;
#X obj 218 -72 s \$0-speaker6x;
#X obj 218 -117 r \$0-speaker6cusposx;
#X obj 218 -49 r \$0-speaker6cusposy;
#X obj 218 -4 s \$0-speaker6y;
#X obj 401 -117 r \$0-speaker7cusposx;
#X obj 401 -72 s \$0-speaker7x;
#X obj 401 -49 r \$0-speaker7cusposy;
#X obj 401 -5 s \$0-speaker7y;
#X obj 591 -117 r \$0-speaker8cusposx;
#X obj 591 -72 s \$0-speaker8x;
#X obj 591 -49 r \$0-speaker8cusposy;
#X obj 591 -5 s \$0-speaker8y;
#X obj 134 119 r \$0-speaker1cusonoff;
#X obj 134 140 sel 0 1;
#X msg 134 163 pos 450 470;
#X msg 272 167 pos \$1 \$2;
#X floatatom 272 118 5 0 0 0 - - -;
#X floatatom 317 119 5 0 0 0 - - -;
#X obj 272 140 pack f f;
#X obj 354 119 t b;
#X obj 384 141 sel 0 1;
#X msg 384 164 pos 450 470;
#X msg 520 168 pos \$1 \$2;
#X floatatom 520 119 5 0 0 0 - - -;
#X floatatom 565 120 5 0 0 0 - - -;
#X obj 520 141 pack f f;
#X obj 602 120 t b;
#X obj 632 142 sel 0 1;
#X msg 632 165 pos 450 470;
#X msg 772 170 pos \$1 \$2;
#X floatatom 772 121 5 0 0 0 - - -;
#X floatatom 817 122 5 0 0 0 - - -;
#X obj 772 143 pack f f;
#X obj 854 122 t b;
#X obj 884 144 sel 0 1;
#X msg 884 167 pos 450 470;
#X msg 23 316 pos \$1 \$2;
#X floatatom 23 267 5 0 0 0 - - -;
#X floatatom 68 268 5 0 0 0 - - -;
#X obj 23 289 pack f f;
#X obj 105 268 t b;
#X obj 135 290 sel 0 1;
#X msg 135 313 pos 450 470;
#X msg 273 317 pos \$1 \$2;
#X floatatom 273 268 5 0 0 0 - - -;
#X floatatom 318 269 5 0 0 0 - - -;
#X obj 273 290 pack f f;
#X obj 355 269 t b;
#X obj 385 291 sel 0 1;
#X msg 385 314 pos 450 470;
#X msg 521 318 pos \$1 \$2;
#X floatatom 521 269 5 0 0 0 - - -;
#X floatatom 566 270 5 0 0 0 - - -;
#X obj 521 291 pack f f;
#X obj 603 270 t b;
#X obj 633 292 sel 0 1;
#X msg 633 315 pos 450 470;
#X msg 773 320 pos \$1 \$2;
#X floatatom 773 271 5 0 0 0 - - -;
#X floatatom 818 272 5 0 0 0 - - -;
#X obj 773 293 pack f f;
#X obj 855 272 t b;
#X obj 885 294 sel 0 1;
#X msg 885 317 pos 450 470;
#X obj 272 74 r \$0-speaker2cusposx;
#X obj 317 97 r \$0-speaker2cusposy;
#X obj 384 120 r \$0-speaker2cusonoff;
#X obj 272 192 s \$0-speaker2pos;
#X obj 520 75 r \$0-speaker3cusposx;
#X obj 565 98 r \$0-speaker3cusposy;
#X obj 632 121 r \$0-speaker3cusonoff;
#X obj 520 193 s \$0-speaker3pos;
#X obj 772 77 r \$0-speaker4cusposx;
#X obj 817 100 r \$0-speaker4cusposy;
#X obj 884 123 r \$0-speaker4cusonoff;
#X obj 772 195 s \$0-speaker4pos;
#X obj 23 223 r \$0-speaker5cusposx;
#X obj 68 246 r \$0-speaker5cusposy;
#X obj 135 269 r \$0-speaker5cusonoff;
#X obj 23 341 s \$0-speaker5pos;
#X obj 273 224 r \$0-speaker6cusposx;
#X obj 318 247 r \$0-speaker6cusposy;
#X obj 385 270 r \$0-speaker6cusonoff;
#X obj 273 343 s \$0-speaker6pos;
#X obj 521 225 r \$0-speaker7cusposx;
#X obj 566 248 r \$0-speaker7cusposy;
#X obj 633 271 r \$0-speaker7cusonoff;
#X obj 521 343 s \$0-speaker7pos;
#X obj 773 227 r \$0-speaker8cusposx;
#X obj 818 250 r \$0-speaker8cusposy;
#X obj 885 273 r \$0-speaker8cusonoff;
#X obj 773 345 s \$0-speaker8pos;
#X connect 2 0 4 0;
#X connect 3 0 5 0;
#X connect 4 0 0 0;
#X connect 5 0 1 0;
#X connect 7 0 6 0;
#X connect 8 0 10 0;
#X connect 9 0 10 1;
#X connect 9 0 11 0;
#X connect 10 0 7 0;
#X connect 11 0 8 0;
#X connect 12 0 8 0;
#X connect 13 0 9 0;
#X connect 14 0 29 0;
#X connect 15 0 31 0;
#X connect 16 0 33 0;
#X connect 17 0 35 0;
#X connect 18 0 37 0;
#X connect 19 0 39 0;
#X connect 20 0 41 0;
#X connect 21 0 43 0;
#X connect 22 0 44 0;
#X connect 23 0 47 0;
#X connect 24 0 49 0;
#X connect 25 0 51 0;
#X connect 26 0 53 0;
#X connect 27 0 55 0;
#X connect 28 0 14 0;
#X connect 30 0 15 0;
#X connect 32 0 16 0;
#X connect 34 0 17 0;
#X connect 36 0 19 0;
#X connect 38 0 18 0;
#X connect 40 0 20 0;
#X connect 42 0 21 0;
#X connect 45 0 22 0;
#X connect 46 0 23 0;
#X connect 48 0 24 0;
#X connect 50 0 25 0;
#X connect 52 0 26 0;
#X connect 54 0 27 0;
#X connect 56 0 57 0;
#X connect 57 0 58 0;
#X connect 57 1 8 0;
#X connect 57 1 9 0;
#X connect 58 0 6 0;
#X connect 59 0 111 0;
#X connect 60 0 62 0;
#X connect 61 0 62 1;
#X connect 61 0 63 0;
#X connect 62 0 59 0;
#X connect 63 0 60 0;
#X connect 64 0 65 0;
#X connect 64 1 60 0;
#X connect 64 1 61 0;
#X connect 65 0 111 0;
#X connect 66 0 115 0;
#X connect 67 0 69 0;
#X connect 68 0 69 1;
#X connect 68 0 70 0;
#X connect 69 0 66 0;
#X connect 70 0 67 0;
#X connect 71 0 72 0;
#X connect 71 1 67 0;
#X connect 71 1 68 0;
#X connect 72 0 115 0;
#X connect 73 0 119 0;
#X connect 74 0 76 0;
#X connect 75 0 76 1;
#X connect 75 0 77 0;
#X connect 76 0 73 0;
#X connect 77 0 74 0;
#X connect 78 0 79 0;
#X connect 78 1 74 0;
#X connect 78 1 75 0;
#X connect 79 0 119 0;
#X connect 80 0 123 0;
#X connect 81 0 83 0;
#X connect 82 0 83 1;
#X connect 82 0 84 0;
#X connect 83 0 80 0;
#X connect 84 0 81 0;
#X connect 85 0 86 0;
#X connect 85 1 81 0;
#X connect 85 1 82 0;
#X connect 86 0 123 0;
#X connect 87 0 127 0;
#X connect 88 0 90 0;
#X connect 89 0 90 1;
#X connect 89 0 91 0;
#X connect 90 0 87 0;
#X connect 91 0 88 0;
#X connect 92 0 93 0;
#X connect 92 1 88 0;
#X connect 92 1 89 0;
#X connect 93 0 127 0;
#X connect 94 0 131 0;
#X connect 95 0 97 0;
#X connect 96 0 97 1;
#X connect 96 0 98 0;
#X connect 97 0 94 0;
#X connect 98 0 95 0;
#X connect 99 0 100 0;
#X connect 99 1 95 0;
#X connect 99 1 96 0;
#X connect 100 0 131 0;
#X connect 101 0 135 0;
#X connect 102 0 104 0;
#X connect 103 0 104 1;
#X connect 103 0 105 0;
#X connect 104 0 101 0;
#X connect 105 0 102 0;
#X connect 106 0 107 0;
#X connect 106 1 102 0;
#X connect 106 1 103 0;
#X connect 107 0 135 0;
#X connect 108 0 60 0;
#X connect 109 0 61 0;
#X connect 110 0 64 0;
#X connect 112 0 67 0;
#X connect 113 0 68 0;
#X connect 114 0 71 0;
#X connect 116 0 74 0;
#X connect 117 0 75 0;
#X connect 118 0 78 0;
#X connect 120 0 81 0;
#X connect 121 0 82 0;
#X connect 122 0 85 0;
#X connect 124 0 88 0;
#X connect 125 0 89 0;
#X connect 126 0 92 0;
#X connect 128 0 95 0;
#X connect 129 0 96 0;
#X connect 130 0 99 0;
#X connect 132 0 102 0;
#X connect 133 0 103 0;
#X connect 134 0 106 0;
#X restore 531 80 pd customchannel;
#X obj 540 188 hsl 85 9 115 399 0 0 \$0-speaker1cusposx \$0-setspeaker1cusposx
x: -17 4 0 9 -3390 -1 -1 0 1;
#X obj 540 199 hsl 85 9 180 464 0 0 \$0-speaker1cusposy \$0-setspeaker1cusposy
y: -17 4 0 9 -3390 -1 -1 0 1;
#X obj 618 177 tgl 9 0 \$0-speaker1cusonoff \$0-setspeaker1cusonoff
Speaker_1: -96 4 0 9 -3390 -1 -1 0 1;
#X obj 540 222 hsl 85 9 115 399 0 0 \$0-speaker2cusposx \$0-setspeaker2cusposx
x: -17 4 0 9 -3390 -1 -1 0 1;
#X obj 540 233 hsl 85 9 180 464 0 0 \$0-speaker2cusposy \$0-setspeaker2cusposy
y: -17 4 0 9 -3390 -1 -1 0 1;
#X obj 618 211 tgl 9 0 \$0-speaker2cusonoff \$0-setspeaker2cusonoff
Speaker_2: -96 4 0 9 -3390 -1 -1 0 1;
#X obj 540 256 hsl 85 9 115 399 0 0 \$0-speaker3cusposx \$0-setspeaker3cusposx
x: -17 4 0 9 -3390 -1 -1 0 1;
#X obj 540 267 hsl 85 9 180 464 0 0 \$0-speaker3cusposy \$0-setspeaker3cusposy
y: -17 4 0 9 -3390 -1 -1 0 1;
#X obj 618 245 tgl 9 0 \$0-speaker3cusonoff \$0-setspeaker3cusonoff
Speaker_3: -96 4 0 9 -3390 -1 -1 0 1;
#X obj 540 290 hsl 85 9 115 399 0 0 \$0-speaker4cusposx \$0-setspeaker4cusposx
x: -17 4 0 9 -3390 -1 -1 0 1;
#X obj 540 301 hsl 85 9 180 464 0 0 \$0-speaker4cusposy \$0-setspeaker4cusposy
y: -17 4 0 9 -3390 -1 -1 0 1;
#X obj 618 279 tgl 9 0 \$0-speaker4cusonoff \$0-setspeaker4cusonoff
Speaker_4: -96 4 0 9 -3390 -1 -1 0 1;
#X obj 540 324 hsl 85 9 115 399 0 0 \$0-speaker5cusposx \$0-setspeaker5cusposx
x: -17 4 0 9 -3390 -1 -1 0 1;
#X obj 540 335 hsl 85 9 180 464 0 0 \$0-speaker5cusposy \$0-setspeaker5cusposy
y: -17 4 0 9 -3390 -1 -1 0 1;
#X obj 618 313 tgl 9 0 \$0-speaker5cusonoff \$0-setspeaker5cusonoff
Speaker_5: -96 4 0 9 -3390 -1 -1 0 1;
#X obj 540 358 hsl 85 9 115 399 0 0 \$0-speaker6cusposx \$0-setspeaker6cusposx
x: -17 4 0 9 -3390 -1 -1 0 1;
#X obj 540 369 hsl 85 9 180 464 0 0 \$0-speaker6cusposy \$0-setspeaker6cusposy
y: -17 4 0 9 -3390 -1 -1 0 1;
#X obj 618 347 tgl 9 0 \$0-speaker6cusonoff \$0-setspeaker6cusonoff
Speaker_6: -96 4 0 9 -3390 -1 -1 0 1;
#X obj 540 392 hsl 85 9 115 399 0 0 \$0-speaker7cusposx \$0-setspeaker7cusposx
x: -17 4 0 9 -3390 -1 -1 0 1;
#X obj 540 403 hsl 85 9 180 464 0 0 \$0-speaker7cusposy \$0-setspeaker7cusposy
y: -17 4 0 9 -3390 -1 -1 0 1;
#X obj 618 381 tgl 9 0 \$0-speaker7cusonoff \$0-setspeaker7cusonoff
Speaker_7: -96 4 0 9 -3390 -1 -1 0 1;
#X obj 540 426 hsl 85 9 115 399 0 0 \$0-speaker8cusposx \$0-setspeaker8cusposx
x: -17 4 0 9 -3390 -1 -1 0 1;
#X obj 540 437 hsl 85 9 180 464 0 0 \$0-speaker8cusposy \$0-setspeaker8cusposy
y: -17 4 0 9 -3390 -1 -1 0 1;
#X obj 618 415 tgl 9 0 \$0-speaker8cusonoff \$0-setspeaker8cusonoff
Speaker_8: -96 4 0 9 -3390 -1 -1 0 1;
#X obj 421 464 tgl 15 0 \$0-leaponoff \$0-leapload Leap_on/off 19 7
0 10 -3390 -1 -1 1 1;
#X connect 3 0 10 0;
#X connect 3 1 9 0;
#X connect 4 0 102 0;
#X connect 4 2 101 0;
#X connect 5 0 70 0;
#X connect 6 0 7 1;
#X connect 6 0 8 0;
#X connect 7 0 11 0;
#X connect 8 0 5 0;
#X connect 9 0 16 0;
#X connect 10 0 15 0;
#X connect 11 0 3 0;
#X connect 12 0 3 0;
#X connect 13 0 90 0;
#X connect 13 0 89 0;
#X connect 13 0 106 0;
#X connect 13 0 118 0;
#X connect 13 0 139 0;
#X connect 13 0 141 0;
#X connect 17 0 29 0;
#X connect 17 0 31 0;
#X connect 17 0 33 0;
#X connect 17 0 35 0;
#X connect 17 0 37 0;
#X connect 17 0 39 0;
#X connect 17 0 41 0;
#X connect 17 0 19 0;
#X connect 17 0 56 0;
#X connect 19 0 18 0;
#X connect 20 0 29 1;
#X connect 21 0 31 1;
#X connect 22 0 33 1;
#X connect 23 0 35 1;
#X connect 24 0 37 1;
#X connect 25 0 39 1;
#X connect 26 0 41 1;
#X connect 27 0 19 1;
#X connect 29 0 28 0;
#X connect 31 0 30 0;
#X connect 33 0 32 0;
#X connect 35 0 34 0;
#X connect 37 0 36 0;
#X connect 39 0 38 0;
#X connect 41 0 40 0;
#X connect 56 0 63 0;
#X connect 59 0 60 0;
#X connect 60 0 62 0;
#X connect 61 0 63 1;
#X connect 62 0 61 0;
#X connect 63 0 143 0;
#X connect 64 0 65 0;
#X connect 65 0 60 0;
#X connect 66 0 67 0;
#X connect 67 0 70 1;
#X connect 67 0 72 0;
#X connect 68 0 81 0;
#X connect 68 0 74 0;
#X connect 69 0 73 0;
#X connect 69 0 84 0;
#X connect 70 0 71 0;
#X connect 71 0 7 0;
#X connect 72 0 127 0;
#X connect 73 0 68 0;
#X connect 74 0 82 0;
#X connect 75 0 76 0;
#X connect 75 1 77 0;
#X connect 76 0 79 0;
#X connect 77 0 79 0;
#X connect 80 0 69 0;
#X connect 81 0 66 0;
#X connect 82 0 66 0;
#X connect 83 0 67 0;
#X connect 84 0 85 0;
#X connect 85 0 83 0;
#X connect 88 0 5 0;
#X connect 88 1 6 0;
#X connect 89 0 116 0;
#X connect 90 0 115 0;
#X connect 91 0 125 0;
#X connect 91 1 92 1;
#X connect 91 2 92 2;
#X connect 92 0 124 0;
#X connect 97 2 99 0;
#X connect 98 0 97 0;
#X connect 99 0 132 0;
#X connect 100 0 134 0;
#X connect 101 0 88 1;
#X connect 102 0 88 0;
#X connect 103 0 104 0;
#X connect 104 0 101 1;
#X connect 104 0 102 1;
#X connect 106 0 105 0;
#X connect 107 0 109 0;
#X connect 108 0 110 0;
#X connect 109 0 121 0;
#X connect 110 0 122 0;
#X connect 111 0 112 0;
#X connect 112 0 107 0;
#X connect 112 0 108 0;
#X connect 113 0 5 0;
#X connect 114 0 6 0;
#X connect 117 0 12 0;
#X connect 118 0 119 0;
#X connect 120 0 111 0;
#X connect 123 0 92 0;
#X connect 126 0 91 0;
#X connect 129 0 130 0;
#X connect 130 0 134 1;
#X connect 131 0 129 0;
#X connect 132 0 100 0;
#X connect 132 0 131 0;
#X connect 132 1 133 0;
#X connect 132 2 133 0;
#X connect 133 0 130 0;
#X connect 134 0 79 0;
#X connect 136 0 112 1;
#X connect 137 0 136 0;
#X connect 139 0 138 0;
#X connect 141 0 142 0;
#X connect 143 0 57 0;
#X connect 144 0 143 1;
#X connect 145 0 144 0;
#X connect 146 0 145 0;
#X coords 0 -1 1 1 537 345 1 100 150;
