#N canvas 437 510 1199 736 10;
#X declare -path utilities;
#X obj 495 93 freeverb~;
#X obj 9 1 declare -path utilities;
#X obj 158 1 jh.leap_check;
#X obj 641 150 jh.leap_distance;
#X obj 496 152 jh.leap_fists;
#X obj 546 47 inlet~;
#X obj 495 47 inlet~;
#X obj 495 116 outlet~;
#X obj 546 116 outlet~;
#X msg 116 423 roomsize \$1;
#X floatatom 641 175 5 0 0 0 - - -;
#X obj 641 198 / 600;
#X msg 496 179 1;
#X msg 547 179 0;
#X obj 496 204 tgl 15 0 empty empty empty 17 7 0 10 -262144 -1 -1 0
1;
#X obj 497 354 jh.leap_hand 0;
#X obj 656 354 jh.leap_hand 1;
#X floatatom 537 376 5 0 0 0 - - -;
#X floatatom 696 378 5 0 0 0 - - -;
#X floatatom 537 487 5 0 0 0 - - -;
#X floatatom 654 489 5 0 0 0 - - -;
#X msg 233 508 dry \$1;
#X msg 116 506 wet \$1;
#X obj 537 401 expr (($f1 + $f2) / 2 - 40);
#X obj 537 449 expr $f1 / 300 \; ($f1 / 300) * -1 + 1;
#X floatatom 757 379 5 0 0 0 - - -;
#X floatatom 970 380 5 0 0 0 - - -;
#X msg 324 422 damping \$1;
#X obj 757 400 expr ((($f1 + $f2) / 2 + 200) / 400);
#X obj 102 102 cnv 15 250 194 empty empty Reverb 20 12 0 14 -125751
-66577 0;
#X obj 106 106 cnv 15 242 185 empty empty Reverb 3 10 0 16 -241536
-66577 0;
#X obj 495 68 r \$0-param;
#X obj 117 447 s \$0-param;
#X obj 116 527 s \$0-param;
#X obj 233 530 s \$0-param;
#X obj 324 444 s \$0-param;
#X obj 964 84 loadbang;
#X obj 112 143 hsl 100 15 0 1.2 0 0 \$0-roomsizeout \$0-roomsize Room_Size:
-2 -8 0 10 -122174 -1 -1 5775 1;
#X floatatom 219 143 5 0 0 0 - #0-roomsizeout -;
#X obj 117 398 r \$0-roomsizeout;
#X obj 363 108 r \$0-roomsizeout;
#X obj 363 131 s \$0-roomsize;
#X obj 641 287 s \$0-roomsize;
#X obj 641 264 spigot;
#X floatatom 674 243 5 0 0 0 - - -;
#X obj 674 220 r \$0-leaponoff;
#X obj 496 266 spigot;
#X floatatom 529 245 5 0 0 0 - - -;
#X obj 529 222 r \$0-leaponoff;
#X msg 226 422 freeze \$1;
#X obj 226 447 s \$0-param;
#X obj 496 289 s \$0-freeze;
#X obj 226 399 r \$0-freezeout;
#X obj 324 400 r \$0-dampingout;
#X obj 796 471 spigot;
#X floatatom 829 450 5 0 0 0 - - -;
#X obj 829 427 r \$0-leaponoff;
#X obj 796 495 s \$0-damping;
#X obj 112 175 hsl 100 15 0 1 0 0 \$0-dampingout \$0-damping Damping:
-2 -8 0 10 -122174 -1 -1 1980 1;
#X floatatom 219 175 5 0 0 0 - #0-dampingout -;
#X obj 364 150 r \$0-dampingout;
#X obj 364 169 s \$0-damping;
#X obj 286 127 tgl 10 0 \$0-rec \$0-recoff empty -29 -8 0 10 -64830
-1 -1 0 1;
#X obj 330 127 tgl 10 0 \$0-loop \$0-loopoff empty -30 5 0 10 -64830
-1 -1 0 1;
#X obj 325 536 r \$0-rec;
#X obj 416 535 r \$0-loop;
#X obj 325 559 sel 1;
#X obj 416 558 sel 1;
#X msg 325 580 0;
#X msg 416 579 0;
#X obj 325 604 s \$0-loopoff;
#X obj 416 604 s \$0-recoff;
#X obj 112 207 hsl 100 15 0 1 0 0 \$0-dryout \$0-dry Dry: -2 -8 0 10
-122174 -1 -1 5940 1;
#X floatatom 219 207 5 0 0 0 - #0-dryout -;
#X obj 112 239 hsl 100 15 0 1 0 0 \$0-wetout \$0-wet Wet: -2 -8 0 10
-122174 -1 -1 3960 1;
#X floatatom 219 239 5 0 0 0 - #0-wetout -;
#X obj 363 189 r \$0-dryout;
#X obj 363 209 s \$0-dry;
#X obj 364 228 r \$0-wetout;
#X obj 364 247 s \$0-wet;
#X obj 115 476 r \$0-wetout;
#X obj 231 481 r \$0-dryout;
#X obj 654 577 s \$0-dry;
#X obj 654 554 spigot;
#X floatatom 687 533 5 0 0 0 - - -;
#X obj 687 510 r \$0-leaponoff;
#X obj 537 552 spigot;
#X floatatom 570 531 5 0 0 0 - - -;
#X obj 570 508 r \$0-leaponoff;
#X obj 537 575 s \$0-wet;
#X obj 365 270 r \$0-freezeout;
#X obj 365 289 s \$0-freeze;
#X obj 234 269 tgl 15 0 \$0-freezeout \$0-freeze Freeze: -43 7 0 10
-122174 -1 -1 0 1;
#X msg 776 257 0.7;
#X obj 776 235 loadbang;
#X msg 901 474 0.2;
#X obj 901 451 loadbang;
#X msg 730 553 0.6;
#X obj 730 532 loadbang;
#X obj 610 532 loadbang;
#X msg 611 555 0.4;
#X obj 330 109 tgl 10 0 \$0-leaponoff \$0-leapload Leap_on/off: -72
5 0 10 -3390 -1 -1 1 1;
#X obj 964 127 s \$0-leapload;
#X msg 964 105 1;
#X obj 757 423 clip 0 1;
#X obj 537 425 clip 0 300;
#X obj 257 174 jh.leap_loop;
#X obj 257 142 jh.leap_loop;
#X obj 257 238 jh.leap_loop;
#X obj 257 206 jh.leap_loop;
#X obj 257 268 jh.leap_loop;
#X connect 0 0 7 0;
#X connect 0 1 8 0;
#X connect 3 0 10 0;
#X connect 4 0 12 0;
#X connect 4 1 13 0;
#X connect 4 2 12 0;
#X connect 4 3 13 0;
#X connect 5 0 0 1;
#X connect 6 0 0 0;
#X connect 9 0 32 0;
#X connect 10 0 11 0;
#X connect 11 0 43 0;
#X connect 12 0 14 0;
#X connect 13 0 14 0;
#X connect 14 0 46 0;
#X connect 15 1 17 0;
#X connect 15 2 25 0;
#X connect 16 1 18 0;
#X connect 16 2 26 0;
#X connect 17 0 23 0;
#X connect 18 0 23 1;
#X connect 19 0 86 0;
#X connect 20 0 83 0;
#X connect 21 0 34 0;
#X connect 22 0 33 0;
#X connect 23 0 105 0;
#X connect 24 0 19 0;
#X connect 24 1 20 0;
#X connect 25 0 28 0;
#X connect 26 0 28 1;
#X connect 27 0 35 0;
#X connect 28 0 104 0;
#X connect 31 0 0 0;
#X connect 36 0 103 0;
#X connect 39 0 9 0;
#X connect 40 0 107 0;
#X connect 43 0 42 0;
#X connect 44 0 43 1;
#X connect 45 0 44 0;
#X connect 46 0 51 0;
#X connect 47 0 46 1;
#X connect 48 0 47 0;
#X connect 49 0 50 0;
#X connect 52 0 49 0;
#X connect 53 0 27 0;
#X connect 54 0 57 0;
#X connect 55 0 54 1;
#X connect 56 0 55 0;
#X connect 60 0 106 0;
#X connect 62 0 106 1;
#X connect 62 0 107 1;
#X connect 62 0 108 1;
#X connect 62 0 109 1;
#X connect 62 0 110 1;
#X connect 63 0 106 2;
#X connect 63 0 107 2;
#X connect 63 0 108 2;
#X connect 63 0 109 2;
#X connect 63 0 110 2;
#X connect 64 0 66 0;
#X connect 65 0 67 0;
#X connect 66 0 68 0;
#X connect 67 0 69 0;
#X connect 68 0 70 0;
#X connect 69 0 71 0;
#X connect 76 0 109 0;
#X connect 78 0 108 0;
#X connect 80 0 22 0;
#X connect 81 0 21 0;
#X connect 83 0 82 0;
#X connect 84 0 83 1;
#X connect 85 0 84 0;
#X connect 86 0 89 0;
#X connect 87 0 86 1;
#X connect 88 0 87 0;
#X connect 90 0 110 0;
#X connect 93 0 42 0;
#X connect 94 0 93 0;
#X connect 95 0 57 0;
#X connect 96 0 95 0;
#X connect 97 0 82 0;
#X connect 98 0 97 0;
#X connect 99 0 100 0;
#X connect 100 0 89 0;
#X connect 103 0 102 0;
#X connect 104 0 54 0;
#X connect 105 0 24 0;
#X connect 106 0 61 0;
#X connect 107 0 41 0;
#X connect 108 0 79 0;
#X connect 109 0 77 0;
#X connect 110 0 91 0;
#X coords 0 -1 1 1 254 198 1 100 100;
