#N canvas 307 77 904 548 10;
#X declare -path utilities;
#X obj -1 -20 cnv 15 900 40 empty empty Patch_name 3 12 0 18 -60087
-262144 0;
#X obj 558 156 cnv 3 340 3 empty \$0-pddp.cnv.outlets outlets 8 12
0 13 -191999 -33293 0;
#X obj 569 184 cnv 17 3 17 empty \$0-pddp.cnv.let.0 0 5 9 0 16 -228856
-162280 0;
#X obj 570 217 cnv 17 3 17 empty \$0-pddp.cnv.let.1 1 5 9 0 16 -228856
-162280 0;
#X obj 570 249 cnv 17 3 17 empty \$0-pddp.cnv.let.2 2 5 9 0 16 -228856
-162280 0;
#X obj -2 501 cnv 15 900 21 empty \$0-pddp.cnv.footer empty 20 12 0
14 -191999 -66577 0;
#X obj 786 -10 jh.leap_main2;
#X obj 755 504 declare -path utilities;
#X obj 558 21 cnv 3 3 500 empty \$0-pddp.cnv.inlets inlets 8 12 0 13
-196096 -33294 0;
#X text 651 183 - Outlet description;
#X text 651 216 - Outlet description;
#X text 654 249 - Outlet description;
#X obj 569 50 cnv 17 3 17 empty \$0-pddp.cnv.let.0 0 5 9 0 16 -228856
-162280 0;
#X obj 570 83 cnv 17 3 17 empty \$0-pddp.cnv.let.1 1 5 9 0 16 -228856
-162280 0;
#X obj 570 115 cnv 17 3 17 empty \$0-pddp.cnv.let.2 2 5 9 0 16 -228856
-162280 0;
#X text 651 49 - Inlet description;
#X text 651 82 - Inlet description;
#X text 654 115 - Inlet description;
#X text 589 49 Data type;
#X text 590 84 Data type;
#X text 591 115 Data type;
#X text 589 183 Data type;
#X text 590 218 Data type;
#X text 591 249 Data type;
#X obj 558 286 cnv 3 340 3 empty \$0-pddp.cnv.outlets arguments 8 12
0 13 -191999 -33293 0;
#X text 568 364 2) Data Type;
#X text 585 335 (Required/Optional) Description of argument;
#X text 569 313 1) Data Type:;
#X text 584 387 (Required/Optional) Description of argument;
#X obj 558 420 cnv 3 340 3 empty \$0-pddp.cnv.outlets notes 8 12 0
13 -191999 -33293 0;
#X obj 33 111 cnv 15 250 300 empty empty Patch 20 22 0 14 -101111 -262144
0;
#X text 330 133 Description of patch;
#X obj 486 30 pddp/dsp;
#X text 572 453 Any notes about patch;
