#N canvas 206 135 1402 1106 10;
#X declare -path utilities;
#X obj 846 -50 declare -path utilities;
#X obj 102 152 cnv 15 542 340 empty empty Reverb 20 12 0 14 -125751
-66577 0;
#X obj 106 156 cnv 15 534 332 empty empty Surround_Panner 3 10 0 16
-241536 -66577 0;
#X obj 114 179 grid grid1 300 0 299 300 0 299 1 1 1 10 10 428 448;
#X obj 114 -64 jh.leap_hand 0;
#X floatatom 114 64 5 0 0 0 - - -;
#X floatatom 351 67 5 0 0 0 - - -;
#X obj 114 88 pack f f;
#X msg 351 88 bang;
#X floatatom 407 501 5 0 0 0 - - -;
#X floatatom 114 501 5 0 0 0 - - -;
#X msg 114 110 values \$1 \$2;
#X obj 1088 -49 loadbang;
#X obj 846 -29 jh.leap_check;
#X obj 114 525 s \$0-panposx;
#X obj 407 523 s \$0-panposy;
#X obj 380 553 inlet~;
#X obj 696 749 outlet~;
#X obj 696 615 *~;
#N canvas 902 88 485 558 speaker1 0;
#X obj 62 145 *;
#X obj 115 75 r \$0-panposx;
#X obj 242 74 r \$0-panposy;
#X obj 197 143 *;
#X obj 197 166 t b;
#X floatatom 62 166 5 0 0 0 - - -;
#X obj 62 190 +;
#X obj 62 212 sqrt;
#X floatatom 63 236 5 0 0 0 - - -;
#X floatatom 62 97 5 0 0 0 - - -;
#X floatatom 197 96 5 0 0 0 - - -;
#X obj 115 96 t b;
#X obj 242 95 t b;
#X obj 62 119 -;
#X obj 197 116 -;
#X obj 63 258 / 300;
#X obj 63 283 * -1;
#X obj 63 305 + 0.5;
#X floatatom 102 350 5 0 0 0 - - -;
#X obj 63 328 moses 0;
#X obj 102 372 * 2;
#X floatatom 102 396 5 0 0 0 - - -;
#X obj 102 440 vline~;
#X msg 102 418 \$1 50;
#X obj 102 462 outlet~;
#X obj 62 54 r \$0-speaker1x;
#X obj 197 53 r \$0-speaker1y;
#X connect 0 0 5 0;
#X connect 1 0 11 0;
#X connect 1 0 13 1;
#X connect 2 0 12 0;
#X connect 2 0 14 1;
#X connect 3 0 4 0;
#X connect 3 0 6 1;
#X connect 4 0 5 0;
#X connect 5 0 6 0;
#X connect 6 0 7 0;
#X connect 7 0 8 0;
#X connect 8 0 15 0;
#X connect 9 0 13 0;
#X connect 10 0 14 0;
#X connect 11 0 9 0;
#X connect 12 0 10 0;
#X connect 13 0 0 0;
#X connect 13 0 0 1;
#X connect 14 0 3 0;
#X connect 14 0 3 1;
#X connect 15 0 16 0;
#X connect 16 0 17 0;
#X connect 17 0 19 0;
#X connect 18 0 20 0;
#X connect 19 1 18 0;
#X connect 20 0 21 0;
#X connect 21 0 23 0;
#X connect 22 0 24 0;
#X connect 23 0 22 0;
#X connect 25 0 9 0;
#X connect 26 0 10 0;
#X restore 67 593 pd speaker1;
#N canvas 397 73 796 693 speaker2 0;
#X obj 52 135 *;
#X obj 105 65 r \$0-panposx;
#X obj 232 64 r \$0-panposy;
#X obj 187 133 *;
#X obj 187 156 t b;
#X floatatom 52 156 5 0 0 0 - - -;
#X obj 52 180 +;
#X obj 52 202 sqrt;
#X floatatom 53 226 5 0 0 0 - - -;
#X floatatom 52 87 5 0 0 0 - - -;
#X floatatom 187 86 5 0 0 0 - - -;
#X obj 105 86 t b;
#X obj 232 85 t b;
#X obj 52 109 -;
#X obj 187 106 -;
#X obj 52 44 r \$0-speaker2x;
#X obj 187 43 r \$0-speaker2y;
#X obj 53 248 / 300;
#X obj 53 273 * -1;
#X obj 53 295 + 0.5;
#X floatatom 92 340 5 0 0 0 - - -;
#X obj 53 318 moses 0;
#X obj 92 362 * 2;
#X floatatom 92 386 5 0 0 0 - - -;
#X obj 92 430 vline~;
#X msg 92 408 \$1 50;
#X obj 92 452 outlet~;
#X connect 0 0 5 0;
#X connect 1 0 11 0;
#X connect 1 0 13 1;
#X connect 2 0 12 0;
#X connect 2 0 14 1;
#X connect 3 0 4 0;
#X connect 3 0 6 1;
#X connect 4 0 5 0;
#X connect 5 0 6 0;
#X connect 6 0 7 0;
#X connect 7 0 8 0;
#X connect 8 0 17 0;
#X connect 9 0 13 0;
#X connect 10 0 14 0;
#X connect 11 0 9 0;
#X connect 12 0 10 0;
#X connect 13 0 0 0;
#X connect 13 0 0 1;
#X connect 14 0 3 0;
#X connect 14 0 3 1;
#X connect 15 0 9 0;
#X connect 16 0 10 0;
#X connect 17 0 18 0;
#X connect 18 0 19 0;
#X connect 19 0 21 0;
#X connect 20 0 22 0;
#X connect 21 1 20 0;
#X connect 22 0 23 0;
#X connect 23 0 25 0;
#X connect 24 0 26 0;
#X connect 25 0 24 0;
#X restore 161 593 pd speaker2;
#N canvas 541 91 450 300 speaker3 0;
#X obj 72 155 *;
#X obj 125 85 r \$0-panposx;
#X obj 252 84 r \$0-panposy;
#X obj 207 153 *;
#X obj 207 176 t b;
#X floatatom 72 176 5 0 0 0 - - -;
#X obj 72 200 +;
#X obj 72 222 sqrt;
#X floatatom 73 246 5 0 0 0 - - -;
#X floatatom 72 107 5 0 0 0 - - -;
#X floatatom 207 106 5 0 0 0 - - -;
#X obj 125 106 t b;
#X obj 252 105 t b;
#X obj 72 129 -;
#X obj 207 126 -;
#X obj 73 268 / 300;
#X obj 73 293 * -1;
#X obj 73 315 + 0.5;
#X floatatom 112 360 5 0 0 0 - - -;
#X obj 73 338 moses 0;
#X obj 112 382 * 2;
#X floatatom 112 406 5 0 0 0 - - -;
#X obj 112 450 vline~;
#X msg 112 428 \$1 50;
#X obj 112 472 outlet~;
#X obj 72 64 r \$0-speaker3x;
#X obj 207 63 r \$0-speaker3y;
#X connect 0 0 5 0;
#X connect 1 0 11 0;
#X connect 1 0 13 1;
#X connect 2 0 12 0;
#X connect 2 0 14 1;
#X connect 3 0 4 0;
#X connect 3 0 6 1;
#X connect 4 0 5 0;
#X connect 5 0 6 0;
#X connect 6 0 7 0;
#X connect 7 0 8 0;
#X connect 8 0 15 0;
#X connect 9 0 13 0;
#X connect 10 0 14 0;
#X connect 11 0 9 0;
#X connect 12 0 10 0;
#X connect 13 0 0 0;
#X connect 13 0 0 1;
#X connect 14 0 3 0;
#X connect 14 0 3 1;
#X connect 15 0 16 0;
#X connect 16 0 17 0;
#X connect 17 0 19 0;
#X connect 18 0 20 0;
#X connect 19 1 18 0;
#X connect 20 0 21 0;
#X connect 21 0 23 0;
#X connect 22 0 24 0;
#X connect 23 0 22 0;
#X connect 25 0 9 0;
#X connect 26 0 10 0;
#X restore 253 593 pd speaker3;
#N canvas 334 126 450 300 speaker4 0;
#X obj 82 165 *;
#X obj 135 95 r \$0-panposx;
#X obj 262 94 r \$0-panposy;
#X obj 217 163 *;
#X obj 217 186 t b;
#X floatatom 82 186 5 0 0 0 - - -;
#X obj 82 210 +;
#X obj 82 232 sqrt;
#X floatatom 83 256 5 0 0 0 - - -;
#X floatatom 82 117 5 0 0 0 - - -;
#X floatatom 217 116 5 0 0 0 - - -;
#X obj 135 116 t b;
#X obj 262 115 t b;
#X obj 82 139 -;
#X obj 217 136 -;
#X obj 83 278 / 300;
#X obj 83 303 * -1;
#X obj 83 325 + 0.5;
#X floatatom 122 370 5 0 0 0 - - -;
#X obj 83 348 moses 0;
#X obj 122 392 * 2;
#X floatatom 122 416 5 0 0 0 - - -;
#X obj 122 460 vline~;
#X msg 122 438 \$1 50;
#X obj 122 482 outlet~;
#X obj 82 74 r \$0-speaker4x;
#X obj 217 73 r \$0-speaker4y;
#X connect 0 0 5 0;
#X connect 1 0 11 0;
#X connect 1 0 13 1;
#X connect 2 0 12 0;
#X connect 2 0 14 1;
#X connect 3 0 4 0;
#X connect 3 0 6 1;
#X connect 4 0 5 0;
#X connect 5 0 6 0;
#X connect 6 0 7 0;
#X connect 7 0 8 0;
#X connect 8 0 15 0;
#X connect 9 0 13 0;
#X connect 10 0 14 0;
#X connect 11 0 9 0;
#X connect 12 0 10 0;
#X connect 13 0 0 0;
#X connect 13 0 0 1;
#X connect 14 0 3 0;
#X connect 14 0 3 1;
#X connect 15 0 16 0;
#X connect 16 0 17 0;
#X connect 17 0 19 0;
#X connect 18 0 20 0;
#X connect 19 1 18 0;
#X connect 20 0 21 0;
#X connect 21 0 23 0;
#X connect 22 0 24 0;
#X connect 23 0 22 0;
#X connect 25 0 9 0;
#X connect 26 0 10 0;
#X restore 347 593 pd speaker4;
#N canvas 565 355 450 300 speaker5 0;
#X obj 102 185 *;
#X obj 155 115 r \$0-panposx;
#X obj 282 114 r \$0-panposy;
#X obj 237 183 *;
#X obj 237 206 t b;
#X floatatom 102 206 5 0 0 0 - - -;
#X obj 102 230 +;
#X obj 102 252 sqrt;
#X floatatom 103 276 5 0 0 0 - - -;
#X floatatom 102 137 5 0 0 0 - - -;
#X floatatom 237 136 5 0 0 0 - - -;
#X obj 155 136 t b;
#X obj 282 135 t b;
#X obj 102 159 -;
#X obj 237 156 -;
#X obj 103 298 / 300;
#X obj 103 323 * -1;
#X obj 103 345 + 0.5;
#X floatatom 142 390 5 0 0 0 - - -;
#X obj 103 368 moses 0;
#X obj 142 412 * 2;
#X floatatom 142 436 5 0 0 0 - - -;
#X obj 142 480 vline~;
#X msg 142 458 \$1 50;
#X obj 142 502 outlet~;
#X obj 102 94 r \$0-speaker5x;
#X obj 237 93 r \$0-speaker5y;
#X connect 0 0 5 0;
#X connect 1 0 11 0;
#X connect 1 0 13 1;
#X connect 2 0 12 0;
#X connect 2 0 14 1;
#X connect 3 0 4 0;
#X connect 3 0 6 1;
#X connect 4 0 5 0;
#X connect 5 0 6 0;
#X connect 6 0 7 0;
#X connect 7 0 8 0;
#X connect 8 0 15 0;
#X connect 9 0 13 0;
#X connect 10 0 14 0;
#X connect 11 0 9 0;
#X connect 12 0 10 0;
#X connect 13 0 0 0;
#X connect 13 0 0 1;
#X connect 14 0 3 0;
#X connect 14 0 3 1;
#X connect 15 0 16 0;
#X connect 16 0 17 0;
#X connect 17 0 19 0;
#X connect 18 0 20 0;
#X connect 19 1 18 0;
#X connect 20 0 21 0;
#X connect 21 0 23 0;
#X connect 22 0 24 0;
#X connect 23 0 22 0;
#X connect 25 0 9 0;
#X connect 26 0 10 0;
#X restore 439 592 pd speaker5;
#N canvas 461 144 450 300 speaker6 0;
#X obj 112 195 *;
#X obj 165 125 r \$0-panposx;
#X obj 292 124 r \$0-panposy;
#X obj 247 193 *;
#X obj 247 216 t b;
#X floatatom 112 216 5 0 0 0 - - -;
#X obj 112 240 +;
#X obj 112 262 sqrt;
#X floatatom 113 286 5 0 0 0 - - -;
#X floatatom 112 147 5 0 0 0 - - -;
#X floatatom 247 146 5 0 0 0 - - -;
#X obj 165 146 t b;
#X obj 292 145 t b;
#X obj 112 169 -;
#X obj 247 166 -;
#X obj 113 308 / 300;
#X obj 113 333 * -1;
#X obj 113 355 + 0.5;
#X floatatom 152 400 5 0 0 0 - - -;
#X obj 113 378 moses 0;
#X obj 152 422 * 2;
#X floatatom 152 446 5 0 0 0 - - -;
#X obj 152 490 vline~;
#X msg 152 468 \$1 50;
#X obj 152 512 outlet~;
#X obj 112 104 r \$0-speaker6x;
#X obj 247 103 r \$0-speaker6y;
#X connect 0 0 5 0;
#X connect 1 0 11 0;
#X connect 1 0 13 1;
#X connect 2 0 12 0;
#X connect 2 0 14 1;
#X connect 3 0 4 0;
#X connect 3 0 6 1;
#X connect 4 0 5 0;
#X connect 5 0 6 0;
#X connect 6 0 7 0;
#X connect 7 0 8 0;
#X connect 8 0 15 0;
#X connect 9 0 13 0;
#X connect 10 0 14 0;
#X connect 11 0 9 0;
#X connect 12 0 10 0;
#X connect 13 0 0 0;
#X connect 13 0 0 1;
#X connect 14 0 3 0;
#X connect 14 0 3 1;
#X connect 15 0 16 0;
#X connect 16 0 17 0;
#X connect 17 0 19 0;
#X connect 18 0 20 0;
#X connect 19 1 18 0;
#X connect 20 0 21 0;
#X connect 21 0 23 0;
#X connect 22 0 24 0;
#X connect 23 0 22 0;
#X connect 25 0 9 0;
#X connect 26 0 10 0;
#X restore 531 592 pd speaker6;
#N canvas 794 96 450 300 speaker7 0;
#X obj 122 205 *;
#X obj 175 135 r \$0-panposx;
#X obj 302 134 r \$0-panposy;
#X obj 257 203 *;
#X obj 257 226 t b;
#X floatatom 122 226 5 0 0 0 - - -;
#X obj 122 250 +;
#X obj 122 272 sqrt;
#X floatatom 123 296 5 0 0 0 - - -;
#X floatatom 122 157 5 0 0 0 - - -;
#X floatatom 257 156 5 0 0 0 - - -;
#X obj 175 156 t b;
#X obj 302 155 t b;
#X obj 122 179 -;
#X obj 257 176 -;
#X obj 123 318 / 300;
#X obj 123 343 * -1;
#X obj 123 365 + 0.5;
#X floatatom 162 410 5 0 0 0 - - -;
#X obj 123 388 moses 0;
#X obj 162 432 * 2;
#X floatatom 162 456 5 0 0 0 - - -;
#X obj 162 500 vline~;
#X msg 162 478 \$1 50;
#X obj 162 522 outlet~;
#X obj 122 115 r \$0-speaker7x;
#X obj 257 113 r \$0-speaker7y;
#X connect 0 0 5 0;
#X connect 1 0 11 0;
#X connect 1 0 13 1;
#X connect 2 0 12 0;
#X connect 2 0 14 1;
#X connect 3 0 4 0;
#X connect 3 0 6 1;
#X connect 4 0 5 0;
#X connect 5 0 6 0;
#X connect 6 0 7 0;
#X connect 7 0 8 0;
#X connect 8 0 15 0;
#X connect 9 0 13 0;
#X connect 10 0 14 0;
#X connect 11 0 9 0;
#X connect 12 0 10 0;
#X connect 13 0 0 0;
#X connect 13 0 0 1;
#X connect 14 0 3 0;
#X connect 14 0 3 1;
#X connect 15 0 16 0;
#X connect 16 0 17 0;
#X connect 17 0 19 0;
#X connect 18 0 20 0;
#X connect 19 1 18 0;
#X connect 20 0 21 0;
#X connect 21 0 23 0;
#X connect 22 0 24 0;
#X connect 23 0 22 0;
#X connect 25 0 9 0;
#X connect 26 0 10 0;
#X restore 621 592 pd speaker7;
#N canvas 362 66 450 300 speaker8 0;
#X obj 132 215 *;
#X obj 185 145 r \$0-panposx;
#X obj 312 144 r \$0-panposy;
#X obj 267 213 *;
#X obj 267 236 t b;
#X floatatom 132 236 5 0 0 0 - - -;
#X obj 132 260 +;
#X obj 132 282 sqrt;
#X floatatom 133 306 5 0 0 0 - - -;
#X floatatom 132 167 5 0 0 0 - - -;
#X floatatom 267 166 5 0 0 0 - - -;
#X obj 185 166 t b;
#X obj 312 165 t b;
#X obj 132 189 -;
#X obj 267 186 -;
#X obj 133 328 / 300;
#X obj 133 353 * -1;
#X obj 133 375 + 0.5;
#X floatatom 172 420 5 0 0 0 - - -;
#X obj 133 398 moses 0;
#X obj 172 442 * 2;
#X floatatom 172 466 5 0 0 0 - - -;
#X obj 172 510 vline~;
#X msg 172 488 \$1 50;
#X obj 172 532 outlet~;
#X obj 132 124 r \$0-speaker8x;
#X obj 268 123 r \$0-speaker8y;
#X connect 0 0 5 0;
#X connect 1 0 11 0;
#X connect 1 0 13 1;
#X connect 2 0 12 0;
#X connect 2 0 14 1;
#X connect 3 0 4 0;
#X connect 3 0 6 1;
#X connect 4 0 5 0;
#X connect 5 0 6 0;
#X connect 6 0 7 0;
#X connect 7 0 8 0;
#X connect 8 0 15 0;
#X connect 9 0 13 0;
#X connect 10 0 14 0;
#X connect 11 0 9 0;
#X connect 12 0 10 0;
#X connect 13 0 0 0;
#X connect 13 0 0 1;
#X connect 14 0 3 0;
#X connect 14 0 3 1;
#X connect 15 0 16 0;
#X connect 16 0 17 0;
#X connect 17 0 19 0;
#X connect 18 0 20 0;
#X connect 19 1 18 0;
#X connect 20 0 21 0;
#X connect 21 0 23 0;
#X connect 22 0 24 0;
#X connect 23 0 22 0;
#X connect 25 0 9 0;
#X connect 26 0 10 0;
#X restore 711 592 pd speaker8;
#X obj 52 750 outlet~;
#X obj 52 616 *~;
#X obj 146 750 outlet~;
#X obj 146 616 *~;
#X obj 238 750 outlet~;
#X obj 238 616 *~;
#X obj 332 750 outlet~;
#X obj 332 616 *~;
#X obj 424 750 outlet~;
#X obj 424 616 *~;
#X obj 516 749 outlet~;
#X obj 516 615 *~;
#X obj 606 749 outlet~;
#X obj 606 615 *~;
#X obj 203 231 cnv 15 15 15 empty \$0-speaker1pos 1 4 7 0 14 -33289
-262144 0;
#X obj 308 231 cnv 15 15 15 empty \$0-speaker2pos 2 4 7 0 14 -33289
-262144 0;
#X obj 158 292 cnv 15 15 15 empty \$0-speaker3pos 3 4 7 0 14 -33289
-262144 0;
#X obj 353 292 cnv 15 15 15 empty \$0-speaker4pos 4 4 7 0 14 -33289
-262144 0;
#X obj 158 351 cnv 15 15 15 empty \$0-speaker5pos 5 4 7 0 14 -33289
-262144 0;
#X obj 353 351 cnv 15 15 15 empty \$0-speaker6pos 6 4 7 0 14 -33289
-262144 0;
#X obj 203 412 cnv 15 15 15 empty \$0-speaker7pos 7 4 7 0 14 -33289
-262144 0;
#X obj 308 412 cnv 15 15 15 empty \$0-speaker8pos 8 4 7 0 14 -33289
-262144 0;
#N canvas 419 22 613 608 8channel 0;
#X obj 12 13 r \$0-8channel;
#X obj 10 104 s \$0-setspeaker1cusposx;
#X obj 10 126 s \$0-setspeaker1cusposy;
#X msg 33 70 232;
#X msg 175 79 232;
#X msg 330 79 292;
#X msg 472 80 292;
#X msg 33 181 352;
#X msg 183 182 352;
#X msg 340 180 412;
#X msg 481 176 412;
#X msg 12 40 204;
#X msg 156 54 309;
#X msg 306 53 159;
#X msg 456 54 354;
#X msg 10 154 159;
#X msg 156 156 354;
#X msg 309 155 204;
#X msg 462 150 309;
#X obj 158 104 s \$0-setspeaker2cusposx;
#X obj 158 126 s \$0-setspeaker2cusposy;
#X obj 308 126 s \$0-setspeaker3cusposy;
#X obj 308 104 s \$0-setspeaker3cusposx;
#X obj 456 104 s \$0-setspeaker4cusposx;
#X obj 456 126 s \$0-setspeaker4cusposy;
#X obj 7 213 s \$0-setspeaker5cusposx;
#X obj 7 235 s \$0-setspeaker5cusposy;
#X obj 155 213 s \$0-setspeaker6cusposx;
#X obj 155 235 s \$0-setspeaker6cusposy;
#X obj 305 213 s \$0-setspeaker7cusposx;
#X obj 305 235 s \$0-setspeaker7cusposy;
#X obj 453 213 s \$0-setspeaker8cusposx;
#X obj 453 235 s \$0-setspeaker8cusposy;
#X obj 18 289 r \$0-8channel;
#X msg 18 313 1;
#X obj 11 370 s \$0-setspeaker1cusonoff;
#X obj 164 370 s \$0-setspeaker2cusonoff;
#X obj 318 370 s \$0-setspeaker3cusonoff;
#X obj 471 370 s \$0-setspeaker4cusonoff;
#X obj 12 395 s \$0-setspeaker5cusonoff;
#X obj 165 395 s \$0-setspeaker6cusonoff;
#X obj 319 395 s \$0-setspeaker7cusonoff;
#X obj 472 395 s \$0-setspeaker8cusonoff;
#X connect 0 0 11 0;
#X connect 0 0 12 0;
#X connect 0 0 13 0;
#X connect 0 0 14 0;
#X connect 0 0 15 0;
#X connect 0 0 16 0;
#X connect 0 0 17 0;
#X connect 0 0 18 0;
#X connect 3 0 2 0;
#X connect 4 0 20 0;
#X connect 5 0 21 0;
#X connect 6 0 24 0;
#X connect 7 0 26 0;
#X connect 8 0 28 0;
#X connect 9 0 30 0;
#X connect 10 0 32 0;
#X connect 11 0 1 0;
#X connect 11 0 3 0;
#X connect 12 0 4 0;
#X connect 12 0 19 0;
#X connect 13 0 5 0;
#X connect 13 0 22 0;
#X connect 14 0 6 0;
#X connect 14 0 23 0;
#X connect 15 0 7 0;
#X connect 15 0 25 0;
#X connect 16 0 8 0;
#X connect 16 0 27 0;
#X connect 17 0 9 0;
#X connect 17 0 29 0;
#X connect 18 0 10 0;
#X connect 18 0 31 0;
#X connect 33 0 34 0;
#X connect 34 0 35 0;
#X connect 34 0 36 0;
#X connect 34 0 37 0;
#X connect 34 0 38 0;
#X connect 34 0 39 0;
#X connect 34 0 40 0;
#X connect 34 0 41 0;
#X connect 34 0 42 0;
#X restore 652 158 pd 8channel;
#N canvas 26 85 637 430 5channel 0;
#X msg 20 304 1;
#X obj 13 361 s \$0-setspeaker1cusonoff;
#X obj 166 361 s \$0-setspeaker2cusonoff;
#X obj 320 361 s \$0-setspeaker3cusonoff;
#X obj 473 361 s \$0-setspeaker4cusonoff;
#X obj 14 386 s \$0-setspeaker5cusonoff;
#X obj 167 386 s \$0-setspeaker6cusonoff;
#X obj 321 386 s \$0-setspeaker7cusonoff;
#X obj 474 386 s \$0-setspeaker8cusonoff;
#X obj 20 262 r \$0-5channel;
#X msg 58 304 0;
#X obj 20 105 s \$0-setspeaker1cusposx;
#X obj 20 127 s \$0-setspeaker1cusposy;
#X obj 168 105 s \$0-setspeaker2cusposx;
#X obj 168 127 s \$0-setspeaker2cusposy;
#X obj 318 127 s \$0-setspeaker3cusposy;
#X obj 318 105 s \$0-setspeaker3cusposx;
#X obj 466 105 s \$0-setspeaker4cusposx;
#X obj 466 127 s \$0-setspeaker4cusposy;
#X obj 17 214 s \$0-setspeaker5cusposx;
#X obj 17 236 s \$0-setspeaker5cusposy;
#X obj 165 214 s \$0-setspeaker6cusposx;
#X obj 165 236 s \$0-setspeaker6cusposy;
#X obj 315 214 s \$0-setspeaker7cusposx;
#X obj 315 236 s \$0-setspeaker7cusposy;
#X obj 463 214 s \$0-setspeaker8cusposx;
#X obj 463 236 s \$0-setspeaker8cusposy;
#X obj 22 14 r \$0-5channel;
#X msg 22 41 166;
#X msg 43 71 262;
#X msg 166 55 346;
#X msg 185 80 262;
#X msg 316 54 257;
#X msg 340 80 232;
#X msg 466 55 198;
#X msg 482 81 412;
#X msg 20 155 317;
#X msg 43 182 412;
#X msg 166 157 115;
#X msg 319 156 115;
#X msg 472 151 115;
#X msg 193 183 180;
#X msg 350 181 180;
#X msg 491 177 180;
#X obj 59 284 del 20;
#X connect 0 0 1 0;
#X connect 0 0 2 0;
#X connect 0 0 3 0;
#X connect 0 0 4 0;
#X connect 0 0 5 0;
#X connect 9 0 0 0;
#X connect 9 0 44 0;
#X connect 10 0 6 0;
#X connect 10 0 7 0;
#X connect 10 0 8 0;
#X connect 27 0 28 0;
#X connect 27 0 30 0;
#X connect 27 0 32 0;
#X connect 27 0 34 0;
#X connect 27 0 36 0;
#X connect 27 0 38 0;
#X connect 27 0 39 0;
#X connect 27 0 40 0;
#X connect 28 0 11 0;
#X connect 28 0 29 0;
#X connect 29 0 12 0;
#X connect 30 0 31 0;
#X connect 30 0 13 0;
#X connect 31 0 14 0;
#X connect 32 0 33 0;
#X connect 32 0 16 0;
#X connect 33 0 15 0;
#X connect 34 0 35 0;
#X connect 34 0 17 0;
#X connect 35 0 18 0;
#X connect 36 0 37 0;
#X connect 36 0 19 0;
#X connect 37 0 20 0;
#X connect 38 0 41 0;
#X connect 38 0 21 0;
#X connect 39 0 42 0;
#X connect 39 0 23 0;
#X connect 40 0 43 0;
#X connect 40 0 25 0;
#X connect 41 0 22 0;
#X connect 42 0 24 0;
#X connect 43 0 26 0;
#X connect 44 0 10 0;
#X restore 652 179 pd 5channel;
#N canvas 59 55 697 511 4channel 0;
#X msg 30 314 1;
#X obj 23 371 s \$0-setspeaker1cusonoff;
#X obj 176 371 s \$0-setspeaker2cusonoff;
#X obj 330 371 s \$0-setspeaker3cusonoff;
#X obj 483 371 s \$0-setspeaker4cusonoff;
#X obj 24 396 s \$0-setspeaker5cusonoff;
#X obj 177 396 s \$0-setspeaker6cusonoff;
#X obj 331 396 s \$0-setspeaker7cusonoff;
#X obj 484 396 s \$0-setspeaker8cusonoff;
#X msg 68 314 0;
#X obj 30 115 s \$0-setspeaker1cusposx;
#X obj 30 137 s \$0-setspeaker1cusposy;
#X obj 178 115 s \$0-setspeaker2cusposx;
#X obj 178 137 s \$0-setspeaker2cusposy;
#X obj 328 137 s \$0-setspeaker3cusposy;
#X obj 328 115 s \$0-setspeaker3cusposx;
#X obj 476 115 s \$0-setspeaker4cusposx;
#X obj 476 137 s \$0-setspeaker4cusposy;
#X obj 27 224 s \$0-setspeaker5cusposx;
#X obj 27 246 s \$0-setspeaker5cusposy;
#X obj 175 224 s \$0-setspeaker6cusposx;
#X obj 175 246 s \$0-setspeaker6cusposy;
#X obj 325 224 s \$0-setspeaker7cusposx;
#X obj 325 246 s \$0-setspeaker7cusposy;
#X obj 473 224 s \$0-setspeaker8cusposx;
#X obj 473 246 s \$0-setspeaker8cusposy;
#X msg 32 51 166;
#X msg 176 65 346;
#X msg 492 91 412;
#X msg 176 167 115;
#X msg 329 166 115;
#X msg 482 161 115;
#X msg 203 193 180;
#X msg 360 191 180;
#X msg 501 187 180;
#X obj 69 294 del 20;
#X msg 30 165 115;
#X msg 53 192 180;
#X obj 30 272 r \$0-4channel;
#X obj 32 24 r \$0-4channel;
#X msg 53 81 232;
#X msg 195 90 232;
#X msg 326 64 166;
#X msg 350 90 412;
#X msg 476 65 346;
#X connect 0 0 1 0;
#X connect 0 0 2 0;
#X connect 0 0 3 0;
#X connect 0 0 4 0;
#X connect 9 0 6 0;
#X connect 9 0 7 0;
#X connect 9 0 8 0;
#X connect 9 0 5 0;
#X connect 26 0 10 0;
#X connect 26 0 40 0;
#X connect 27 0 41 0;
#X connect 27 0 12 0;
#X connect 28 0 17 0;
#X connect 29 0 32 0;
#X connect 29 0 20 0;
#X connect 30 0 33 0;
#X connect 30 0 22 0;
#X connect 31 0 34 0;
#X connect 31 0 24 0;
#X connect 32 0 21 0;
#X connect 33 0 23 0;
#X connect 34 0 25 0;
#X connect 35 0 9 0;
#X connect 36 0 37 0;
#X connect 36 0 18 0;
#X connect 37 0 19 0;
#X connect 38 0 0 0;
#X connect 38 0 35 0;
#X connect 39 0 26 0;
#X connect 39 0 27 0;
#X connect 39 0 42 0;
#X connect 39 0 44 0;
#X connect 39 0 36 0;
#X connect 39 0 29 0;
#X connect 39 0 30 0;
#X connect 39 0 31 0;
#X connect 40 0 11 0;
#X connect 41 0 13 0;
#X connect 42 0 43 0;
#X connect 42 0 15 0;
#X connect 43 0 14 0;
#X connect 44 0 28 0;
#X connect 44 0 16 0;
#X restore 652 200 pd 4channel;
#X obj 874 586 lop~ 100;
#X obj 874 689 outlet~;
#X obj 933 531 r \$0-subonoff;
#X floatatom 933 552 5 0 0 0 - - -;
#X obj 933 592 vline~;
#X msg 933 571 \$1 50;
#X obj 874 609 *~;
#X obj 1021 531 loadbang;
#X msg 1021 552 0;
#X obj 11 93 line;
#X floatatom 11 113 5 0 0 0 - - -;
#X obj 11 7 bng 15 250 50 0 empty empty empty 17 7 0 10 -262144 -1
-1;
#X obj 11 -38 tgl 15 0 empty \$0-wiggle empty 17 7 0 10 -262144 -1
-1 0 1;
#X obj 68 86 +;
#X floatatom 68 108 5 0 0 0 - - -;
#X obj 11 134 t b;
#X obj 11 -16 metro 300;
#X obj 11 49 del 150;
#X obj 920 288 jh.leap_fists;
#X msg 920 313 1;
#X msg 950 313 0;
#X obj 920 403 s \$0-wiggleonoff;
#X obj 11 -62 r \$0-wiggle;
#X msg 11 28 40 150;
#X msg 11 73 -40 150;
#X msg -38 35 0;
#X obj -39 -22 sel 0;
#X obj -40 15 del 302;
#N canvas 105 52 652 419 2channel 0;
#X msg 33 305 1;
#X obj 26 362 s \$0-setspeaker1cusonoff;
#X obj 179 362 s \$0-setspeaker2cusonoff;
#X obj 333 362 s \$0-setspeaker3cusonoff;
#X obj 486 362 s \$0-setspeaker4cusonoff;
#X obj 27 387 s \$0-setspeaker5cusonoff;
#X obj 180 387 s \$0-setspeaker6cusonoff;
#X obj 334 387 s \$0-setspeaker7cusonoff;
#X obj 487 387 s \$0-setspeaker8cusonoff;
#X msg 71 305 0;
#X obj 33 106 s \$0-setspeaker1cusposx;
#X obj 33 128 s \$0-setspeaker1cusposy;
#X obj 181 106 s \$0-setspeaker2cusposx;
#X obj 181 128 s \$0-setspeaker2cusposy;
#X obj 331 128 s \$0-setspeaker3cusposy;
#X obj 331 106 s \$0-setspeaker3cusposx;
#X obj 479 106 s \$0-setspeaker4cusposx;
#X obj 479 128 s \$0-setspeaker4cusposy;
#X obj 30 215 s \$0-setspeaker5cusposx;
#X obj 30 237 s \$0-setspeaker5cusposy;
#X obj 178 215 s \$0-setspeaker6cusposx;
#X obj 178 237 s \$0-setspeaker6cusposy;
#X obj 328 215 s \$0-setspeaker7cusposx;
#X obj 328 237 s \$0-setspeaker7cusposy;
#X obj 476 215 s \$0-setspeaker8cusposx;
#X obj 476 237 s \$0-setspeaker8cusposy;
#X msg 179 158 115;
#X msg 332 157 115;
#X msg 485 152 115;
#X msg 206 184 180;
#X msg 363 182 180;
#X msg 504 178 180;
#X obj 72 285 del 20;
#X msg 33 156 115;
#X msg 56 183 180;
#X obj 35 15 r \$0-2channel;
#X obj 33 263 r \$0-2channel;
#X msg 329 55 115;
#X msg 353 81 180;
#X msg 479 56 115;
#X msg 495 82 180;
#X msg 35 42 204;
#X msg 56 72 322;
#X msg 179 56 309;
#X msg 198 81 322;
#X connect 0 0 1 0;
#X connect 0 0 2 0;
#X connect 9 0 6 0;
#X connect 9 0 7 0;
#X connect 9 0 5 0;
#X connect 9 0 3 0;
#X connect 9 0 4 0;
#X connect 9 0 8 0;
#X connect 26 0 29 0;
#X connect 26 0 20 0;
#X connect 27 0 30 0;
#X connect 27 0 22 0;
#X connect 28 0 31 0;
#X connect 28 0 24 0;
#X connect 29 0 21 0;
#X connect 30 0 23 0;
#X connect 31 0 25 0;
#X connect 32 0 9 0;
#X connect 33 0 34 0;
#X connect 33 0 18 0;
#X connect 34 0 19 0;
#X connect 35 0 41 0;
#X connect 35 0 43 0;
#X connect 35 0 37 0;
#X connect 35 0 39 0;
#X connect 35 0 33 0;
#X connect 35 0 26 0;
#X connect 35 0 27 0;
#X connect 35 0 28 0;
#X connect 36 0 0 0;
#X connect 36 0 32 0;
#X connect 37 0 38 0;
#X connect 37 0 15 0;
#X connect 38 0 14 0;
#X connect 39 0 40 0;
#X connect 39 0 16 0;
#X connect 40 0 17 0;
#X connect 41 0 10 0;
#X connect 41 0 42 0;
#X connect 42 0 11 0;
#X connect 43 0 44 0;
#X connect 43 0 12 0;
#X connect 44 0 13 0;
#X restore 652 222 pd 2channel;
#X obj 114 3 expr ((($f1 + 300) / 600) * 300) \; (((($f2 + 200) * -1
+ 400) / 400) * 300);
#X msg 1088 16 151;
#X msg 1088 -28 147;
#X obj 661 447 jh.leap_loop;
#N canvas 823 55 462 622 0channel 0;
#X obj -7 74 s \$0-speaker1pos;
#X obj 97 74 s \$0-speaker2pos;
#X obj 203 75 s \$0-speaker3pos;
#X obj 308 75 s \$0-speaker4pos;
#X obj -6 126 s \$0-speaker5pos;
#X obj 99 126 s \$0-speaker6pos;
#X obj 205 127 s \$0-speaker7pos;
#X obj 310 127 s \$0-speaker8pos;
#X msg 99 101 pos 450 470;
#X msg 205 101 pos 450 470;
#X msg 308 103 pos 450 470;
#X msg -5 100 pos 450 470;
#X msg 204 46 pos 450 470;
#X msg 310 47 pos 450 470;
#X obj -9 14 r \$0-0channel;
#X msg -8 45 pos 450 470;
#X msg 96 47 pos 450 470;
#X connect 8 0 5 0;
#X connect 9 0 6 0;
#X connect 10 0 7 0;
#X connect 11 0 4 0;
#X connect 12 0 2 0;
#X connect 13 0 3 0;
#X connect 14 0 12 0;
#X connect 14 0 13 0;
#X connect 14 0 11 0;
#X connect 14 0 8 0;
#X connect 14 0 9 0;
#X connect 14 0 10 0;
#X connect 14 0 15 0;
#X connect 14 0 16 0;
#X connect 15 0 0 0;
#X connect 16 0 1 0;
#X restore 652 245 pd 0channel;
#X obj 725 246 bng 15 250 50 0 \$0-0channel empty 0_channel 17 7 0
10 -262144 -1 -1;
#X obj 448 467 cnv 15 20 20 empty empty empty 20 12 0 14 -237440 -66577
0;
#X obj 433 443 cnv 1 1 1 empty empty Automation: 0 0 0 10 -237440 -1
0;
#X obj 878 101 unpack 0 0 0 0 0 0;
#X obj 878 78 r general;
#X floatatom 920 123 5 0 0 0 Hands: - -;
#X msg 920 175 0;
#X obj 351 -22 spigot;
#X obj 114 -21 spigot;
#X obj 384 -62 r \$0-leaponoff;
#X floatatom 384 -41 5 0 0 0 - - -;
#X obj 1088 77 s \$0-leapload;
#X msg 1088 57 1;
#X obj 612 40 random 300;
#X obj 681 40 random 300;
#X floatatom 612 63 5 0 0 0 - - -;
#X floatatom 683 62 5 0 0 0 - - -;
#X obj 612 -6 tgl 15 0 empty empty empty 17 7 0 10 -262144 -1 -1 0
1;
#X obj 612 14 metro 1000;
#X obj 123 38 r \$0-xin;
#X obj 240 37 r \$0-yin;
#X obj 1088 -6 s \$0-xin;
#X obj 1088 36 s \$0-yin;
#X obj 415 103 loadbang;
#X msg 1087 98 1;
#X obj 1087 119 s \$0-set8channel;
#X obj 612 -26 r \$0-random;
#X obj 612 84 s \$0-xin;
#X obj 683 83 s \$0-yin;
#X obj 668 419 r \$0-panposy;
#X obj 668 470 s \$0-yin;
#X obj 672 396 s \$0-xin;
#X obj 669 372 r \$0-panposx;
#X obj 11 157 s \$0-xin;
#X msg 953 220 0;
#X floatatom 953 243 5 0 0 0 - - -;
#X obj 953 198 del 10;
#X obj 920 148 sel 0 1 2;
#X msg 952 175 1;
#X obj 920 264 spigot;
#X floatatom 698 -4 5 0 0 0 - - -;
#X obj 698 -26 r \$0-randomspeed;
#X obj 1087 164 s \$0-setrandomspeed;
#X msg 1087 142 1000;
#X msg 1087 186 0.8;
#X obj 1087 209 s \$0-setlfelevel;
#X obj 874 664 *~;
#X obj 905 663 vline~;
#X msg 905 641 \$1 50;
#X obj 905 619 r \$0-lfelevel;
#N canvas 7 22 1031 643 customchannel 0;
#X obj 34 -212 s \$0-speaker1x;
#X obj 34 -145 s \$0-speaker1y;
#X obj 34 -257 r \$0-speaker1cusposx;
#X obj 34 -189 r \$0-speaker1cusposy;
#X obj 34 -235 - 108;
#X obj 34 -167 expr (($f1 - 173) * -1 +300);
#X obj 22 191 s \$0-speaker1pos;
#X msg 22 166 pos \$1 \$2;
#X floatatom 22 117 5 0 0 0 - - -;
#X floatatom 67 118 5 0 0 0 - - -;
#X obj 22 139 pack f f;
#X obj 104 118 t b;
#X obj 22 73 r \$0-speaker1cusposx;
#X obj 67 96 r \$0-speaker1cusposy;
#X obj 217 -235 - 108;
#X obj 217 -167 expr (($f1 - 173) * -1 +300);
#X obj 400 -235 - 108;
#X obj 400 -167 expr (($f1 - 173) * -1 +300);
#X obj 585 -237 - 108;
#X obj 585 -169 expr (($f1 - 173) * -1 +300);
#X obj 34 -94 - 108;
#X obj 34 -26 expr (($f1 - 173) * -1 +300);
#X obj 218 -95 - 108;
#X obj 218 -27 expr (($f1 - 173) * -1 +300);
#X obj 401 -95 - 108;
#X obj 401 -27 expr (($f1 - 173) * -1 +300);
#X obj 591 -95 - 108;
#X obj 591 -27 expr (($f1 - 173) * -1 +300);
#X obj 217 -257 r \$0-speaker2cusposx;
#X obj 217 -212 s \$0-speaker2x;
#X obj 217 -189 r \$0-speaker2cusposy;
#X obj 217 -145 s \$0-speaker2y;
#X obj 400 -257 r \$0-speaker3cusposx;
#X obj 400 -212 s \$0-speaker3x;
#X obj 400 -189 r \$0-speaker3cusposy;
#X obj 400 -145 s \$0-speaker3y;
#X obj 585 -191 r \$0-speaker4cusposy;
#X obj 585 -213 s \$0-speaker4x;
#X obj 585 -259 r \$0-speaker4cusposx;
#X obj 585 -147 s \$0-speaker4y;
#X obj 34 -117 r \$0-speaker5cusposx;
#X obj 34 -71 s \$0-speaker5x;
#X obj 34 -48 r \$0-speaker5cusposy;
#X obj 34 -4 s \$0-speaker5y;
#X obj 218 -72 s \$0-speaker6x;
#X obj 218 -117 r \$0-speaker6cusposx;
#X obj 218 -49 r \$0-speaker6cusposy;
#X obj 218 -4 s \$0-speaker6y;
#X obj 401 -117 r \$0-speaker7cusposx;
#X obj 401 -72 s \$0-speaker7x;
#X obj 401 -49 r \$0-speaker7cusposy;
#X obj 401 -5 s \$0-speaker7y;
#X obj 591 -117 r \$0-speaker8cusposx;
#X obj 591 -72 s \$0-speaker8x;
#X obj 591 -49 r \$0-speaker8cusposy;
#X obj 591 -5 s \$0-speaker8y;
#X obj 134 119 r \$0-speaker1cusonoff;
#X obj 134 140 sel 0 1;
#X msg 134 163 pos 450 470;
#X msg 272 167 pos \$1 \$2;
#X floatatom 272 118 5 0 0 0 - - -;
#X floatatom 317 119 5 0 0 0 - - -;
#X obj 272 140 pack f f;
#X obj 354 119 t b;
#X obj 384 141 sel 0 1;
#X msg 384 164 pos 450 470;
#X msg 520 168 pos \$1 \$2;
#X floatatom 520 119 5 0 0 0 - - -;
#X floatatom 565 120 5 0 0 0 - - -;
#X obj 520 141 pack f f;
#X obj 602 120 t b;
#X obj 632 142 sel 0 1;
#X msg 632 165 pos 450 470;
#X msg 772 170 pos \$1 \$2;
#X floatatom 772 121 5 0 0 0 - - -;
#X floatatom 817 122 5 0 0 0 - - -;
#X obj 772 143 pack f f;
#X obj 854 122 t b;
#X obj 884 144 sel 0 1;
#X msg 884 167 pos 450 470;
#X msg 23 316 pos \$1 \$2;
#X floatatom 23 267 5 0 0 0 - - -;
#X floatatom 68 268 5 0 0 0 - - -;
#X obj 23 289 pack f f;
#X obj 105 268 t b;
#X obj 135 290 sel 0 1;
#X msg 135 313 pos 450 470;
#X msg 273 317 pos \$1 \$2;
#X floatatom 273 268 5 0 0 0 - - -;
#X floatatom 318 269 5 0 0 0 - - -;
#X obj 273 290 pack f f;
#X obj 355 269 t b;
#X obj 385 291 sel 0 1;
#X msg 385 314 pos 450 470;
#X msg 521 318 pos \$1 \$2;
#X floatatom 521 269 5 0 0 0 - - -;
#X floatatom 566 270 5 0 0 0 - - -;
#X obj 521 291 pack f f;
#X obj 603 270 t b;
#X obj 633 292 sel 0 1;
#X msg 633 315 pos 450 470;
#X msg 773 320 pos \$1 \$2;
#X floatatom 773 271 5 0 0 0 - - -;
#X floatatom 818 272 5 0 0 0 - - -;
#X obj 773 293 pack f f;
#X obj 855 272 t b;
#X obj 885 294 sel 0 1;
#X msg 885 317 pos 450 470;
#X obj 272 74 r \$0-speaker2cusposx;
#X obj 317 97 r \$0-speaker2cusposy;
#X obj 384 120 r \$0-speaker2cusonoff;
#X obj 272 192 s \$0-speaker2pos;
#X obj 520 75 r \$0-speaker3cusposx;
#X obj 565 98 r \$0-speaker3cusposy;
#X obj 632 121 r \$0-speaker3cusonoff;
#X obj 520 193 s \$0-speaker3pos;
#X obj 772 77 r \$0-speaker4cusposx;
#X obj 817 100 r \$0-speaker4cusposy;
#X obj 884 123 r \$0-speaker4cusonoff;
#X obj 772 195 s \$0-speaker4pos;
#X obj 23 223 r \$0-speaker5cusposx;
#X obj 68 246 r \$0-speaker5cusposy;
#X obj 135 269 r \$0-speaker5cusonoff;
#X obj 23 341 s \$0-speaker5pos;
#X obj 273 224 r \$0-speaker6cusposx;
#X obj 318 247 r \$0-speaker6cusposy;
#X obj 385 270 r \$0-speaker6cusonoff;
#X obj 273 343 s \$0-speaker6pos;
#X obj 521 225 r \$0-speaker7cusposx;
#X obj 566 248 r \$0-speaker7cusposy;
#X obj 633 271 r \$0-speaker7cusonoff;
#X obj 521 343 s \$0-speaker7pos;
#X obj 773 227 r \$0-speaker8cusposx;
#X obj 818 250 r \$0-speaker8cusposy;
#X obj 885 273 r \$0-speaker8cusonoff;
#X obj 773 345 s \$0-speaker8pos;
#X connect 2 0 4 0;
#X connect 3 0 5 0;
#X connect 4 0 0 0;
#X connect 5 0 1 0;
#X connect 7 0 6 0;
#X connect 8 0 10 0;
#X connect 9 0 10 1;
#X connect 9 0 11 0;
#X connect 10 0 7 0;
#X connect 11 0 8 0;
#X connect 12 0 8 0;
#X connect 13 0 9 0;
#X connect 14 0 29 0;
#X connect 15 0 31 0;
#X connect 16 0 33 0;
#X connect 17 0 35 0;
#X connect 18 0 37 0;
#X connect 19 0 39 0;
#X connect 20 0 41 0;
#X connect 21 0 43 0;
#X connect 22 0 44 0;
#X connect 23 0 47 0;
#X connect 24 0 49 0;
#X connect 25 0 51 0;
#X connect 26 0 53 0;
#X connect 27 0 55 0;
#X connect 28 0 14 0;
#X connect 30 0 15 0;
#X connect 32 0 16 0;
#X connect 34 0 17 0;
#X connect 36 0 19 0;
#X connect 38 0 18 0;
#X connect 40 0 20 0;
#X connect 42 0 21 0;
#X connect 45 0 22 0;
#X connect 46 0 23 0;
#X connect 48 0 24 0;
#X connect 50 0 25 0;
#X connect 52 0 26 0;
#X connect 54 0 27 0;
#X connect 56 0 57 0;
#X connect 57 0 58 0;
#X connect 57 1 8 0;
#X connect 57 1 9 0;
#X connect 58 0 6 0;
#X connect 59 0 111 0;
#X connect 60 0 62 0;
#X connect 61 0 62 1;
#X connect 61 0 63 0;
#X connect 62 0 59 0;
#X connect 63 0 60 0;
#X connect 64 0 65 0;
#X connect 64 1 60 0;
#X connect 64 1 61 0;
#X connect 65 0 111 0;
#X connect 66 0 115 0;
#X connect 67 0 69 0;
#X connect 68 0 69 1;
#X connect 68 0 70 0;
#X connect 69 0 66 0;
#X connect 70 0 67 0;
#X connect 71 0 72 0;
#X connect 71 1 67 0;
#X connect 71 1 68 0;
#X connect 72 0 115 0;
#X connect 73 0 119 0;
#X connect 74 0 76 0;
#X connect 75 0 76 1;
#X connect 75 0 77 0;
#X connect 76 0 73 0;
#X connect 77 0 74 0;
#X connect 78 0 79 0;
#X connect 78 1 74 0;
#X connect 78 1 75 0;
#X connect 79 0 119 0;
#X connect 80 0 123 0;
#X connect 81 0 83 0;
#X connect 82 0 83 1;
#X connect 82 0 84 0;
#X connect 83 0 80 0;
#X connect 84 0 81 0;
#X connect 85 0 86 0;
#X connect 85 1 81 0;
#X connect 85 1 82 0;
#X connect 86 0 123 0;
#X connect 87 0 127 0;
#X connect 88 0 90 0;
#X connect 89 0 90 1;
#X connect 89 0 91 0;
#X connect 90 0 87 0;
#X connect 91 0 88 0;
#X connect 92 0 93 0;
#X connect 92 1 88 0;
#X connect 92 1 89 0;
#X connect 93 0 127 0;
#X connect 94 0 131 0;
#X connect 95 0 97 0;
#X connect 96 0 97 1;
#X connect 96 0 98 0;
#X connect 97 0 94 0;
#X connect 98 0 95 0;
#X connect 99 0 100 0;
#X connect 99 1 95 0;
#X connect 99 1 96 0;
#X connect 100 0 131 0;
#X connect 101 0 135 0;
#X connect 102 0 104 0;
#X connect 103 0 104 1;
#X connect 103 0 105 0;
#X connect 104 0 101 0;
#X connect 105 0 102 0;
#X connect 106 0 107 0;
#X connect 106 1 102 0;
#X connect 106 1 103 0;
#X connect 107 0 135 0;
#X connect 108 0 60 0;
#X connect 109 0 61 0;
#X connect 110 0 64 0;
#X connect 112 0 67 0;
#X connect 113 0 68 0;
#X connect 114 0 71 0;
#X connect 116 0 74 0;
#X connect 117 0 75 0;
#X connect 118 0 78 0;
#X connect 120 0 81 0;
#X connect 121 0 82 0;
#X connect 122 0 85 0;
#X connect 124 0 88 0;
#X connect 125 0 89 0;
#X connect 126 0 92 0;
#X connect 128 0 95 0;
#X connect 129 0 96 0;
#X connect 130 0 99 0;
#X connect 132 0 102 0;
#X connect 133 0 103 0;
#X connect 134 0 106 0;
#X restore 652 269 pd customchannel;
#X obj 622 160 tgl 10 0 \$0-leaponoff \$0-leapload Leap_on/off: -72
5 0 10 -3390 -1 -1 1 1;
#X obj 522 180 cnv 15 112 290 empty empty Speaker_X/Y 18 7 0 11 -192064
-66577 0;
#X obj 543 207 hsl 85 9 115 399 0 0 \$0-speaker1cusposx \$0-setspeaker1cusposx
x: -17 4 0 9 -3390 -1 -1 2632 1;
#X obj 543 218 hsl 85 9 180 464 0 0 \$0-speaker1cusposy \$0-setspeaker1cusposy
y: -17 4 0 9 -3390 -1 -1 1538 1;
#X obj 621 196 tgl 9 0 \$0-speaker1cusonoff \$0-setspeaker1cusonoff
Speaker_1: -96 4 0 9 -3390 -1 -1 1 1;
#X obj 543 241 hsl 85 9 115 399 0 0 \$0-speaker2cusposx \$0-setspeaker2cusposx
x: -17 4 0 9 -3390 -1 -1 5738 1;
#X obj 543 252 hsl 85 9 180 464 0 0 \$0-speaker2cusposy \$0-setspeaker2cusposy
y: -17 4 0 9 -3390 -1 -1 1538 1;
#X obj 621 230 tgl 9 0 \$0-speaker2cusonoff \$0-setspeaker2cusonoff
Speaker_2: -96 4 0 9 -3390 -1 -1 1 1;
#X obj 543 275 hsl 85 9 115 399 0 0 \$0-speaker3cusposx \$0-setspeaker3cusposx
x: -17 4 0 9 -3390 -1 -1 1301 1;
#X obj 543 286 hsl 85 9 180 464 0 0 \$0-speaker3cusposy \$0-setspeaker3cusposy
y: -17 4 0 9 -3390 -1 -1 3313 1;
#X obj 621 264 tgl 9 0 \$0-speaker3cusonoff \$0-setspeaker3cusonoff
Speaker_3: -96 4 0 9 -3390 -1 -1 1 1;
#X obj 543 309 hsl 85 9 115 399 0 0 \$0-speaker4cusposx \$0-setspeaker4cusposx
x: -17 4 0 9 -3390 -1 -1 7069 1;
#X obj 543 320 hsl 85 9 180 464 0 0 \$0-speaker4cusposy \$0-setspeaker4cusposy
y: -17 4 0 9 -3390 -1 -1 3313 1;
#X obj 621 298 tgl 9 0 \$0-speaker4cusonoff \$0-setspeaker4cusonoff
Speaker_4: -96 4 0 9 -3390 -1 -1 1 1;
#X obj 543 343 hsl 85 9 115 399 0 0 \$0-speaker5cusposx \$0-setspeaker5cusposx
x: -17 4 0 9 -3390 -1 -1 1301 1;
#X obj 543 354 hsl 85 9 180 464 0 0 \$0-speaker5cusposy \$0-setspeaker5cusposy
y: -17 4 0 9 -3390 -1 -1 5087 1;
#X obj 621 332 tgl 9 0 \$0-speaker5cusonoff \$0-setspeaker5cusonoff
Speaker_5: -96 4 0 9 -3390 -1 -1 1 1;
#X obj 543 377 hsl 85 9 115 399 0 0 \$0-speaker6cusposx \$0-setspeaker6cusposx
x: -17 4 0 9 -3390 -1 -1 7069 1;
#X obj 543 388 hsl 85 9 180 464 0 0 \$0-speaker6cusposy \$0-setspeaker6cusposy
y: -17 4 0 9 -3390 -1 -1 5087 1;
#X obj 621 366 tgl 9 0 \$0-speaker6cusonoff \$0-setspeaker6cusonoff
Speaker_6: -96 4 0 9 -3390 -1 -1 1 1;
#X obj 543 411 hsl 85 9 115 399 0 0 \$0-speaker7cusposx \$0-setspeaker7cusposx
x: -17 4 0 9 -3390 -1 -1 2632 1;
#X obj 543 422 hsl 85 9 180 464 0 0 \$0-speaker7cusposy \$0-setspeaker7cusposy
y: -17 4 0 9 -3390 -1 -1 6862 1;
#X obj 621 400 tgl 9 0 \$0-speaker7cusonoff \$0-setspeaker7cusonoff
Speaker_7: -96 4 0 9 -3390 -1 -1 1 1;
#X obj 543 445 hsl 85 9 115 399 0 0 \$0-speaker8cusposx \$0-setspeaker8cusposx
x: -17 4 0 9 -3390 -1 -1 5738 1;
#X obj 543 456 hsl 85 9 180 464 0 0 \$0-speaker8cusposy \$0-setspeaker8cusposy
y: -17 4 0 9 -3390 -1 -1 6862 1;
#X obj 621 434 tgl 9 0 \$0-speaker8cusonoff \$0-setspeaker8cusonoff
Speaker_8: -96 4 0 9 -3390 -1 -1 1 1;
#X obj 428 180 cnv 15 80 95 empty empty Presets 17 7 0 11 -192064 -66577
0;
#X obj 431 197 bng 15 250 50 0 \$0-8channel \$0-set8channel 8_channel
19 7 0 10 -64830 -1 -1;
#X obj 431 217 bng 15 250 50 0 \$0-5channel empty 5_channel 19 7 0
10 -3390 -1 -1;
#X obj 431 237 bng 15 250 50 0 \$0-4channel empty 4_channel 19 7 0
10 -3390 -1 -1;
#X obj 431 257 bng 15 250 50 0 \$0-2channel empty 2_channel 19 7 0
10 -3390 -1 -1;
#X obj 419 283 cnv 15 98 145 empty empty Options 24 7 0 11 -192064
-66577 0;
#X obj 422 300 tgl 15 0 \$0-subonoff \$0-justanything LFE_on/off 19
7 0 10 -64830 -1 -1 0 1;
#X obj 422 354 tgl 15 0 \$0-wiggle \$0-wiggleonoff Wiggle_on/off 17
7 0 10 -3390 -1 -1 0 1;
#X obj 422 375 tgl 15 0 \$0-random \$0-justanything Random_on/off 17
7 0 10 -3390 -1 -1 0 1;
#X obj 425 407 hsl 85 15 100 10000 1 0 \$0-randomspeed \$0-setrandomspeed
Random_Speed: -2 -8 0 10 -122174 -1 -1 4200 1;
#X obj 425 332 hsl 85 15 0 1 0 0 \$0-lfelevel \$0-setlfelevel LFE_Level:
-2 -8 0 10 -122174 -1 -1 6720 1;
#X obj 423 451 jh.leap_loop;
#X obj 920 375 spigot;
#X obj 953 335 r \$0-leaponoff;
#X floatatom 953 356 5 0 0 0 - - -;
#X text 726 207 0_channel must be set before saving.;
#X floatatom 67 662 5 0 0 0 - - -;
#X obj 67 702 vline~;
#X msg 67 681 \$1 50;
#X obj 67 641 r \$0-speaker1cusonoff;
#X obj 52 723 *~;
#X floatatom 161 662 5 0 0 0 - - -;
#X obj 161 702 vline~;
#X msg 161 681 \$1 50;
#X obj 146 723 *~;
#X obj 161 641 r \$0-speaker2cusonoff;
#X floatatom 253 662 5 0 0 0 - - -;
#X obj 253 702 vline~;
#X msg 253 681 \$1 50;
#X obj 238 723 *~;
#X obj 253 641 r \$0-speaker3cusonoff;
#X floatatom 347 662 5 0 0 0 - - -;
#X obj 347 702 vline~;
#X msg 347 681 \$1 50;
#X obj 332 723 *~;
#X obj 347 641 r \$0-speaker4cusonoff;
#X floatatom 439 662 5 0 0 0 - - -;
#X obj 439 702 vline~;
#X msg 439 681 \$1 50;
#X obj 424 723 *~;
#X obj 439 641 r \$0-speaker5cusonoff;
#X floatatom 531 662 5 0 0 0 - - -;
#X obj 531 702 vline~;
#X msg 531 681 \$1 50;
#X obj 516 723 *~;
#X obj 531 641 r \$0-speaker6cusonoff;
#X floatatom 621 662 5 0 0 0 - - -;
#X obj 621 702 vline~;
#X msg 621 681 \$1 50;
#X obj 606 723 *~;
#X obj 621 641 r \$0-speaker7cusonoff;
#X floatatom 711 661 5 0 0 0 - - -;
#X obj 711 701 vline~;
#X msg 711 680 \$1 50;
#X obj 696 722 *~;
#X obj 711 640 r \$0-speaker8cusonoff;
#X msg 415 125 color 80 200 240;
#X connect 3 0 10 0;
#X connect 3 1 9 0;
#X connect 4 0 94 0;
#X connect 4 2 93 0;
#X connect 5 0 65 0;
#X connect 6 0 7 1;
#X connect 6 0 8 0;
#X connect 7 0 11 0;
#X connect 8 0 5 0;
#X connect 9 0 15 0;
#X connect 10 0 14 0;
#X connect 11 0 3 0;
#X connect 12 0 83 0;
#X connect 12 0 82 0;
#X connect 12 0 98 0;
#X connect 12 0 110 0;
#X connect 12 0 129 0;
#X connect 12 0 130 0;
#X connect 16 0 28 0;
#X connect 16 0 30 0;
#X connect 16 0 32 0;
#X connect 16 0 34 0;
#X connect 16 0 36 0;
#X connect 16 0 38 0;
#X connect 16 0 40 0;
#X connect 16 0 18 0;
#X connect 16 0 52 0;
#X connect 18 0 217 0;
#X connect 19 0 28 1;
#X connect 20 0 30 1;
#X connect 21 0 32 1;
#X connect 22 0 34 1;
#X connect 23 0 36 1;
#X connect 24 0 38 1;
#X connect 25 0 40 1;
#X connect 26 0 18 1;
#X connect 28 0 183 0;
#X connect 30 0 187 0;
#X connect 32 0 192 0;
#X connect 34 0 197 0;
#X connect 36 0 202 0;
#X connect 38 0 207 0;
#X connect 40 0 212 0;
#X connect 52 0 58 0;
#X connect 54 0 55 0;
#X connect 55 0 57 0;
#X connect 56 0 58 1;
#X connect 57 0 56 0;
#X connect 58 0 132 0;
#X connect 59 0 60 0;
#X connect 60 0 55 0;
#X connect 61 0 62 0;
#X connect 62 0 65 1;
#X connect 62 0 67 0;
#X connect 63 0 75 0;
#X connect 63 0 69 0;
#X connect 64 0 68 0;
#X connect 64 0 78 0;
#X connect 65 0 66 0;
#X connect 66 0 7 0;
#X connect 67 0 119 0;
#X connect 68 0 63 0;
#X connect 69 0 76 0;
#X connect 70 0 71 0;
#X connect 70 1 72 0;
#X connect 71 0 175 0;
#X connect 72 0 175 0;
#X connect 74 0 64 0;
#X connect 75 0 61 0;
#X connect 76 0 61 0;
#X connect 77 0 62 0;
#X connect 78 0 79 0;
#X connect 79 0 77 0;
#X connect 81 0 5 0;
#X connect 81 1 6 0;
#X connect 82 0 108 0;
#X connect 83 0 107 0;
#X connect 84 0 116 0;
#X connect 89 2 91 0;
#X connect 90 0 89 0;
#X connect 91 0 123 0;
#X connect 92 0 125 0;
#X connect 93 0 81 1;
#X connect 94 0 81 0;
#X connect 95 0 96 0;
#X connect 96 0 93 1;
#X connect 96 0 94 1;
#X connect 98 0 97 0;
#X connect 99 0 101 0;
#X connect 100 0 102 0;
#X connect 101 0 113 0;
#X connect 102 0 114 0;
#X connect 103 0 104 0;
#X connect 104 0 99 0;
#X connect 104 0 100 0;
#X connect 105 0 5 0;
#X connect 106 0 6 0;
#X connect 109 0 219 0;
#X connect 110 0 111 0;
#X connect 112 0 103 0;
#X connect 115 0 84 0;
#X connect 118 0 174 0;
#X connect 120 0 121 0;
#X connect 121 0 125 1;
#X connect 122 0 120 0;
#X connect 123 0 92 0;
#X connect 123 0 122 0;
#X connect 123 1 124 0;
#X connect 123 2 124 0;
#X connect 124 0 121 0;
#X connect 125 0 175 0;
#X connect 126 0 104 1;
#X connect 127 0 126 0;
#X connect 129 0 128 0;
#X connect 130 0 131 0;
#X connect 132 0 53 0;
#X connect 133 0 132 1;
#X connect 134 0 133 0;
#X connect 135 0 134 0;
#X connect 174 0 117 0;
#X connect 174 1 84 1;
#X connect 174 2 84 2;
#X connect 175 0 73 0;
#X connect 176 0 177 0;
#X connect 177 0 175 1;
#X connect 179 0 181 0;
#X connect 180 0 183 1;
#X connect 181 0 180 0;
#X connect 182 0 179 0;
#X connect 183 0 27 0;
#X connect 184 0 186 0;
#X connect 185 0 187 1;
#X connect 186 0 185 0;
#X connect 187 0 29 0;
#X connect 188 0 184 0;
#X connect 189 0 191 0;
#X connect 190 0 192 1;
#X connect 191 0 190 0;
#X connect 192 0 31 0;
#X connect 193 0 189 0;
#X connect 194 0 196 0;
#X connect 195 0 197 1;
#X connect 196 0 195 0;
#X connect 197 0 33 0;
#X connect 198 0 194 0;
#X connect 199 0 201 0;
#X connect 200 0 202 1;
#X connect 201 0 200 0;
#X connect 202 0 35 0;
#X connect 203 0 199 0;
#X connect 204 0 206 0;
#X connect 205 0 207 1;
#X connect 206 0 205 0;
#X connect 207 0 37 0;
#X connect 208 0 204 0;
#X connect 209 0 211 0;
#X connect 210 0 212 1;
#X connect 211 0 210 0;
#X connect 212 0 39 0;
#X connect 213 0 209 0;
#X connect 214 0 216 0;
#X connect 215 0 217 1;
#X connect 216 0 215 0;
#X connect 217 0 17 0;
#X connect 218 0 214 0;
#X connect 219 0 3 0;
#X coords 0 -1 1 1 546 345 1 100 150;
