#N canvas 495 371 202 187 10;
#X obj 14 9 r hands;
#X obj 14 31 route \$1;
#X obj 14 55 route fingers;
#X obj 14 78 route \$2;
#X obj 14 126 unpack 0 0 0;
#X obj 14 149 outlet;
#X obj 58 149 outlet;
#X obj 104 149 outlet;
#X obj 74 8 jh.leap_check;
#X obj 14 103 route velocity;
#X connect 0 0 1 0;
#X connect 1 0 2 0;
#X connect 2 0 3 0;
#X connect 3 0 9 0;
#X connect 4 0 5 0;
#X connect 4 1 6 0;
#X connect 4 2 7 0;
#X connect 9 0 4 0;
