#N canvas -4 57 247 233 10;
#X obj 54 89 unpack 0 0 0;
#X floatatom 54 111 5 0 0 0 x: - -;
#X floatatom 88 131 5 0 0 0 y: - -;
#X floatatom 123 151 5 0 0 0 z: - -;
#X obj 55 22 r hands;
#X obj 55 45 route \$1;
#X obj 54 154 outlet;
#X obj 88 177 outlet;
#X obj 123 199 outlet;
#X obj 144 23 jh.leap_check;
#X obj 55 68 route palm_velocity;
#X connect 0 0 1 0;
#X connect 0 1 2 0;
#X connect 0 2 3 0;
#X connect 1 0 6 0;
#X connect 2 0 7 0;
#X connect 3 0 8 0;
#X connect 4 0 5 0;
#X connect 5 0 10 0;
#X connect 10 0 0 0;
