#N canvas 188 58 739 483 10;
#X floatatom 41 41 5 0 0 0 - - -;
#X floatatom 41 86 5 0 0 0 - - -;
#X obj 41 107 t b;
#X obj 41 129 bng 15 250 50 0 empty empty empty 17 7 0 10 -262144 -1
-1;
#X obj 8 218 spigot;
#X floatatom 41 198 5 0 0 0 - - -;
#X msg 41 174 0;
#X msg 89 173 1;
#X obj 89 150 del 100;
#X obj 41 150 del 10;
#X floatatom 148 41 5 0 0 0 - - -;
#X floatatom 148 86 5 0 0 0 - - -;
#X obj 148 107 t b;
#X obj 148 129 bng 15 250 50 0 empty empty empty 17 7 0 10 -262144
-1 -1;
#X obj 115 218 spigot;
#X floatatom 148 198 5 0 0 0 - - -;
#X msg 148 174 0;
#X msg 196 173 1;
#X obj 148 150 del 10;
#X obj 148 63 moses 800;
#X obj 41 63 moses -800;
#X obj 196 150 del 100;
#X obj 216 85 unpack 0 0 0 0 0 0;
#X obj 216 62 r general;
#X floatatom 258 107 5 0 0 0 Hands: - -;
#X msg 258 159 0;
#X obj 258 132 sel 0 1 2;
#X msg 292 181 1;
#X floatatom 258 213 5 0 0 0 - - -;
#X obj 292 159 del 50;
#X obj 338 455 outlet;
#X obj 400 454 outlet;
#X obj 115 251 spigot;
#X obj 8 242 spigot;
#X obj 41 13 jh.leap_hand_vel \$1;
#X obj 186 9 jh.leap_check;
#X floatatom 174 324 5 0 0 0 - - -;
#X msg 339 158 0;
#X floatatom 339 208 5 0 0 0 - - -;
#X msg 396 183 1;
#X obj 396 161 del 50;
#X floatatom 482 53 5 0 0 0 - - -;
#X floatatom 482 98 5 0 0 0 - - -;
#X obj 482 119 t b;
#X obj 482 141 bng 15 250 50 0 empty empty empty 17 7 0 10 -262144
-1 -1;
#X obj 449 230 spigot;
#X floatatom 482 210 5 0 0 0 - - -;
#X msg 482 186 0;
#X msg 530 185 1;
#X obj 530 162 del 100;
#X obj 482 162 del 10;
#X floatatom 589 53 5 0 0 0 - - -;
#X floatatom 589 98 5 0 0 0 - - -;
#X obj 589 119 t b;
#X obj 589 141 bng 15 250 50 0 empty empty empty 17 7 0 10 -262144
-1 -1;
#X obj 556 230 spigot;
#X floatatom 589 210 5 0 0 0 - - -;
#X msg 589 186 0;
#X msg 637 185 1;
#X obj 589 162 del 10;
#X obj 589 75 moses 800;
#X obj 482 75 moses -800;
#X obj 637 162 del 100;
#X obj 556 263 spigot;
#X obj 449 254 spigot;
#X msg 174 300 1;
#X msg 210 324 0;
#X obj 210 300 loadbang;
#X obj 115 348 spigot;
#X obj 8 348 spigot;
#X msg 174 252 0;
#X obj 174 277 sel \$1;
#X floatatom 615 337 5 0 0 0 - - -;
#X msg 615 313 1;
#X msg 651 337 0;
#X obj 651 313 loadbang;
#X obj 556 361 spigot;
#X obj 449 361 spigot;
#X obj 615 290 sel \$1;
#X msg 615 265 1;
#X connect 0 0 20 0;
#X connect 1 0 2 0;
#X connect 2 0 3 0;
#X connect 3 0 8 0;
#X connect 3 0 9 0;
#X connect 3 0 4 0;
#X connect 4 0 33 0;
#X connect 5 0 4 1;
#X connect 6 0 5 0;
#X connect 7 0 5 0;
#X connect 8 0 7 0;
#X connect 9 0 6 0;
#X connect 10 0 19 0;
#X connect 11 0 12 0;
#X connect 12 0 13 0;
#X connect 13 0 18 0;
#X connect 13 0 14 0;
#X connect 13 0 21 0;
#X connect 14 0 32 0;
#X connect 15 0 14 1;
#X connect 16 0 15 0;
#X connect 17 0 15 0;
#X connect 18 0 16 0;
#X connect 19 0 11 0;
#X connect 20 0 1 0;
#X connect 21 0 17 0;
#X connect 22 2 24 0;
#X connect 23 0 22 0;
#X connect 24 0 26 0;
#X connect 25 0 28 0;
#X connect 25 0 38 0;
#X connect 26 0 25 0;
#X connect 26 1 29 0;
#X connect 26 1 37 0;
#X connect 26 2 40 0;
#X connect 26 2 29 0;
#X connect 27 0 28 0;
#X connect 28 0 33 1;
#X connect 28 0 32 1;
#X connect 29 0 27 0;
#X connect 32 0 68 0;
#X connect 33 0 69 0;
#X connect 34 0 0 0;
#X connect 34 0 10 0;
#X connect 34 0 51 0;
#X connect 34 0 41 0;
#X connect 36 0 68 1;
#X connect 36 0 69 1;
#X connect 37 0 38 0;
#X connect 38 0 64 1;
#X connect 38 0 63 1;
#X connect 39 0 38 0;
#X connect 40 0 39 0;
#X connect 41 0 61 0;
#X connect 42 0 43 0;
#X connect 43 0 44 0;
#X connect 44 0 49 0;
#X connect 44 0 50 0;
#X connect 44 0 45 0;
#X connect 45 0 64 0;
#X connect 46 0 45 1;
#X connect 47 0 46 0;
#X connect 48 0 46 0;
#X connect 49 0 48 0;
#X connect 50 0 47 0;
#X connect 51 0 60 0;
#X connect 52 0 53 0;
#X connect 53 0 54 0;
#X connect 54 0 59 0;
#X connect 54 0 55 0;
#X connect 54 0 62 0;
#X connect 55 0 63 0;
#X connect 56 0 55 1;
#X connect 57 0 56 0;
#X connect 58 0 56 0;
#X connect 59 0 57 0;
#X connect 60 0 52 0;
#X connect 61 0 42 0;
#X connect 62 0 58 0;
#X connect 63 0 76 0;
#X connect 64 0 77 0;
#X connect 65 0 36 0;
#X connect 66 0 36 0;
#X connect 67 0 66 0;
#X connect 67 0 70 0;
#X connect 68 0 31 0;
#X connect 69 0 30 0;
#X connect 70 0 71 0;
#X connect 71 0 65 0;
#X connect 72 0 76 1;
#X connect 72 0 77 1;
#X connect 73 0 72 0;
#X connect 74 0 72 0;
#X connect 75 0 74 0;
#X connect 75 0 79 0;
#X connect 76 0 31 0;
#X connect 77 0 30 0;
#X connect 78 0 73 0;
#X connect 79 0 78 0;
