#N canvas 278 829 210 204 10;
#X obj 14 9 r hands;
#X obj 14 31 route \$1;
#X obj 14 55 route fingers;
#X obj 14 126 unpack 0 0 0;
#X obj 74 8 jh.leap_check;
#X obj 14 103 route position;
#X obj 14 78 route 4 0;
#X obj 109 126 unpack 0 0 0;
#X obj 109 103 route position;
#X obj 88 156 -;
#X obj 88 178 outlet;
#X connect 0 0 1 0;
#X connect 1 0 2 0;
#X connect 2 0 6 0;
#X connect 3 1 9 1;
#X connect 5 0 3 0;
#X connect 6 0 5 0;
#X connect 6 1 8 0;
#X connect 7 1 9 0;
#X connect 8 0 7 0;
#X connect 9 0 10 0;
