#N canvas 294 254 213 170 10;
#X obj 42 74 -;
#X obj 42 95 moses 0;
#X obj 42 116 * -1;
#X obj 42 138 outlet;
#X obj 93 74 -;
#X obj 93 95 moses 0;
#X obj 93 116 * -1;
#X obj 93 138 outlet;
#X obj 144 74 -;
#X obj 144 95 moses 0;
#X obj 144 116 * -1;
#X obj 144 138 outlet;
#X obj 14 32 jh.leap_hand 0;
#X obj 109 32 jh.leap_hand 1;
#X obj 13 7 jh.leap_check;
#X connect 0 0 1 0;
#X connect 1 0 2 0;
#X connect 1 1 3 0;
#X connect 2 0 3 0;
#X connect 4 0 5 0;
#X connect 5 0 6 0;
#X connect 5 1 7 0;
#X connect 6 0 7 0;
#X connect 8 0 9 0;
#X connect 9 0 10 0;
#X connect 9 1 11 0;
#X connect 10 0 11 0;
#X connect 12 0 0 1;
#X connect 12 1 4 1;
#X connect 12 2 8 1;
#X connect 13 0 0 0;
#X connect 13 1 4 0;
#X connect 13 2 8 0;
