#N canvas 449 260 788 467 10;
#X obj 300 61 s check;
#X obj 300 -2 loadbang;
#X obj 300 19 metro 50;
#X msg 300 40 0;
#X obj 39 21 cnv 16 82 16 empty empty empty 20 12 0 14 -237440 -66577
0;
#X obj 20 20 tgl 18 0 s_leapcompactonoff r_leapcompactonoff Leap_On/Off
22 9 0 12 -150846 -1 -1 1 1;
#X obj 255 213 s r_leapcompactonoff;
#X obj 255 193 loadbang;
#X obj 150 180 leapmotion;
#X obj 150 29 tgl 15 0 empty empty empty 17 7 0 10 -262144 -1 -1 0
1;
#X obj 178 226 route hand;
#X obj 92 180 metro 50;
#X msg 150 49 general \$1;
#X msg 150 70 hands_palm_position \$1;
#X obj 178 246 s hands;
#X obj 150 204 s general;
#X msg 150 112 fingers_position \$1;
#X msg 150 134 fingers_velocity \$1;
#X msg 150 91 hands_finger_count \$1;
#X msg 150 156 hands_palm_velocity \$1;
#X obj 150 6 r s_leapcompactonoff;
#X connect 1 0 2 0;
#X connect 2 0 3 0;
#X connect 3 0 0 0;
#X connect 7 0 6 0;
#X connect 8 0 15 0;
#X connect 8 1 10 0;
#X connect 9 0 12 0;
#X connect 9 0 13 0;
#X connect 9 0 11 0;
#X connect 9 0 16 0;
#X connect 9 0 17 0;
#X connect 9 0 18 0;
#X connect 9 0 19 0;
#X connect 10 0 14 0;
#X connect 11 0 8 0;
#X connect 12 0 8 0;
#X connect 13 0 8 0;
#X connect 16 0 8 0;
#X connect 17 0 8 0;
#X connect 18 0 8 0;
#X connect 19 0 8 0;
#X connect 20 0 9 0;
#X coords 0 -1 1 1 102 18 1 20 20;
