#N canvas 584 292 449 235 10;
#X obj 17 107 leapmotion;
#X obj 17 64 tgl 15 0 empty empty empty 17 7 0 10 -262144 -1 -1 1 1
;
#X obj 45 130 route hand;
#X obj 182 36 route 0;
#X msg 17 83 hands_palm_position \$1;
#X obj 182 78 unpack 0 0 0;
#X obj 310 36 route 1;
#X obj 310 78 unpack 0 0 0;
#X obj 45 150 s hands;
#X obj 310 15 r hands;
#X obj 182 15 r hands;
#X obj 310 57 route palm_position;
#X obj 182 57 route palm_position;
#X obj 17 20 inlet;
#X obj 17 41 loadbang;
#X obj 221 133 -;
#X obj 221 154 moses 0;
#X obj 221 175 * -1;
#X obj 221 197 outlet;
#X obj 272 133 -;
#X obj 272 154 moses 0;
#X obj 272 175 * -1;
#X obj 272 197 outlet;
#X obj 323 133 -;
#X obj 323 154 moses 0;
#X obj 323 175 * -1;
#X obj 323 197 outlet;
#X connect 0 1 2 0;
#X connect 1 0 4 0;
#X connect 2 0 8 0;
#X connect 3 0 12 0;
#X connect 4 0 0 0;
#X connect 5 0 15 1;
#X connect 5 1 19 1;
#X connect 5 2 23 1;
#X connect 6 0 11 0;
#X connect 7 0 15 0;
#X connect 7 1 19 0;
#X connect 7 2 23 0;
#X connect 9 0 6 0;
#X connect 10 0 3 0;
#X connect 11 0 7 0;
#X connect 12 0 5 0;
#X connect 13 0 0 0;
#X connect 14 0 1 0;
#X connect 15 0 16 0;
#X connect 16 0 17 0;
#X connect 16 1 18 0;
#X connect 17 0 18 0;
#X connect 19 0 20 0;
#X connect 20 0 21 0;
#X connect 20 1 22 0;
#X connect 21 0 22 0;
#X connect 23 0 24 0;
#X connect 24 0 25 0;
#X connect 24 1 26 0;
#X connect 25 0 26 0;
