#N canvas 31 197 1012 588 10;
#X obj 612 184 bng 15 250 50 0 empty empty empty 17 7 0 10 -262144
-1 -1;
#X obj 639 183 bng 15 250 50 0 empty empty empty 17 7 0 10 -262144
-1 -1;
#X floatatom 612 232 5 0 0 0 - - -;
#X floatatom 316 420 5 0 0 0 - - -;
#X obj 440 215 metro 50;
#X obj 440 243 float;
#X obj 489 243 + 1;
#X obj 612 156 sel 1 0;
#X obj 440 291 mod;
#X obj 612 256 / 50;
#X floatatom 455 272 5 0 0 0 - - -;
#X floatatom 440 320 5 0 0 0 - - -;
#X obj 12 58 inlet;
#X obj 316 343 metro 50;
#X obj 316 375 float;
#X obj 365 375 + 1;
#X obj 316 398 mod 72000;
#X obj 526 191 sel 1;
#X msg 248 214 0;
#X floatatom 440 366 5 0 0 0 - - -;
#X obj 440 386 outlet;
#X obj 100 100 cnv 10 88 18 empty empty empty 20 12 0 14 -125751 -66577
0;
#X obj 102 102 cnv 10 84 14 empty empty empty 3 10 0 16 -241536 -66577
0;
#X obj 129 104 tgl 10 0 \$0-rec \$0-recoff Rec: -24 5 0 10 -122174
-1 -1 0 1;
#X obj 173 104 tgl 10 0 \$0-loop \$0-loopoff Loop: -30 5 0 10 -122174
-1 -1 0 1;
#X obj 249 170 r \$0-rec;
#X obj 440 156 r \$0-loop;
#X obj 612 134 r \$0-rec;
#X obj 211 443 tabwrite \$0-looper;
#X obj 440 342 tabread \$0-looper;
#N canvas 757 173 450 300 array 0;
#N canvas 0 22 450 278 (subpatch) 0;
#X array \$0-looper 72000 float 2;
#X coords 0 1 71999 -1 200 140 1;
#X restore 100 20 graph;
#X restore 518 74 pd array;
#X obj 526 238 s \$0-recoff;
#X obj 248 241 s \$0-loopoff;
#X msg 318 185 const 0;
#X obj 318 212 s \$0-looper;
#X floatatom 211 397 5 0 0 0 - - -;
#X obj 92 39 inlet;
#X obj 177 40 inlet;
#X obj 92 62 s \$0-recoff;
#X obj 177 64 s \$0-loopoff;
#X obj 669 396 r \$0-rec;
#X obj 738 396 r \$0-loop;
#X obj 668 424 outlet;
#X obj 740 422 outlet;
#X obj 612 203 realtime;
#X msg 526 214 0;
#X obj 248 191 sel 1 0;
#X msg 346 303 0;
#X msg 316 303 1;
#X obj 316 324 tgl 15 0 empty empty empty 17 7 0 10 -262144 -1 -1 0
1;
#X msg 258 332 0;
#X obj 346 280 del 3000;
#X connect 0 0 44 0;
#X connect 1 0 44 1;
#X connect 2 0 9 0;
#X connect 3 0 28 1;
#X connect 4 0 5 0;
#X connect 5 0 6 0;
#X connect 5 0 8 0;
#X connect 6 0 5 1;
#X connect 7 0 0 0;
#X connect 7 1 1 0;
#X connect 8 0 11 0;
#X connect 9 0 10 0;
#X connect 10 0 8 1;
#X connect 11 0 29 0;
#X connect 12 0 35 0;
#X connect 13 0 14 0;
#X connect 13 0 35 0;
#X connect 14 0 15 0;
#X connect 14 0 16 0;
#X connect 15 0 14 1;
#X connect 16 0 3 0;
#X connect 17 0 45 0;
#X connect 18 0 32 0;
#X connect 19 0 20 0;
#X connect 25 0 46 0;
#X connect 26 0 4 0;
#X connect 26 0 17 0;
#X connect 27 0 7 0;
#X connect 29 0 19 0;
#X connect 33 0 34 0;
#X connect 35 0 28 0;
#X connect 36 0 38 0;
#X connect 37 0 39 0;
#X connect 40 0 42 0;
#X connect 41 0 43 0;
#X connect 44 0 2 0;
#X connect 45 0 5 0;
#X connect 45 0 31 0;
#X connect 46 0 18 0;
#X connect 46 0 48 0;
#X connect 46 0 50 0;
#X connect 46 0 35 0;
#X connect 46 1 51 0;
#X connect 47 0 49 0;
#X connect 48 0 49 0;
#X connect 49 0 13 0;
#X connect 50 0 14 0;
#X connect 51 0 47 0;
#X coords 0 -1 1 1 88 18 1 100 100;
