#N canvas 139 136 489 284 10;
#X obj 10 73 route finger_count;
#X obj 10 10 r hands;
#X floatatom 10 94 5 0 0 0 - - -;
#X obj 10 51 route 0;
#X obj 107 8 jh.leap_check;
#X obj 10 208 bng 15 250 50 0 empty empty empty 17 7 0 10 -262144 -1
-1;
#X obj 50 223 spigot;
#X obj 10 115 sel 0 1 2 3 4 5;
#X msg 20 163 0;
#X msg 83 143 1;
#X floatatom 83 202 5 0 0 0 - - -;
#X obj 50 245 outlet;
#X obj 251 74 route finger_count;
#X floatatom 251 95 5 0 0 0 - - -;
#X obj 251 209 bng 15 250 50 0 empty empty empty 17 7 0 10 -262144
-1 -1;
#X obj 291 224 spigot;
#X obj 251 116 sel 0 1 2 3 4 5;
#X msg 261 164 0;
#X msg 324 144 1;
#X floatatom 324 203 5 0 0 0 - - -;
#X obj 291 246 outlet;
#X obj 251 52 route 1;
#X obj 20 143 del 2;
#X obj 261 144 del 2;
#X obj 172 246 outlet;
#X obj 133 209 bng 15 250 50 0 empty empty empty 17 7 0 10 -262144
-1 -1;
#X msg 143 164 0;
#X msg 205 144 1;
#X floatatom 205 203 5 0 0 0 - - -;
#X obj 143 144 del 2;
#X obj 133 116 sel 1 2 3 4 5 0;
#X obj 172 224 spigot;
#X obj 403 247 outlet;
#X obj 364 210 bng 15 250 50 0 empty empty empty 17 7 0 10 -262144
-1 -1;
#X msg 374 165 0;
#X msg 436 145 1;
#X floatatom 436 204 5 0 0 0 - - -;
#X obj 374 145 del 2;
#X obj 364 117 sel 1 2 3 4 5 0;
#X obj 403 225 spigot;
#X connect 0 0 2 0;
#X connect 1 0 3 0;
#X connect 1 0 21 0;
#X connect 2 0 7 0;
#X connect 2 0 30 0;
#X connect 3 0 0 0;
#X connect 5 0 6 0;
#X connect 6 0 11 0;
#X connect 7 0 5 0;
#X connect 7 0 22 0;
#X connect 7 1 9 0;
#X connect 7 2 9 0;
#X connect 7 3 9 0;
#X connect 7 4 9 0;
#X connect 7 5 9 0;
#X connect 8 0 10 0;
#X connect 9 0 10 0;
#X connect 10 0 6 1;
#X connect 12 0 13 0;
#X connect 13 0 16 0;
#X connect 13 0 38 0;
#X connect 14 0 15 0;
#X connect 15 0 20 0;
#X connect 16 0 14 0;
#X connect 16 0 23 0;
#X connect 16 1 18 0;
#X connect 16 2 18 0;
#X connect 16 3 18 0;
#X connect 16 4 18 0;
#X connect 16 5 18 0;
#X connect 17 0 19 0;
#X connect 18 0 19 0;
#X connect 19 0 15 1;
#X connect 21 0 12 0;
#X connect 22 0 8 0;
#X connect 23 0 17 0;
#X connect 25 0 31 0;
#X connect 26 0 28 0;
#X connect 27 0 28 0;
#X connect 28 0 31 1;
#X connect 29 0 26 0;
#X connect 30 0 25 0;
#X connect 30 0 29 0;
#X connect 30 1 29 0;
#X connect 30 1 25 0;
#X connect 30 2 29 0;
#X connect 30 2 25 0;
#X connect 30 3 29 0;
#X connect 30 3 25 0;
#X connect 30 4 29 0;
#X connect 30 4 25 0;
#X connect 30 5 27 0;
#X connect 31 0 24 0;
#X connect 33 0 39 0;
#X connect 34 0 36 0;
#X connect 35 0 36 0;
#X connect 36 0 39 1;
#X connect 37 0 34 0;
#X connect 38 0 33 0;
#X connect 38 0 37 0;
#X connect 38 1 37 0;
#X connect 38 1 33 0;
#X connect 38 2 37 0;
#X connect 38 2 33 0;
#X connect 38 3 37 0;
#X connect 38 3 33 0;
#X connect 38 4 37 0;
#X connect 38 4 33 0;
#X connect 38 5 35 0;
#X connect 39 0 32 0;
