#N canvas 116 195 280 405 10;
#X floatatom 60 71 5 0 0 0 - - -;
#X floatatom 60 116 5 0 0 0 - - -;
#X obj 60 137 t b;
#X obj 60 159 bng 15 250 50 0 empty empty empty 17 7 0 10 -262144 -1
-1;
#X obj 27 248 spigot;
#X floatatom 60 228 5 0 0 0 - - -;
#X msg 60 204 0;
#X msg 108 203 1;
#X obj 108 180 del 100;
#X obj 60 180 del 10;
#X obj 27 281 outlet;
#X floatatom 167 71 5 0 0 0 - - -;
#X floatatom 167 116 5 0 0 0 - - -;
#X obj 167 137 t b;
#X obj 167 159 bng 15 250 50 0 empty empty empty 17 7 0 10 -262144
-1 -1;
#X obj 134 248 spigot;
#X floatatom 167 228 5 0 0 0 - - -;
#X msg 167 204 0;
#X msg 215 203 1;
#X obj 167 180 del 10;
#X obj 134 281 outlet;
#X obj 114 16 jh.leap_hand_vel 0;
#X obj 167 93 moses 800;
#X obj 60 93 moses -800;
#X obj 44 338 bng 15 250 50 0 empty empty empty 17 7 0 10 -262144 -1
-1;
#X obj 142 337 bng 15 250 50 0 empty empty empty 17 7 0 10 -262144
-1 -1;
#X obj 215 180 del 100;
#X connect 0 0 23 0;
#X connect 1 0 2 0;
#X connect 2 0 3 0;
#X connect 3 0 8 0;
#X connect 3 0 9 0;
#X connect 3 0 4 0;
#X connect 4 0 10 0;
#X connect 4 0 24 0;
#X connect 5 0 4 1;
#X connect 6 0 5 0;
#X connect 7 0 5 0;
#X connect 8 0 7 0;
#X connect 9 0 6 0;
#X connect 11 0 22 0;
#X connect 12 0 13 0;
#X connect 13 0 14 0;
#X connect 14 0 19 0;
#X connect 14 0 15 0;
#X connect 14 0 26 0;
#X connect 15 0 20 0;
#X connect 15 0 25 0;
#X connect 16 0 15 1;
#X connect 17 0 16 0;
#X connect 18 0 16 0;
#X connect 19 0 17 0;
#X connect 21 0 0 0;
#X connect 21 0 11 0;
#X connect 22 0 12 0;
#X connect 23 0 1 0;
#X connect 26 0 18 0;
