#N canvas 36 33 1244 581 10;
#X floatatom 93 40 5 0 0 0 - - -;
#X floatatom 93 85 5 0 0 0 - - -;
#X obj 93 62 moses -200;
#X obj 93 106 t b;
#X obj 93 128 bng 15 250 50 0 empty empty empty 17 7 0 10 -262144 -1
-1;
#X obj 60 218 spigot;
#X floatatom 93 197 5 0 0 0 - - -;
#X msg 93 173 0;
#X msg 141 172 1;
#X obj 141 149 del 100;
#X obj 93 149 del 10;
#X floatatom 251 39 5 0 0 0 - - -;
#X floatatom 251 84 5 0 0 0 - - -;
#X obj 251 61 moses -200;
#X obj 251 105 t b;
#X obj 251 127 bng 15 250 50 0 empty empty empty 17 7 0 10 -262144
-1 -1;
#X obj 218 216 spigot;
#X floatatom 251 196 5 0 0 0 - - -;
#X msg 251 172 0;
#X msg 299 171 1;
#X obj 299 148 del 100;
#X obj 251 148 del 10;
#X floatatom 409 39 5 0 0 0 - - -;
#X floatatom 409 84 5 0 0 0 - - -;
#X obj 409 61 moses -200;
#X obj 409 105 t b;
#X obj 409 127 bng 15 250 50 0 empty empty empty 17 7 0 10 -262144
-1 -1;
#X obj 376 216 spigot;
#X floatatom 409 196 5 0 0 0 - - -;
#X msg 409 172 0;
#X msg 457 171 1;
#X obj 457 148 del 100;
#X obj 409 148 del 10;
#X floatatom 567 39 5 0 0 0 - - -;
#X floatatom 567 84 5 0 0 0 - - -;
#X obj 567 61 moses -200;
#X obj 567 105 t b;
#X obj 567 127 bng 15 250 50 0 empty empty empty 17 7 0 10 -262144
-1 -1;
#X obj 534 216 spigot;
#X floatatom 567 196 5 0 0 0 - - -;
#X msg 567 172 0;
#X msg 615 171 1;
#X obj 615 148 del 100;
#X obj 567 148 del 10;
#X floatatom 726 39 5 0 0 0 - - -;
#X floatatom 726 84 5 0 0 0 - - -;
#X obj 726 61 moses -200;
#X obj 726 105 t b;
#X obj 726 127 bng 15 250 50 0 empty empty empty 17 7 0 10 -262144
-1 -1;
#X obj 693 216 spigot;
#X floatatom 726 196 5 0 0 0 - - -;
#X msg 726 172 0;
#X msg 774 171 1;
#X obj 774 148 del 100;
#X obj 726 148 del 10;
#X obj 13 -6 jh.leap_check;
#X obj 60 251 outlet;
#X obj 218 249 outlet;
#X obj 376 249 outlet;
#X obj 534 249 outlet;
#X obj 693 252 outlet;
#X floatatom 884 40 5 0 0 0 - - -;
#X floatatom 884 85 5 0 0 0 - - -;
#X obj 884 62 moses -200;
#X obj 884 106 t b;
#X obj 884 128 bng 15 250 50 0 empty empty empty 17 7 0 10 -262144
-1 -1;
#X obj 851 218 spigot;
#X floatatom 884 197 5 0 0 0 - - -;
#X msg 884 173 0;
#X msg 932 172 1;
#X obj 932 149 del 100;
#X obj 884 149 del 10;
#X floatatom 1042 39 5 0 0 0 - - -;
#X floatatom 1042 84 5 0 0 0 - - -;
#X obj 1042 61 moses -200;
#X obj 1042 105 t b;
#X obj 1042 127 bng 15 250 50 0 empty empty empty 17 7 0 10 -262144
-1 -1;
#X obj 1009 216 spigot;
#X floatatom 1042 196 5 0 0 0 - - -;
#X msg 1042 172 0;
#X msg 1090 171 1;
#X obj 1090 148 del 100;
#X obj 1042 148 del 10;
#X floatatom 1200 39 5 0 0 0 - - -;
#X floatatom 1200 84 5 0 0 0 - - -;
#X obj 1200 61 moses -200;
#X obj 1200 105 t b;
#X obj 1200 127 bng 15 250 50 0 empty empty empty 17 7 0 10 -262144
-1 -1;
#X obj 1167 216 spigot;
#X floatatom 1200 196 5 0 0 0 - - -;
#X msg 1200 172 0;
#X msg 1248 171 1;
#X obj 1248 148 del 100;
#X obj 1200 148 del 10;
#X floatatom 1358 39 5 0 0 0 - - -;
#X floatatom 1358 84 5 0 0 0 - - -;
#X obj 1358 61 moses -200;
#X obj 1358 105 t b;
#X obj 1358 127 bng 15 250 50 0 empty empty empty 17 7 0 10 -262144
-1 -1;
#X obj 1325 216 spigot;
#X floatatom 1358 196 5 0 0 0 - - -;
#X msg 1358 172 0;
#X msg 1406 171 1;
#X obj 1406 148 del 100;
#X obj 1358 148 del 10;
#X floatatom 1517 39 5 0 0 0 - - -;
#X floatatom 1517 84 5 0 0 0 - - -;
#X obj 1517 61 moses -200;
#X obj 1517 105 t b;
#X obj 1517 127 bng 15 250 50 0 empty empty empty 17 7 0 10 -262144
-1 -1;
#X obj 1484 216 spigot;
#X floatatom 1517 196 5 0 0 0 - - -;
#X msg 1517 172 0;
#X msg 1565 171 1;
#X obj 1565 148 del 100;
#X obj 1517 148 del 10;
#X obj 851 251 outlet;
#X obj 1009 249 outlet;
#X obj 1167 249 outlet;
#X obj 1325 249 outlet;
#X obj 1484 252 outlet;
#X obj 26 17 jh.leap_finger_vel 0 4;
#X obj 184 17 jh.leap_finger_vel 0 3;
#X obj 342 17 jh.leap_finger_vel 0 2;
#X obj 500 17 jh.leap_finger_vel 0 1;
#X obj 659 17 jh.leap_finger_vel 0 0;
#X obj 817 17 jh.leap_finger_vel 1 0;
#X obj 975 17 jh.leap_finger_vel 1 1;
#X obj 1133 17 jh.leap_finger_vel 1 2;
#X obj 1291 17 jh.leap_finger_vel 1 3;
#X obj 1450 17 jh.leap_finger_vel 1 4;
#X connect 0 0 2 0;
#X connect 1 0 3 0;
#X connect 2 0 1 0;
#X connect 3 0 4 0;
#X connect 4 0 9 0;
#X connect 4 0 10 0;
#X connect 4 0 5 0;
#X connect 5 0 56 0;
#X connect 6 0 5 1;
#X connect 7 0 6 0;
#X connect 8 0 6 0;
#X connect 9 0 8 0;
#X connect 10 0 7 0;
#X connect 11 0 13 0;
#X connect 12 0 14 0;
#X connect 13 0 12 0;
#X connect 14 0 15 0;
#X connect 15 0 20 0;
#X connect 15 0 21 0;
#X connect 15 0 16 0;
#X connect 16 0 57 0;
#X connect 17 0 16 1;
#X connect 18 0 17 0;
#X connect 19 0 17 0;
#X connect 20 0 19 0;
#X connect 21 0 18 0;
#X connect 22 0 24 0;
#X connect 23 0 25 0;
#X connect 24 0 23 0;
#X connect 25 0 26 0;
#X connect 26 0 31 0;
#X connect 26 0 32 0;
#X connect 26 0 27 0;
#X connect 27 0 58 0;
#X connect 28 0 27 1;
#X connect 29 0 28 0;
#X connect 30 0 28 0;
#X connect 31 0 30 0;
#X connect 32 0 29 0;
#X connect 33 0 35 0;
#X connect 34 0 36 0;
#X connect 35 0 34 0;
#X connect 36 0 37 0;
#X connect 37 0 42 0;
#X connect 37 0 43 0;
#X connect 37 0 38 0;
#X connect 38 0 59 0;
#X connect 39 0 38 1;
#X connect 40 0 39 0;
#X connect 41 0 39 0;
#X connect 42 0 41 0;
#X connect 43 0 40 0;
#X connect 44 0 46 0;
#X connect 45 0 47 0;
#X connect 46 0 45 0;
#X connect 47 0 48 0;
#X connect 48 0 53 0;
#X connect 48 0 54 0;
#X connect 48 0 49 0;
#X connect 49 0 60 0;
#X connect 50 0 49 1;
#X connect 51 0 50 0;
#X connect 52 0 50 0;
#X connect 53 0 52 0;
#X connect 54 0 51 0;
#X connect 61 0 63 0;
#X connect 62 0 64 0;
#X connect 63 0 62 0;
#X connect 64 0 65 0;
#X connect 65 0 70 0;
#X connect 65 0 71 0;
#X connect 65 0 66 0;
#X connect 66 0 116 0;
#X connect 67 0 66 1;
#X connect 68 0 67 0;
#X connect 69 0 67 0;
#X connect 70 0 69 0;
#X connect 71 0 68 0;
#X connect 72 0 74 0;
#X connect 73 0 75 0;
#X connect 74 0 73 0;
#X connect 75 0 76 0;
#X connect 76 0 81 0;
#X connect 76 0 82 0;
#X connect 76 0 77 0;
#X connect 77 0 117 0;
#X connect 78 0 77 1;
#X connect 79 0 78 0;
#X connect 80 0 78 0;
#X connect 81 0 80 0;
#X connect 82 0 79 0;
#X connect 83 0 85 0;
#X connect 84 0 86 0;
#X connect 85 0 84 0;
#X connect 86 0 87 0;
#X connect 87 0 92 0;
#X connect 87 0 93 0;
#X connect 87 0 88 0;
#X connect 88 0 118 0;
#X connect 89 0 88 1;
#X connect 90 0 89 0;
#X connect 91 0 89 0;
#X connect 92 0 91 0;
#X connect 93 0 90 0;
#X connect 94 0 96 0;
#X connect 95 0 97 0;
#X connect 96 0 95 0;
#X connect 97 0 98 0;
#X connect 98 0 103 0;
#X connect 98 0 104 0;
#X connect 98 0 99 0;
#X connect 99 0 119 0;
#X connect 100 0 99 1;
#X connect 101 0 100 0;
#X connect 102 0 100 0;
#X connect 103 0 102 0;
#X connect 104 0 101 0;
#X connect 105 0 107 0;
#X connect 106 0 108 0;
#X connect 107 0 106 0;
#X connect 108 0 109 0;
#X connect 109 0 114 0;
#X connect 109 0 115 0;
#X connect 109 0 110 0;
#X connect 110 0 120 0;
#X connect 111 0 110 1;
#X connect 112 0 111 0;
#X connect 113 0 111 0;
#X connect 114 0 113 0;
#X connect 115 0 112 0;
#X connect 121 1 0 0;
#X connect 122 1 11 0;
#X connect 123 1 22 0;
#X connect 124 1 33 0;
#X connect 125 1 44 0;
#X connect 126 1 61 0;
#X connect 127 1 72 0;
#X connect 128 1 83 0;
#X connect 129 1 94 0;
#X connect 130 1 105 0;
